<svg width="38" height="31" viewBox="0 0 38 31" fill="none" xmlns="http://www.w3.org/2000/svg">
<path d="M28.375 0.75H11.5C9.39062 0.75 7.75 2.44922 7.75 4.5V6.375H5.40625C4.58594 6.375 4 7.01953 4 7.78125C4 8.60156 4.58594 9.1875 5.40625 9.1875H7.75V14.3438H5.40625C4.58594 14.3438 4 14.9883 4 15.75C4 16.5703 4.58594 17.1562 5.40625 17.1562H7.75V22.3125H5.40625C4.58594 22.3125 4 22.957 4 23.7188C4 24.5391 4.58594 25.125 5.40625 25.125H7.75V27C7.75 29.1094 9.39062 30.75 11.5 30.75H28.375C30.4258 30.75 32.125 29.1094 32.125 27V4.5C32.125 2.44922 30.4258 0.75 28.375 0.75ZM10.5625 27V25.125H11.9688C12.7305 25.125 13.375 24.5391 13.375 23.7188C13.375 22.957 12.7305 22.3125 11.9688 22.3125H10.5625V17.1562H11.9688C12.7305 17.1562 13.375 16.5703 13.375 15.75C13.375 14.9883 12.7305 14.3438 11.9688 14.3438H10.5625V9.1875H11.9688C12.7305 9.1875 13.375 8.60156 13.375 7.78125C13.375 7.01953 12.7305 6.375 11.9688 6.375H10.5625V4.5C10.5625 4.03125 10.9727 3.5625 11.5 3.5625H15.25V27.9375H11.5C10.9727 27.9375 10.5625 27.5273 10.5625 27ZM29.3125 27C29.3125 27.5273 28.8438 27.9375 28.375 27.9375H18.0625V3.5625H28.375C28.8438 3.5625 29.3125 4.03125 29.3125 4.5V27Z" fill="#081E4A"/>
</svg>
