<svg width="38" height="31" viewBox="0 0 38 31" fill="none" xmlns="http://www.w3.org/2000/svg">
<path d="M32.625 21.375V3.5625C32.625 2.03906 31.3359 0.75 29.8125 0.75H11.0625C8.42578 0.75 6.375 2.85938 6.375 5.4375V26.0625C6.375 28.6992 8.42578 30.75 11.0625 30.75H31.2188C31.9805 30.75 32.625 30.1641 32.625 29.3438C32.625 28.582 31.9805 27.9375 31.2188 27.9375H30.75V24.0703C31.8047 23.6602 32.625 22.6055 32.625 21.375ZM27.9375 27.9375H11.0625C10.0078 27.9375 9.1875 27.1172 9.1875 26.0625C9.1875 25.0664 10.0078 24.1875 11.0625 24.1875H27.9375V27.9375ZM29.8125 21.375H11.0625C10.3594 21.375 9.71484 21.5508 9.1875 21.7852V5.4375C9.1875 4.44141 10.0078 3.5625 11.0625 3.5625H29.8125V21.375ZM15.6914 9.1875L16.3945 10.9453C16.5117 11.0039 16.5703 11.0625 16.6289 11.0625C16.6289 11.0625 16.8047 11.0625 16.8047 10.9453L17.5664 9.1875L19.3242 8.48438C19.3828 8.42578 19.4414 8.36719 19.4414 8.25C19.4414 8.19141 19.3828 8.13281 19.2656 8.07422L17.5664 7.3125L16.8633 5.61328C16.8047 5.49609 16.7461 5.4375 16.6289 5.4375C16.4531 5.4375 16.5117 5.49609 16.4531 5.61328L15.6914 7.3125L13.9922 8.07422C13.875 8.07422 13.875 8.19141 13.875 8.25C13.875 8.36719 13.875 8.42578 13.9922 8.48438L15.6914 9.1875ZM18.5625 14.8125C18.5625 14.9297 18.6211 15.1055 18.7383 15.1641L21.668 16.3359V16.3945L22.8984 19.2656C22.957 19.3828 23.0742 19.5 23.1914 19.5C23.3672 19.5 23.4844 19.3828 23.543 19.2656L24.7734 16.3359L27.7031 15.1641C27.8203 15.1055 27.9375 14.9883 27.9375 14.8125C27.9375 14.6953 27.8203 14.5781 27.7031 14.5195L24.7734 13.2891L23.6016 10.3594C23.4844 10.2422 23.3672 10.125 23.25 10.125C23.0742 10.125 22.957 10.2422 22.8984 10.3594L21.668 13.2891L18.7383 14.4609C18.6211 14.5195 18.5625 14.6953 18.5625 14.8125Z" fill="#081E4A"/>
</svg>
