<svg width="40" height="42" viewBox="0 0 40 42" fill="none" xmlns="http://www.w3.org/2000/svg">
<path d="M29.375 9.5H5.9375C5.41016 9.5 5 9.96875 5 10.4375V26.375C5 29.5391 7.46094 32 10.625 32H21.875C24.9805 32 27.5 29.5391 27.5 26.375V24.5H29.0234C32.9492 24.5 36.4062 21.6875 36.8164 17.7617C37.2266 13.3086 33.7109 9.5 29.375 9.5ZM24.6875 26.375C24.6875 27.957 23.3984 29.1875 21.875 29.1875H10.625C9.04297 29.1875 7.8125 27.957 7.8125 26.375V12.3125H24.6875V26.375ZM29.375 21.6875H27.5V12.3125H29.375C31.9531 12.3125 34.0625 14.4219 34.0625 17C34.0625 19.6367 31.9531 21.6875 29.375 21.6875Z" fill="#081E4A"/>
</svg>
