<?xml version="1.0" encoding="UTF-8"?>
<svg width="38px" height="38px" viewBox="0 0 38 38" version="1.1" xmlns="http://www.w3.org/2000/svg"
>
    <!-- Generator: Sketch 55.2 (78181) - https://sketchapp.com -->
    <title>Group 5</title>
    <desc>Created with Sketch.</desc>
    <g id="Design" stroke="none" stroke-width="1" fill="none" fill-rule="evenodd">
        <g id="[desktop]One-page-plan---empty" transform="translate(-620.000000, -582.000000)" fill="#3E474F">
            <g id="content" transform="translate(310.000000, 274.000000)">
                <g id="tasks" transform="translate(0.000000, 43.000000)">
                    <g id="Group-8-Copy-5" transform="translate(300.000000, 255.000000)">
                        <g id="Group-5" transform="translate(10.000000, 10.000000)">
                            <rect id="Rectangle" opacity="0.05" x="0" y="0" width="38" height="38" rx="4"></rect>
                            <path d="M10,10 L10,14 L12,14 L12,12 L14,12 L14,10 L10,10 Z M24,10 L24,12 L26,12 L26,14 L28,14 L28,10 L24,10 Z M19,12 C17.35503,12 16,13.3550302 16,15 C16,16.6449698 17.35503,18 19,18 C20.64497,18 22,16.6449698 22,15 C22,13.3550302 20.64497,12 19,12 Z M19,14 C19.56503,14 20,14.4349698 20,15 C20,15.5650302 19.56503,16 19,16 C18.43497,16 18,15.5650302 18,15 C18,14.4349698 18.43497,14 19,14 Z M19,19 C17.331,19 14,19.837 14,21.5 L14,24 L24,24 L24,21.5 C24,19.837 20.669,19 19,19 Z M19,21 C20.06,21 21.506,21.433922 22,21.794922 L22,22 L16,22 L16,21.794922 C16.494,21.433922 17.94,21 19,21 Z M10,24 L10,28 L14,28 L14,26 L12,26 L12,24 L10,24 Z M26,24 L26,26 L24,26 L24,28 L28,28 L28,24 L26,24 Z"
                                  id="Shape" fill-rule="nonzero" opacity="0.5"></path>
                        </g>
                    </g>
                </g>
            </g>
        </g>
    </g>
</svg>
