<?xml version="1.0" encoding="UTF-8"?>
<svg width="38px" height="38px" viewBox="0 0 38 38" version="1.1" xmlns="http://www.w3.org/2000/svg"
>
    <!-- Generator: Sketch 55.2 (78181) - https://sketchapp.com -->
    <title>Group 4</title>
    <desc>Created with Sketch.</desc>
    <g id="Design" stroke="none" stroke-width="1" fill="none" fill-rule="evenodd">
        <g id="[desktop]One-page-plan---empty" transform="translate(-1220.000000, -497.000000)" fill="#3E474F">
            <g id="content" transform="translate(310.000000, 274.000000)">
                <g id="tasks" transform="translate(0.000000, 43.000000)">
                    <g id="Group-8-Copy-7" transform="translate(900.000000, 170.000000)">
                        <g id="Group-4" transform="translate(10.000000, 10.000000)">
                            <rect id="Rectangle" opacity="0.05" x="0" y="0" width="38" height="38" rx="4"></rect>
                            <path d="M8,11 L8,13 L22,13 L22,17 L22,19 L22,22 L16.2207031,22 C15.6716274,21.390667 14.8849156,21 14,21 C13.1150844,21 12.3283726,21.390667 11.7792969,22 L11,22 L11,21 L13,19 L9,19 L9,24 L11,24 C11,25.657 12.343,27 14,27 C15.657,27 17,25.657 17,24 L23,24 C23,25.657 24.343,27 26,27 C27.657,27 29,25.657 29,24 L30,24 L31,24 L31,19 L28.275391,13.5527344 C28.106391,13.2137344 27.761813,13 27.382812,13 L24,13 L24,11 L8,11 Z M9,15 L9,17 L16,17 L16,15 L9,15 Z M24,15 L26.763672,15 L27.763672,17 L24,17 L24,15 Z M24,19 L28.763672,19 L29,19.472656 L29,22 L28.220703,22 C27.671627,21.390667 26.884916,21 26,21 C25.227916,21 24.53164,21.300231 24,21.779297 L24,19 Z M14,22.75 C14.689,22.75 15.25,23.311 15.25,24 C15.25,24.689 14.689,25.25 14,25.25 C13.311,25.25 12.75,24.689 12.75,24 C12.75,23.311 13.311,22.75 14,22.75 Z M26,22.75 C26.689,22.75 27.25,23.311 27.25,24 C27.25,24.689 26.689,25.25 26,25.25 C25.311,25.25 24.75,24.689 24.75,24 C24.75,23.311 25.311,22.75 26,22.75 Z"
                                  id="Shape" fill-rule="nonzero" opacity="0.5"></path>
                        </g>
                    </g>
                </g>
            </g>
        </g>
    </g>
</svg>
