<svg width="38" height="30" viewBox="0 0 38 30" fill="none" xmlns="http://www.w3.org/2000/svg">
<path d="M23.8633 12.4648C23.2188 13.0508 22.2812 13.0508 21.5781 12.5234L15.25 7.77734L6.98828 14.3398C6.22656 14.9844 5.05469 14.8672 4.41016 14.0469C3.70703 13.2852 3.88281 12.1133 4.70312 11.4102L14.0781 3.96875C14.7227 3.38281 15.6602 3.38281 16.3633 3.91016L22.6914 8.65625L30.9531 2.09375C31.7148 1.39062 32.8867 1.56641 33.5312 2.38672C34.2344 3.14844 34.0586 4.32031 33.2383 4.96484L23.8633 12.4648ZM13.375 14.75C13.375 13.7539 14.1953 12.875 15.25 12.875C16.2461 12.875 17.125 13.7539 17.125 14.75V26C17.125 27.0547 16.2461 27.875 15.25 27.875C14.1953 27.875 13.375 27.0547 13.375 26V14.75ZM5.875 20.375C5.875 19.3789 6.69531 18.5 7.75 18.5C8.74609 18.5 9.625 19.3789 9.625 20.375V26C9.625 27.0547 8.74609 27.875 7.75 27.875C6.69531 27.875 5.875 27.0547 5.875 26V20.375ZM24.625 18.5V26C24.625 27.0547 23.7461 27.875 22.75 27.875C21.6953 27.875 20.875 27.0547 20.875 26V18.5C20.875 17.5039 21.6953 16.625 22.75 16.625C23.7461 16.625 24.625 17.5039 24.625 18.5ZM28.375 14.75C28.375 13.7539 29.1953 12.875 30.25 12.875C31.2461 12.875 32.125 13.7539 32.125 14.75V26C32.125 27.0547 31.2461 27.875 30.25 27.875C29.1953 27.875 28.375 27.0547 28.375 26V14.75Z" fill="#081E4A"/>
</svg>
