<?xml version="1.0" encoding="UTF-8"?>
<svg width="38px" height="38px" viewBox="0 0 38 38" version="1.1" xmlns="http://www.w3.org/2000/svg"
>
    <!-- Generator: Sketch 55.2 (78181) - https://sketchapp.com -->
    <title>Group 10</title>
    <desc>Created with Sketch.</desc>
    <g id="Design" stroke="none" stroke-width="1" fill="none" fill-rule="evenodd">
        <g id="[desktop]One-page-plan---empty" transform="translate(-1220.000000, -837.000000)" fill="#3E474F">
            <g id="content" transform="translate(310.000000, 274.000000)">
                <g id="tasks" transform="translate(0.000000, 43.000000)">
                    <g id="Group-8-Copy-15" transform="translate(900.000000, 510.000000)">
                        <g id="Group-10" transform="translate(10.000000, 10.000000)">
                            <rect id="Rectangle" opacity="0.05" x="0" y="0" width="38" height="38" rx="4"></rect>
                            <path d="M10,10 C9.448,10 9,10.448 9,11 L9,21 C9,21.552 9.448,22 10,22 L28,22 C28.552,22 29,21.552 29,21 L29,11 C29,10.448 28.552,10 28,10 L10,10 Z M11.9121094,12 L26.087891,12 C26.2390013,12.4259146 26.5740854,12.7609989 27,12.9121094 L27,19.087891 C26.5740855,19.2390014 26.2390014,19.5740855 26.087891,20 L11.9121094,20 C11.7609989,19.5740854 11.4259146,19.2390013 11,19.087891 L11,12.9121094 C11.4259147,12.760999 11.760999,12.4259147 11.9121094,12 Z M19,13 C17.3431458,13 16,14.3431458 16,16 C16,17.6568542 17.3431458,19 19,19 C20.6568542,19 22,17.6568542 22,16 C22,14.3431458 20.6568542,13 19,13 Z M14,15 C13.448,15 13,15.447 13,16 C13,16.553 13.448,17 14,17 C14.552,17 15,16.553 15,16 C15,15.447 14.552,15 14,15 Z M24,15 C23.448,15 23,15.447 23,16 C23,16.553 23.448,17 24,17 C24.552,17 25,16.553 25,16 C25,15.447 24.552,15 24,15 Z M10.9902344,24 L26.228516,27.96875 C26.763516,28.10775 27.308266,27.785953 27.447266,27.251953 L28.294922,24 L26.228516,24 L25.992188,24.900391 C25.543187,24.939391 25.137766,25.178781 24.884766,25.550781 L18.927734,24 L10.9902344,24 Z"
                                  id="Shape" fill-rule="nonzero" opacity="0.5"></path>
                        </g>
                    </g>
                </g>
            </g>
        </g>
    </g>
</svg>
