<?xml version="1.0" encoding="UTF-8" standalone="no"?>
<!-- Generator: Adobe Illustrator 19.0.0, SVG Export Plug-In . SVG Version: 6.00 Build 0)  -->

<svg
   xmlns:dc="http://purl.org/dc/elements/1.1/"
   xmlns:cc="http://creativecommons.org/ns#"
   xmlns:rdf="http://www.w3.org/1999/02/22-rdf-syntax-ns#"
   xmlns:svg="http://www.w3.org/2000/svg"
   xmlns="http://www.w3.org/2000/svg"
   xmlns:sodipodi="http://sodipodi.sourceforge.net/DTD/sodipodi-0.dtd"
   xmlns:inkscape="http://www.inkscape.org/namespaces/inkscape"
   version="1.1"
   id="Capa_1"
   x="0px"
   y="0px"
   viewBox="0 0 459.85995 520"
   xml:space="preserve"
   sodipodi:docname="blank_icon3.svg"
   inkscape:version="0.92.4 (5da689c313, 2019-01-14)"
   inkscape:export-filename="C:\Projects\Idea Buddy\#_DEV PHASE 2\Templates\blank_icon3.png"
   inkscape:export-xdpi="299.642"
   inkscape:export-ydpi="299.642"
   width="459.85995"
   height="520"><metadata
   id="metadata186"><rdf:RDF><cc:Work
       rdf:about=""><dc:format>image/svg+xml</dc:format><dc:type
         rdf:resource="http://purl.org/dc/dcmitype/StillImage" /><dc:title></dc:title></cc:Work></rdf:RDF></metadata><defs
   id="defs184">
	
	
	
	
	
	
	
	
	
	
	
	
</defs><sodipodi:namedview
   pagecolor="#ffffff"
   bordercolor="#666666"
   borderopacity="1"
   objecttolerance="10"
   gridtolerance="10"
   guidetolerance="10"
   inkscape:pageopacity="0"
   inkscape:pageshadow="2"
   inkscape:window-width="1920"
   inkscape:window-height="1017"
   id="namedview182"
   showgrid="false"
   inkscape:zoom="0.828125"
   inkscape:cx="-73.918636"
   inkscape:cy="241.20524"
   inkscape:window-x="-8"
   inkscape:window-y="-8"
   inkscape:window-maximized="1"
   inkscape:current-layer="Capa_1"
   showguides="false"
   inkscape:pagecheckerboard="false"
   fit-margin-top="0"
   fit-margin-left="0"
   fit-margin-right="0"
   fit-margin-bottom="0" />
<path
   inkscape:connector-curvature="0"
   style="fill:#dcdcdc;fill-opacity:1"
   d="M 454.70796,520 H 13.152 C 10.307,520 8,517.694 8,514.848 V 13.152 C 8,10.306 10.306,8 13.152,8 h 441.55596 c 2.845,0 5.152,2.306 5.152,5.152 v 501.696 c -10e-4,2.846 -2.307,5.152 -5.152,5.152 z"
   id="path99-6"
   inkscape:export-xdpi="299.642"
   inkscape:export-ydpi="299.642" /><path
   style="fill:#f5f5f5;fill-opacity:1"
   d="M 446.70796,512 H 5.152 C 2.307,512 0,509.694 0,506.848 V 5.152 C 0,2.306 2.306,0 5.152,0 h 441.55596 c 2.845,0 5.152,2.306 5.152,5.152 v 501.696 c -10e-4,2.846 -2.307,5.152 -5.152,5.152 z"
   id="path99"
   inkscape:export-xdpi="299.642"
   inkscape:export-ydpi="299.642"
   inkscape:connector-curvature="0" />













<g
   id="g151"
   transform="translate(-655.57944,66.415094)">
</g>
<g
   id="g153"
   transform="translate(-655.57944,66.415094)">
</g>
<g
   id="g155"
   transform="translate(-655.57944,66.415094)">
</g>
<g
   id="g157"
   transform="translate(-655.57944,66.415094)">
</g>
<g
   id="g159"
   transform="translate(-655.57944,66.415094)">
</g>
<g
   id="g161"
   transform="translate(-655.57944,66.415094)">
</g>
<g
   id="g163"
   transform="translate(-655.57944,66.415094)">
</g>
<g
   id="g165"
   transform="translate(-655.57944,66.415094)">
</g>
<g
   id="g167"
   transform="translate(-655.57944,66.415094)">
</g>
<g
   id="g169"
   transform="translate(-655.57944,66.415094)">
</g>
<g
   id="g171"
   transform="translate(-655.57944,66.415094)">
</g>
<g
   id="g173"
   transform="translate(-655.57944,66.415094)">
</g>
<g
   id="g175"
   transform="translate(-655.57944,66.415094)">
</g>
<g
   id="g177"
   transform="translate(-655.57944,66.415094)">
</g>
<g
   id="g179"
   transform="translate(-655.57944,66.415094)">
</g>
<rect
   style="fill:#dcdcdc;fill-opacity:1;stroke:none"
   id="rect394"
   width="57.811321"
   height="18.264151"
   x="353.89224"
   y="25.584906"
   rx="6.9402499"
   ry="8.4256296"
   inkscape:export-xdpi="299.642"
   inkscape:export-ydpi="299.642" /><rect
   style="fill:#dcdcdc;fill-opacity:1;stroke:none;stroke-width:1.21232879"
   id="rect472"
   width="18.891758"
   height="18.891758"
   x="325.83157"
   y="25.480112"
   rx="8.4138651"
   ry="11.174943"
   inkscape:export-xdpi="299.642"
   inkscape:export-ydpi="299.642" /><g
   transform="matrix(0.56287415,0,0,0.50789705,140.86232,226.96868)"
   id="g4535"
   inkscape:export-xdpi="299.642"
   inkscape:export-ydpi="299.642"><path
     style="fill:#16202d"
     inkscape:connector-curvature="0"
     d="m 4.391,492.609 c 4.413,4.413 10.89,5.498 16.323,3.262 l 35.827,-14.752 0.884,-41.543 z"
     id="path4515" /><path
     style="fill:#2d3e53"
     inkscape:connector-curvature="0"
     d="M 15.881,440.46 1.129,476.286 c -2.236,5.432 -1.151,11.91 3.262,16.323 l 66.291,-39.775 z"
     id="path4517" /><path
     style="fill:#ffd19c"
     inkscape:connector-curvature="0"
     d="m 131.67,450.183 0.884,-69.827 -88.388,88.388 12.374,12.375 z"
     id="path4519" /><path
     style="fill:#fff0be"
     inkscape:connector-curvature="0"
     d="m 46.817,365.33 -30.936,75.13 28.285,28.284 92.807,-55.684 z"
     id="path4521" /><path
     style="fill:#ff3187"
     inkscape:connector-curvature="0"
     d="M 488.213,51.213 467,30 330.882,176.724 445.787,136.065 488.214,93.639 c 11.715,-11.715 11.715,-30.71 -10e-4,-42.426 z"
     id="path4523" /><path
     style="fill:#ff5178"
     inkscape:connector-curvature="0"
     d="M 467,30 445.787,8.787 c -11.716,-11.716 -30.711,-11.715 -42.426,0 L 360.935,51.214 346.793,192.635 467,72.426 C 478.716,60.711 478.716,41.716 467,30 Z"
     id="path4525" /><path
     style="fill:#dff5ff"
     inkscape:connector-curvature="0"
     d="m 297.294,136.066 116.673,31.82 31.82,-31.82 -21.214,-21.213 z"
     id="path4527" /><path
     style="fill:#ffffff"
     inkscape:connector-curvature="0"
     d="m 424.573,114.853 -63.639,-63.64 -31.82,31.82 21.213,106.066 z"
     id="path4529" /><path
     style="fill:#ffb24a"
     inkscape:connector-curvature="0"
     d="M 110.457,428.97 131.67,450.183 413.967,167.886 392.754,146.673 199.942,236.156 Z"
     id="path4531" /><path
     style="fill:#ffd23b"
     inkscape:connector-curvature="0"
     d="M 20.171,211.001 H 419.4 v 90 H 20.171 Z"
     transform="matrix(0.707,-0.707,0.707,0.707,-116.647,230.393)"
     id="path4533" /></g></svg>