<svg width="38" height="30" viewBox="0 0 38 30" fill="none" xmlns="http://www.w3.org/2000/svg">
<path d="M0.25 5.375C0.25 3.32422 1.89062 1.625 4 1.625H34C36.0508 1.625 37.75 3.32422 37.75 5.375V24.125C37.75 26.2344 36.0508 27.875 34 27.875H4C1.89062 27.875 0.25 26.2344 0.25 24.125V5.375ZM30.25 17.5625H34V5.375H30.25V17.5625ZM27.4375 5.375H23.6875V10.0625H27.4375V5.375ZM20.875 5.375H17.125V17.5625H20.875V5.375ZM14.3125 5.375H10.5625V10.0625H14.3125V5.375ZM7.75 5.375H4V17.5625H7.75V5.375ZM4 20.375V24.125H17.5938V20.375H4ZM20.4062 24.125H34V20.375H20.4062V24.125ZM14.3125 12.875H10.5625V17.5625H14.3125V12.875ZM23.6875 12.875V17.5625H27.4375V12.875H23.6875Z" fill="#081E4A"/>
</svg>
