<svg width="38" height="31" viewBox="0 0 38 31" fill="none" xmlns="http://www.w3.org/2000/svg">
<path d="M19.1758 5.78906L22.1055 7.01953L23.2773 9.94922C23.3945 10.0664 23.5117 10.1836 23.6289 10.1836C23.8047 10.1836 23.9219 10.0664 23.9805 9.94922L25.2109 7.01953L28.1406 5.78906C28.2578 5.73047 28.3164 5.61328 28.3164 5.4375C28.3164 5.32031 28.2578 5.20312 28.1406 5.08594L25.2109 3.91406L23.9805 0.984375C23.9219 0.867188 23.8047 0.75 23.6875 0.75C23.5117 0.75 23.3945 0.867188 23.3359 0.984375L22.1055 3.91406L19.1758 5.14453C19.0586 5.20312 19 5.32031 19 5.49609C19 5.61328 19.0586 5.73047 19.1758 5.78906ZM33.8242 13.6406L31.4805 12.6445L30.4844 10.3594C30.4258 10.2422 30.3672 10.1836 30.25 10.1836C30.1328 10.1836 30.0156 10.2422 29.957 10.3594L28.9609 12.6445L26.6758 13.6406C26.5586 13.6992 26.4414 13.8164 26.4414 13.9336C26.4414 14.0508 26.5586 14.1094 26.6758 14.168L28.9609 15.1641L29.957 17.5078C30.0156 17.5664 30.0742 17.6836 30.1914 17.6836C30.3086 17.6836 30.4258 17.5664 30.4844 17.5078L31.4805 15.1641L33.7656 14.168C33.8828 14.1094 34 13.9922 34 13.875C34 13.7578 33.8828 13.6992 33.8242 13.6406ZM25.3281 16.4531L19.1758 15.5156L16.4219 9.94922C16.1875 9.48047 15.7188 9.1875 15.1914 9.1875C14.7227 9.1875 14.2539 9.48047 14.0195 9.94922L11.2656 15.5156L5.11328 16.4531C4 16.5703 3.58984 17.9766 4.41016 18.7383L8.80469 23.0742L7.80859 29.2266C7.63281 30.0469 8.33594 30.75 9.09766 30.75C9.33203 30.75 9.50781 30.75 9.74219 30.6328L15.25 27.7031L20.6992 30.6328C21.168 30.8672 21.6953 30.8086 22.1055 30.5156C22.5742 30.2227 22.75 29.6953 22.6914 29.2266L21.6367 23.0742L26.0898 18.7383C26.8516 17.9766 26.4414 16.5703 25.3281 16.4531ZM18.5898 22.0781L19.4102 26.7656L15.25 24.5391L11.0312 26.7656L11.8516 22.0781L8.45312 18.7969L13.1406 18.0938L15.25 13.875L17.3008 18.0938L21.9883 18.7969L18.5898 22.0781Z" fill="#081E4A"/>
</svg>
