<?xml version="1.0" encoding="utf-8"?>
<!-- Generator: Adobe Illustrator 23.0.6, SVG Export Plug-In . SVG Version: 6.00 Build 0)  -->
<!DOCTYPE svg PUBLIC "-//W3C//DTD SVG 1.1//EN" "http://www.w3.org/Graphics/SVG/1.1/DTD/svg11.dtd" [
	<!ENTITY ns_extend "http://ns.adobe.com/Extensibility/1.0/">
	<!ENTITY ns_ai "http://ns.adobe.com/AdobeIllustrator/10.0/">
	<!ENTITY ns_graphs "http://ns.adobe.com/Graphs/1.0/">
	<!ENTITY ns_vars "http://ns.adobe.com/Variables/1.0/">
	<!ENTITY ns_imrep "http://ns.adobe.com/ImageReplacement/1.0/">
	<!ENTITY ns_sfw "http://ns.adobe.com/SaveForWeb/1.0/">
	<!ENTITY ns_custom "http://ns.adobe.com/GenericCustomNamespace/1.0/">
	<!ENTITY ns_adobe_xpath "http://ns.adobe.com/XPath/1.0/">
]>
<svg version="1.1" id="Capa_1" xmlns:x="&ns_extend;" xmlns:i="&ns_ai;" xmlns:graph="&ns_graphs;"
	 xmlns="http://www.w3.org/2000/svg" xmlns:xlink="http://www.w3.org/1999/xlink" x="0px" y="0px" viewBox="0 0 512 512"
	 style="enable-background:new 0 0 512 512;" xml:space="preserve">
<style type="text/css">
	.st0{fill:url(#Path_2_);}
	.st1{fill:#D1E7F8;}
	.st2{fill:#B9D8F4;}
	.st3{fill:#FFE477;}
	.st4{fill:#FFDA44;}
	.st5{fill:#FF0C38;}
	.st6{fill:#D80027;}
	.st7{fill:#6DC82A;}
	.st8{fill:#5EAC24;}
	.st9{fill:#57A4FF;}
	.st10{fill:#2488FF;}
	.st11{fill:#DDFFFB;}
	.st12{fill:#AAFFF5;}
	.st13{fill:#E0E0E2;}
	.st14{fill:#C6C5CA;}
</style>
<metadata>
	<sfw  xmlns="&ns_sfw;">
		<slices></slices>
		<sliceSourceBounds  bottomLeftOrigin="true" height="263.9" width="372" x="75" y="124.1"></sliceSourceBounds>
	</sfw>
</metadata>
<radialGradient id="Path_2_" cx="192.4076" cy="319.5359" r="1.7166" gradientTransform="matrix(111.7465 0 0 -89.9818 -21239.8691 29011.4141)" gradientUnits="userSpaceOnUse">
	<stop  offset="0" style="stop-color:#AFEEFF"/>
	<stop  offset="0.1927" style="stop-color:#BBF1FF"/>
	<stop  offset="0.7025" style="stop-color:#D7F8FF"/>
	<stop  offset="1" style="stop-color:#E1FAFF"/>
</radialGradient>
<path id="Path_1_" class="st0" d="M412.1,301.1h13.4c10.1,0,19.5-5.5,21.2-13.5c2.2-10.3-7.6-19.3-20-19.3h-25.6
	c-5.7,0-11-3.1-12-7.7c-1.3-5.8,4.1-10.8,10.9-11.1c0,0,12.1,0,12.1,0c9.6,0,17.4-6.3,17.4-14l0,0c0-7.8-7.8-14-17.4-14h-7.6
	c-10.1,0-19.5-5.5-21.2-13.5c-2.2-10.3,7.6-19.3,20-19.3h10.5c10.1,0,19.5-5.5,21.2-13.5c2.2-10.3-7.6-19.3-20-19.3h-61h-34.9
	L261,174.7L179.6,156v18.7h-77.3c-10.1,0-19.5,5.5-21.2,13.5c-2.2,10.3,7.6,19.3,20,19.3h10.5c11,0,20.9,6.6,21.5,15.5
	c0.6,9.4-8.7,17.3-20.3,17.3h-5c-7.6,0-14.5,4.4-15.3,10.5c-0.9,7,5.9,12.9,14.5,12.9l0,0c5.7,0,11.2,2.6,13.3,6.8
	c4.3,8.5-3.3,16.6-13.3,16.6H93.4c-9.4,0-17.9,5.7-18.4,13.3c-0.5,8.1,7.5,14.8,17.4,14.8h28.4c5.8,0,11.2,3.2,12.1,7.8
	c1.2,5.9-4.4,10.9-11.5,10.9h-4.8c-9.4,0-17.9,5.7-18.4,13.3c-0.5,8.1,7.5,14.8,17.4,14.8h63.9h46.5H354v-4.7h57.3
	c9.2,0,17.5-5.4,18.2-12.8c0.9-8.3-7.3-15.3-17.4-15.3c-6,0-11.8-2-14.7-6.2C389.8,312.1,399.4,301.1,412.1,301.1z"/>
<path class="st1" d="M371.9,387.9H199.6c-5,0-9.1-4.1-9.1-9.1V133.1c0-5,4.1-9.1,9.1-9.1h172.3c5,0,9.1,4.1,9.1,9.1v245.7
	C381,383.9,376.9,387.9,371.9,387.9z"/>
<path class="st2" d="M364,378.9V133.1c0-5-4.1-9.1-9.1-9.1H199.6c-5,0-9.1,4.1-9.1,9.1v245.7c0,5,4.1,9.1,9.1,9.1H355
	C360,387.9,364,383.9,364,378.9z"/>
<path class="st3" d="M371.9,364.9h-45.3V148h45.3c5,0,9.1,4.1,9.1,9.1v198.7C381,360.8,376.9,364.9,371.9,364.9z"/>
<path class="st4" d="M364,364.9V148c0,0,0,0,0,0h-37.4v216.8L364,364.9C364,364.9,364,364.9,364,364.9z"/>
<path class="st5" d="M381,220.3v-63.2c0-5-4.1-9.1-9.1-9.1h-45.3v72.3H381z"/>
<path class="st6" d="M364,148C364,148,364,148,364,148l-37.5,0v72.3H364L364,148L364,148z"/>
<path class="st7" d="M381,292.6v63.2c0,5-4.1,9.1-9.1,9.1h-45.3v-72.3H381z"/>
<path class="st8" d="M364,292.6C364,292.6,364,292.6,364,292.6l-37.5,0v72.3H364L364,292.6L364,292.6z"/>
<path class="st9" d="M337.9,387.9H165.6c-5,0-9.1-4.1-9.1-9.1V133.1c0-5,4.1-9.1,9.1-9.1h172.3c5,0,9.1,4.1,9.1,9.1v245.7
	C347,383.9,342.9,387.9,337.9,387.9z"/>
<path class="st10" d="M221.8,370.9V141.1c0-9.4,7.6-17,17-17h-73.2c-5,0-9.1,4.1-9.1,9.1v245.7c0,5,4.1,9.1,9.1,9.1h73.2
	C229.4,387.9,221.8,380.3,221.8,370.9z"/>
<path class="st11" d="M295.6,241.4h-87.6c-5.9,0-10.6-4.8-10.6-10.6v-41.7c0-5.9,4.8-10.6,10.6-10.6h87.6c5.9,0,10.6,4.8,10.6,10.6
	v41.7C306.2,236.6,301.4,241.4,295.6,241.4z"/>
<path class="st12" d="M207.9,178.5c-5.9,0-10.6,4.8-10.6,10.6v41.7c0,5.9,4.8,10.6,10.6,10.6h13.8v-62.9H207.9z"/>
<path class="st13" d="M171.8,180.7h-30.6c-5.6,0-10.2-4.6-10.2-10.2l0,0c0-5.6,4.6-10.2,10.2-10.2h30.6c5.6,0,10.2,4.6,10.2,10.2
	l0,0C182,176.2,177.4,180.7,171.8,180.7z"/>
<path class="st14" d="M149.8,170.5L149.8,170.5c0-5.6,4.6-10.2,10.2-10.2h-18.8c-5.6,0-10.2,4.6-10.2,10.2l0,0
	c0,5.6,4.6,10.2,10.2,10.2H160C154.4,180.7,149.8,176.2,149.8,170.5z"/>
<g>
	<path class="st13" d="M171.8,237.7h-30.6c-5.6,0-10.2-4.6-10.2-10.2l0,0c0-5.6,4.6-10.2,10.2-10.2h30.6c5.6,0,10.2,4.6,10.2,10.2
		l0,0C182,233.1,177.4,237.7,171.8,237.7z"/>
	<path class="st13" d="M171.8,294.7h-30.6c-5.6,0-10.2-4.6-10.2-10.2l0,0c0-5.6,4.6-10.2,10.2-10.2h30.6c5.6,0,10.2,4.6,10.2,10.2
		l0,0C182,290.1,177.4,294.7,171.8,294.7z"/>
	<path class="st13" d="M171.8,351.7h-30.6c-5.6,0-10.2-4.6-10.2-10.2l0,0c0-5.6,4.6-10.2,10.2-10.2h30.6c5.6,0,10.2,4.6,10.2,10.2
		l0,0C182,347.1,177.4,351.7,171.8,351.7z"/>
</g>
<g>
	<path class="st14" d="M149.8,227.5L149.8,227.5c0-5.6,4.6-10.2,10.2-10.2h-18.8c-5.6,0-10.2,4.6-10.2,10.2l0,0
		c0,5.6,4.6,10.2,10.2,10.2H160C154.4,237.7,149.8,233.1,149.8,227.5z"/>
	<path class="st14" d="M149.8,284.5L149.8,284.5c0-5.6,4.6-10.2,10.2-10.2h-18.8c-5.6,0-10.2,4.6-10.2,10.2l0,0
		c0,5.6,4.6,10.2,10.2,10.2H160C154.4,294.7,149.8,290.1,149.8,284.5z"/>
	<path class="st14" d="M149.8,341.5L149.8,341.5c0-5.6,4.6-10.2,10.2-10.2h-18.8c-5.6,0-10.2,4.6-10.2,10.2l0,0
		c0,5.6,4.6,10.2,10.2,10.2H160C154.4,351.7,149.8,347.1,149.8,341.5z"/>
</g>
</svg>
