<?xml version="1.0" encoding="UTF-8"?>
<svg width="38px" height="38px" viewBox="0 0 38 38" version="1.1" xmlns="http://www.w3.org/2000/svg"
>
    <!-- Generator: Sketch 55.2 (78181) - https://sketchapp.com -->
    <title>Group</title>
    <desc>Created with Sketch.</desc>
    <g id="Design" stroke="none" stroke-width="1" fill="none" fill-rule="evenodd">
        <g id="[desktop]One-page-plan---empty" transform="translate(-320.000000, -327.000000)" fill="#3E474F">
            <g id="content" transform="translate(310.000000, 274.000000)">
                <g id="tasks" transform="translate(0.000000, 43.000000)">
                    <g id="Group" transform="translate(10.000000, 10.000000)">
                        <path d="M14.6581069,10 C13.8614403,10 13.1344036,10.4791595 12.8202163,11.2109375 L10.3397476,17 L9.00185695,17 C8.68885695,17 8.39498195,17.1455313 8.20498195,17.3945312 C8.01698195,17.6425313 7.9530601,17.964625 8.03506005,18.265625 L10.5956069,27.53125 C10.8346069,28.39525 11.6273413,29 12.5233413,29 L25.4764658,29 C26.3724658,29 27.1642478,28.396203 27.4022478,27.533203 L29.9627948,18.267578 C30.0457948,17.9665781 29.9828258,17.6425312 29.7948258,17.3945312 C29.6048258,17.1455313 29.3099508,17 28.9979508,17 L27.6600598,17 L25.1776378,11.2128906 L25.1795918,11.2128906 C24.8658978,10.4777169 24.1364138,10 23.3397478,10 L14.6581069,10 Z M14.6581069,12 L23.3397478,12 L25.4823258,17 L12.5174819,17 L14.6581069,12 Z M10.3143569,19 L27.6854508,19 L25.4745128,27 L12.5233413,27 L10.3143569,19 Z M14.9999038,21 C14.4479038,21 13.9999038,21.448 13.9999038,22 L13.9999038,24 C13.9999038,24.552 14.4479038,25 14.9999038,25 C15.5519038,25 15.9999038,24.552 15.9999038,24 L15.9999038,22 C15.9999038,21.448 15.5519038,21 14.9999038,21 Z M18.9999038,21 C18.4479038,21 17.9999038,21.448 17.9999038,22 L17.9999038,24 C17.9999038,24.552 18.4479038,25 18.9999038,25 C19.5519038,25 19.9999038,24.552 19.9999038,24 L19.9999038,22 C19.9999038,21.448 19.5519038,21 18.9999038,21 Z M22.9999038,21 C22.4479038,21 21.9999038,21.448 21.9999038,22 L21.9999038,24 C21.9999038,24.552 22.4479038,25 22.9999038,25 C23.5519038,25 23.9999038,24.552 23.9999038,24 L23.9999038,22 C23.9999038,21.448 23.5519038,21 22.9999038,21 Z"
                              id="Shape" fill-rule="nonzero" opacity="0.5"></path>
                        <rect id="Rectangle" opacity="0.05" x="0" y="0" width="38" height="38" rx="4"></rect>
                    </g>
                </g>
            </g>
        </g>
    </g>
</svg>
