<?xml version="1.0" encoding="UTF-8"?>
<svg width="347px" height="200px" viewBox="0 0 347 200" version="1.1" xmlns="http://www.w3.org/2000/svg"
     xmlns:xlink="http://www.w3.org/1999/xlink">
    <!-- Generator: Sketch 55 (78076) - https://sketchapp.com -->
    <title>Group 4</title>
    <desc>Created with Sketch.</desc>
    <defs>
        <linearGradient x1="6.40624061%" y1="50%" x2="100%" y2="50%" id="linearGradient-1">
            <stop stop-color="#EBF3F8" offset="0%"></stop>
            <stop stop-color="#E2E7EA" offset="100%"></stop>
        </linearGradient>
        <linearGradient x1="6.40624061%" y1="50%" x2="100%" y2="50%" id="linearGradient-2">
            <stop stop-color="#EBF3F8" offset="0%"></stop>
            <stop stop-color="#E2E7EA" offset="100%"></stop>
        </linearGradient>
        <path d="M0,0 L72.6886759,18.481284 C74.993702,19.0673429 76.6073298,21.142579 76.6073298,23.520942 L76.6073298,154.327368 C76.6073298,157.199249 74.2792105,159.527368 71.4073298,159.527368 C70.9752114,159.527368 70.5447779,159.473506 70.1259838,159.367026 L0,141.537313 L0,0 Z"
              id="path-3"></path>
        <linearGradient x1="50.0004752%" y1="100%" x2="50.0004752%" y2="-98.3776%" id="linearGradient-5">
            <stop stop-color="#FF9757" offset="0%"></stop>
            <stop stop-color="#FFB65B" offset="100%"></stop>
        </linearGradient>
        <linearGradient x1="50%" y1="179.357131%" x2="50%" y2="3.51019747%" id="linearGradient-6">
            <stop stop-color="#FEAA53" offset="0%"></stop>
            <stop stop-color="#FFCD49" offset="61.24%"></stop>
            <stop stop-color="#FFDE44" offset="100%"></stop>
        </linearGradient>
        <linearGradient x1="50%" y1="101.871837%" x2="50%" y2="1.87183673%" id="linearGradient-7">
            <stop stop-color="#FF8B67" offset="1.082549e-05%"></stop>
            <stop stop-color="#FFA76A" offset="84.7%"></stop>
            <stop stop-color="#FFAD6B" offset="100%"></stop>
            <stop stop-color="#FFAD6B" offset="100%"></stop>
        </linearGradient>
        <linearGradient x1="50%" y1="-16.1496774%" x2="50%" y2="83.8503226%" id="linearGradient-8">
            <stop stop-color="#42D778" offset="0%"></stop>
            <stop stop-color="#3DCA76" offset="42.84%"></stop>
            <stop stop-color="#34B171" offset="100%"></stop>
        </linearGradient>
        <path d="M10.6320097,34.3614914 L5.7488261,34.3614914 C4.94800216,34.3614914 4.2988061,33.7122953 4.2988061,32.9114714 C4.2988061,32.6259477 4.38310145,32.3467786 4.54112224,32.1089694 L12.0988062,20.7352353 L8.9739282,20.7352353 C8.17310427,20.7352353 7.5239082,20.0860392 7.5239082,19.2852153 C7.5239082,18.9948343 7.6110933,18.711142 7.77417231,18.4708789 L19.8689467,0.651736323 C20.3186922,-0.0108705586 21.2204321,-0.183428732 21.883039,0.266316854 C22.0132083,0.354669483 22.1281317,0.463616737 22.2233033,0.588886846 L35.7610569,18.4080294 C36.2455133,19.0456978 36.1213105,19.9553596 35.4836421,20.439816 C35.2313717,20.6314736 34.9232731,20.7352353 34.6064562,20.7352353 L30.5872869,20.7352353 L38.9998959,32.0461107 C39.4778214,32.6886885 39.3443444,33.5970359 38.7017666,34.0749614 C38.4516154,34.2610145 38.1481613,34.3614914 37.8364059,34.3614914 L31.7104077,34.3614914 L43.3323657,49.87887 C43.812435,50.5198478 43.6819929,51.428636 43.0410151,51.9087052 C42.7901608,52.0965861 42.4851849,52.1981323 42.1717728,52.1981323 L1.41188244,52.1981323 C0.611058508,52.1981323 -0.038137559,51.5489363 -0.038137559,50.7481123 C-0.038137559,50.4609999 0.0470976681,50.18035 0.206766127,49.9417299 L10.6320097,34.3614914 Z"
              id="path-9"></path>
        <linearGradient x1="50%" y1="-16.1496774%" x2="50%" y2="83.8503226%" id="linearGradient-11">
            <stop stop-color="#13893E" offset="0%"></stop>
            <stop stop-color="#35B469" offset="42.84%"></stop>
            <stop stop-color="#1D9D5C" offset="100%"></stop>
        </linearGradient>
        <path d="M6.48134608,1.64789902 L76.6073298,19.4776119 L76.6073298,161.014925 L3.91865392,142.533641 C1.61362781,141.947582 2.45120488e-14,139.872346 1.15463195e-14,137.493983 L-8.8817842e-16,6.68755697 C-1.23988237e-15,3.81567627 2.3281193,1.48755697 5.2,1.48755697 C5.63211847,1.48755697 6.06255199,1.54141954 6.48134608,1.64789902 Z"
              id="path-12"></path>
        <linearGradient x1="50%" y1="115.1338%" x2="50%" y2="15.1338%" id="linearGradient-14">
            <stop stop-color="#3CB5EA" offset="0%"></stop>
            <stop stop-color="#7DDEFB" offset="100%"></stop>
        </linearGradient>
        <path d="M5.62002663,37.500887 L42.9060183,37.500887 C44.5946841,37.500887 45.9636183,36.1319528 45.9636183,34.443287 C45.9636183,33.8539442 45.7932987,33.277159 45.4731585,32.7823508 L26.8301626,3.96776759 C25.9128529,2.54997522 24.0198786,2.14425386 22.6020863,3.06156358 C22.2393945,3.29622465 21.9305433,3.60507584 21.6958823,3.96776759 L3.05288644,32.7823508 C2.13557671,34.2001432 2.54129807,36.0931175 3.95909045,37.0104272 C4.45389867,37.3305674 5.03068382,37.500887 5.62002663,37.500887 Z"
              id="path-15"></path>
        <linearGradient x1="50%" y1="100%" x2="50%" y2="0%" id="linearGradient-17">
            <stop stop-color="#2D8FE8" offset="0%"></stop>
            <stop stop-color="#3BB5F1" offset="100%"></stop>
        </linearGradient>
        <linearGradient x1="50%" y1="1.910625%" x2="50%" y2="132.9525%" id="linearGradient-18">
            <stop stop-color="#ADADAD" offset="0%"></stop>
            <stop stop-color="#969696" offset="41.2%"></stop>
            <stop stop-color="#6F6F6F" offset="100%"></stop>
        </linearGradient>
        <linearGradient x1="50%" y1="101.871837%" x2="50%" y2="1.87183673%" id="linearGradient-19">
            <stop stop-color="#FF8B67" offset="1.082549e-05%"></stop>
            <stop stop-color="#FFA76A" offset="84.7%"></stop>
            <stop stop-color="#FFAD6B" offset="100%"></stop>
            <stop stop-color="#FFAD6B" offset="100%"></stop>
        </linearGradient>
        <linearGradient x1="50%" y1="100%" x2="50%" y2="0%" id="linearGradient-20">
            <stop stop-color="#2D8FE8" offset="0%"></stop>
            <stop stop-color="#3BB5F1" offset="100%"></stop>
        </linearGradient>
        <linearGradient x1="50%" y1="126.527059%" x2="50%" y2="2.69294118%" id="linearGradient-21">
            <stop stop-color="#0D47A1" offset="0%"></stop>
            <stop stop-color="#135FBA" offset="36.51%"></stop>
            <stop stop-color="#1770CC" offset="73.44%"></stop>
            <stop stop-color="#1976D2" offset="100%"></stop>
        </linearGradient>
        <linearGradient x1="50%" y1="100%" x2="50%" y2="0%" id="linearGradient-22">
            <stop stop-color="#FFCE76" offset="0%"></stop>
            <stop stop-color="#FFCE76" offset="0.36%"></stop>
            <stop stop-color="#FFCD92" offset="60.54%"></stop>
            <stop stop-color="#FFCCA0" offset="100%"></stop>
            <stop stop-color="#FFCCA0" offset="100%"></stop>
        </linearGradient>
        <linearGradient x1="50%" y1="100%" x2="50%" y2="0%" id="linearGradient-23">
            <stop stop-color="#FF9757" offset="0%"></stop>
            <stop stop-color="#FFB65B" offset="100%"></stop>
            <stop stop-color="#FFB65B" offset="100%"></stop>
        </linearGradient>
        <linearGradient x1="50.0009435%" y1="47.9665385%" x2="50.0009435%" y2="-52.0334615%" id="linearGradient-24">
            <stop stop-color="#FF9757" offset="0%"></stop>
            <stop stop-color="#FFB65B" offset="100%"></stop>
            <stop stop-color="#FFB65B" offset="100%"></stop>
        </linearGradient>
        <linearGradient x1="50%" y1="101.871837%" x2="50%" y2="1.87183673%" id="linearGradient-25">
            <stop stop-color="#FF8B67" offset="1.082549e-05%"></stop>
            <stop stop-color="#FFA76A" offset="84.7%"></stop>
            <stop stop-color="#FFAD6B" offset="100%"></stop>
            <stop stop-color="#FFAD6B" offset="100%"></stop>
        </linearGradient>
        <linearGradient x1="50%" y1="179.357131%" x2="50%" y2="3.51019747%" id="linearGradient-26">
            <stop stop-color="#FEAA53" offset="0%"></stop>
            <stop stop-color="#FFCD49" offset="61.24%"></stop>
            <stop stop-color="#FFDE44" offset="100%"></stop>
        </linearGradient>
        <linearGradient x1="50.0004752%" y1="100%" x2="50.0004752%" y2="-98.3776%" id="linearGradient-27">
            <stop stop-color="#FF9757" offset="0%"></stop>
            <stop stop-color="#FFB65B" offset="100%"></stop>
        </linearGradient>
    </defs>
    <g id="Design" stroke="none" stroke-width="1" fill="none" fill-rule="evenodd">
        <g id="Idea-Home" transform="translate(-1146.000000, -223.000000)">
            <g id="content" transform="translate(310.000000, 104.000000)">
                <g id="Card-Copy-6" transform="translate(813.000000, 94.000000)">
                    <g id="Card-Copy-3">
                        <g id="Group-4" transform="translate(23.000000, 25.000000)">
                            <path d="M4,0 L343,0 C345.209139,-4.05812251e-16 347,1.790861 347,4 L347,196 C347,198.209139 345.209139,200 343,200 L4,200 C1.790861,200 2.705415e-16,198.209139 0,196 L-8.8817842e-16,4 C-1.15871992e-15,1.790861 1.790861,4.05812251e-16 4,0 Z"
                                  id="Mask" fill="#FFFFFF" opacity="0.1"></path>
                            <g id="Group-68" transform="translate(36.000000, 8.000000)">
                                <polygon id="Rectangle" fill="url(#linearGradient-1)" fill-rule="nonzero"
                                         points="94.7853403 30.9701493 171.39267 17.9850746 171.39267 159.522388 94.7853403 172.507463"></polygon>
                                <g id="Path" transform="translate(171.392670, 17.985075)">
                                    <mask id="mask-4" fill="white">
                                        <use xlink:href="#path-3"></use>
                                    </mask>
                                    <use id="Mask" fill="url(#linearGradient-2)" fill-rule="nonzero"
                                         xlink:href="#path-3"></use>
                                    <path d="M238.071835,119.298928 L246.758496,119.298973 C253.29802,119.299007 259.392244,114.894504 260.509174,108.446361 C261.954392,100.101927 255.573319,92.8566976 247.505516,92.8566554 L230.89822,92.8565686 C227.188842,92.8565492 223.747372,90.3407332 223.098306,86.6841345 C222.271879,82.0151717 225.732183,77.9468497 230.192492,77.7542218 C230.215133,77.7542219 238.071618,77.746708 238.071618,77.746708 C244.324353,77.7467407 249.392175,72.6736189 249.392142,66.4143436 L249.392142,66.4143436 C249.392109,60.1550683 244.324235,55.0818935 238.071499,55.0818608 L233.158366,55.0818352 C226.618842,55.081801 220.524572,50.6772338 219.407574,44.229079 C217.962269,35.8846302 224.343267,28.6394674 232.411069,28.6395096 L239.210967,28.6395451 C245.75049,28.6395793 251.844715,24.2350758 252.961645,17.7869326 C254.406863,9.44249894 248.025789,2.19726945 239.957987,2.19722729 L200.335945,2.19702025 L177.694778,2.19690195 L139.959579,17.3066029 L87.1301107,2.19642872 L87.1301896,17.3063268 L36.9347227,17.3060645 C30.395199,17.3060304 24.3009746,21.7105338 23.1840441,28.158677 C21.7388265,36.5031107 28.1198999,43.7483402 36.1877024,43.7483823 L42.9875995,43.7484179 C50.1384347,43.7484552 56.5496864,49.1087251 56.923303,56.2594863 C57.3233368,63.882432 51.2630841,70.1907828 43.7348961,70.1907435 L40.5009828,70.1907266 C35.5652084,70.1907008 31.0709554,73.7452808 30.5766489,78.6597726 C30.0106493,84.3108715 34.4294752,89.0780675 39.961467,89.0780964 L39.961467,89.0780964 C43.6632978,89.0781157 47.2028778,91.1633002 48.6028745,94.5932544 C51.3877738,101.434275 46.4369394,107.965503 39.9615657,107.965469 L31.1692459,107.965423 C25.0372632,107.965391 19.5430307,112.558771 19.2223129,118.689611 C18.8827295,125.22464 24.0751321,130.630233 30.5278646,130.630267 L48.9917362,130.630363 C52.7501699,130.630383 56.236923,133.202861 56.8407069,136.916122 C57.6067577,141.649302 53.9804189,145.740288 49.3955826,145.740264 L46.2635545,145.740247 C40.1315718,145.740215 34.6373393,150.333596 34.3166215,156.464435 C33.9770382,162.999464 39.1694407,168.405057 45.6221732,168.405091 L87.1309791,168.405308 L117.319202,168.405466 L200.336813,168.405899 L200.336794,164.628425 L237.51359,164.628619 C243.483311,164.62865 248.845471,160.239253 249.351092,154.285956 C249.92086,147.565832 244.626571,141.933589 238.022897,141.963775 C234.143711,141.978864 230.351307,140.324311 228.468299,136.932129 C223.604176,128.175917 229.800262,119.298885 238.071835,119.298928 Z"
                                          fill-opacity="0.0603420017" fill="#292727" fill-rule="nonzero"
                                          opacity="0.412308" mask="url(#mask-4)"
                                          transform="translate(139.960500, 85.301164) rotate(5.000000) translate(-139.960500, -85.301164) "></path>
                                </g>
                                <path d="M196.4726,126.485075 L234.605934,126.485075 C236.2266,126.485075 237.539267,127.549399 237.539267,128.863453 L237.539267,168.106696 C237.539267,169.42075 236.2266,170.485075 234.605934,170.485075 L196.4726,170.485075 C194.851934,170.485075 193.539267,169.42075 193.539267,168.106696 L193.539267,128.863453 C193.539267,127.549399 194.851934,126.485075 196.4726,126.485075 Z"
                                      id="Path" fill="url(#linearGradient-5)" fill-rule="nonzero"></path>
                                <path d="M229.746272,145.14707 C229.54472,144.511871 228.97498,144.069156 228.31478,144.035471 L219.986098,143.612005 L217.023131,135.874123 C216.785078,135.256568 216.19788,134.850746 215.542441,134.850746 C214.887002,134.850746 214.299804,135.258172 214.061751,135.875727 L211.100372,143.613609 L202.763755,144.037076 C202.103554,144.07076 201.533814,144.515079 201.332262,145.150278 C201.130711,145.785478 201.340197,146.48163 201.857566,146.895472 L208.332608,152.082933 L206.07904,160.074254 C205.899706,160.714265 206.128237,161.400794 206.655128,161.798595 C207.182019,162.199605 207.894591,162.22527 208.453222,161.870777 L215.542441,157.342576 L222.625312,161.869173 C222.883996,162.035993 223.177595,162.119403 223.472781,162.119403 C223.807642,162.119403 224.142503,162.013536 224.423406,161.800199 C224.950297,161.402398 225.180415,160.715869 224.999494,160.077462 L222.752274,152.084537 L229.220968,146.897076 C229.738337,146.480026 229.947823,145.783874 229.746272,145.14707 Z"
                                      id="Path" fill="url(#linearGradient-6)" fill-rule="nonzero"></path>
                                <g id="Group-66" transform="translate(144.125654, 29.671642)">
                                    <rect id="Rectangle" fill="url(#linearGradient-7)" fill-rule="nonzero" x="36.691415"
                                          y="34.1868952" width="5.79655946" height="29.727735"></rect>
                                    <rect id="Rectangle-Copy-99" fill="url(#linearGradient-7)" fill-rule="nonzero"
                                          x="19.2735602" y="34.1868952" width="5.79655946" height="29.727735"></rect>
                                    <g id="Combined-Shape-Copy-6" transform="translate(19.301737, 0.000000)">
                                        <mask id="mask-10" fill="white">
                                            <use xlink:href="#path-9"></use>
                                        </mask>
                                        <use id="Mask" fill="url(#linearGradient-8)" fill-rule="nonzero"
                                             xlink:href="#path-9"></use>
                                        <path d="M-2.41024913,34.3614914 L-7.29343269,34.3614914 C-8.09425662,34.3614914 -8.74345269,33.7122953 -8.74345269,32.9114714 C-8.74345269,32.6259477 -8.65915734,32.3467786 -8.50113654,32.1089694 L-0.943452632,20.7352353 L-4.06833058,20.7352353 C-4.86915452,20.7352353 -5.51835058,20.0860392 -5.51835058,19.2852153 C-5.51835058,18.9948343 -5.43116549,18.711142 -5.26808647,18.4708789 L6.82668787,0.651736323 C7.27643346,-0.0108705586 8.1781733,-0.183428732 8.84078018,0.266316854 C8.97094947,0.354669483 9.08587294,0.463616737 9.18104452,0.588886846 L22.7187981,18.4080294 C23.2032545,19.0456978 23.0790517,19.9553596 22.4413833,20.439816 C22.1891129,20.6314736 21.8810143,20.7352353 21.5641974,20.7352353 L17.5450281,20.7352353 L25.9576371,32.0461107 C26.4355626,32.6886885 26.3020856,33.5970359 25.6595078,34.0749614 C25.4093566,34.2610145 25.1059025,34.3614914 24.7941472,34.3614914 L18.6681489,34.3614914 L30.2901069,49.87887 C30.7701762,50.5198478 30.6397341,51.428636 29.9987563,51.9087052 C29.747902,52.0965861 29.4429261,52.1981323 29.129514,52.1981323 L-11.6303763,52.1981323 C-12.4312003,52.1981323 -13.0803963,51.5489363 -13.0803963,50.7481123 C-13.0803963,50.4609999 -12.9951611,50.18035 -12.8354927,49.9417299 L-2.41024913,34.3614914 Z"
                                              fill="url(#linearGradient-11)" fill-rule="nonzero"
                                              mask="url(#mask-10)"></path>
                                    </g>
                                    <path d="M10.6320097,34.3614914 L5.7488261,34.3614914 C4.94800216,34.3614914 4.2988061,33.7122953 4.2988061,32.9114714 C4.2988061,32.6259477 4.38310145,32.3467786 4.54112224,32.1089694 L12.0988062,20.7352353 L8.9739282,20.7352353 C8.17310427,20.7352353 7.5239082,20.0860392 7.5239082,19.2852153 C7.5239082,18.9948343 7.6110933,18.711142 7.77417231,18.4708789 L19.8689467,0.651736323 C20.3186922,-0.0108705586 21.2204321,-0.183428732 21.883039,0.266316854 C22.0132083,0.354669483 22.1281317,0.463616737 22.2233033,0.588886846 L35.7610569,18.4080294 C36.2455133,19.0456978 36.1213105,19.9553596 35.4836421,20.439816 C35.2313717,20.6314736 34.9232731,20.7352353 34.6064562,20.7352353 L30.5872869,20.7352353 L38.9998959,32.0461107 C39.4778214,32.6886885 39.3443444,33.5970359 38.7017666,34.0749614 C38.4516154,34.2610145 38.1481613,34.3614914 37.8364059,34.3614914 L31.7104077,34.3614914 L43.3323657,49.87887 C43.812435,50.5198478 43.6819929,51.428636 43.0410151,51.9087052 C42.7901608,52.0965861 42.4851849,52.1981323 42.1717728,52.1981323 L1.41188244,52.1981323 C0.611058508,52.1981323 -0.038137559,51.5489363 -0.038137559,50.7481123 C-0.038137559,50.4609999 0.0470976681,50.18035 0.206766127,49.9417299 L10.6320097,34.3614914 Z"
                                          id="Combined-Shape" fill="url(#linearGradient-8)" fill-rule="nonzero"></path>
                                </g>
                                <g id="Path-Copy-3" transform="translate(18.178010, 11.492537)">
                                    <mask id="mask-13" fill="white">
                                        <use xlink:href="#path-12"></use>
                                    </mask>
                                    <use id="Mask" fill="url(#linearGradient-2)" fill-rule="nonzero"
                                         xlink:href="#path-12"></use>
                                    <path d="M241.591556,154.198136 L250.278232,154.198038 C256.817767,154.197964 262.912075,149.793368 264.029114,143.345218 C265.474471,135.000775 259.093507,127.755663 251.02569,127.755754 L234.418365,127.755941 C230.708981,127.755983 227.267546,125.240228 226.618539,121.583646 C225.792188,116.914705 229.252565,112.846333 233.712885,112.653632 C233.735526,112.653632 241.592025,112.645988 241.592025,112.645988 C247.844771,112.645918 252.912685,107.572721 252.912755,101.313457 L252.912755,101.313457 C252.912826,95.0541924 247.845026,89.98111 241.59228,89.9811805 L236.679138,89.9812359 C230.139603,89.9813096 224.045395,85.5768506 222.928501,79.1287254 C221.483332,70.7843149 227.86446,63.5390594 235.932277,63.5389684 L242.732185,63.5388918 C249.27172,63.5388181 255.366028,59.1342217 256.483067,52.6860713 C257.928425,44.3416282 251.54746,37.0965166 243.479643,37.0966075 L203.857533,37.0970541 L181.216327,37.0973094 L143.480813,52.2076067 L90.6515021,37.0983303 L90.6513318,52.2082022 L40.4557778,52.208768 C33.9162428,52.2088417 27.8219352,56.6134381 26.7048963,63.0615885 C25.2595386,71.4060316 31.6405035,78.6511432 39.70832,78.6510523 L46.5082289,78.6509756 C53.6590765,78.650895 60.0702509,84.0110498 60.4437502,91.1617925 C60.8436589,98.7847183 54.7832916,105.093158 47.2550906,105.093243 L44.0211717,105.093279 C39.0853887,105.093335 34.5910693,108.647983 34.0966809,113.562475 C33.530587,119.213573 37.949342,123.980688 43.4813434,123.980625 L43.4813434,123.980625 C47.1831806,123.980584 50.7227323,126.065706 52.1226749,129.495631 C54.9074661,136.336594 49.9565154,142.867892 43.4811305,142.867965 L34.6887954,142.868064 C28.5568021,142.868134 23.0624843,147.461597 22.7416648,153.592431 C22.4019731,160.127454 27.5942954,165.532952 34.0470391,165.53288 L52.5109427,165.532671 C56.2693829,165.532629 59.7560997,168.105045 60.3598233,171.81829 C61.1257974,176.551448 57.4993848,180.642487 52.9145406,180.642539 L49.7825071,180.642574 C43.6505137,180.642643 38.1561959,185.236106 37.8353764,191.36694 C37.4956847,197.901964 42.688007,203.307462 49.1407507,203.307389 L90.6496286,203.306921 L120.837903,203.306581 L203.855659,203.305645 L203.855702,199.528177 L241.032562,199.527758 C247.002293,199.527691 252.364535,195.138213 252.870256,189.184917 C253.440135,182.464795 248.14593,176.83265 241.542245,176.862945 C237.663051,176.878098 233.870668,175.22361 231.987712,171.831465 C227.123725,163.075349 233.319969,154.198229 241.591556,154.198136 Z"
                                          fill-opacity="0.0603420017" fill="#292727" fill-rule="nonzero"
                                          opacity="0.412308" mask="url(#mask-13)"
                                          transform="translate(143.480161, 120.201998) scale(1, -1) rotate(-11.000000) translate(-143.480161, -120.201998) "></path>
                                </g>
                                <g id="Group-2" transform="translate(0.000000, 66.029851)">
                                    <g id="Path-5" transform="translate(0.000000, 35.827561)">
                                        <mask id="mask-16" fill="white">
                                            <use xlink:href="#path-15"></use>
                                        </mask>
                                        <use id="Mask" fill="url(#linearGradient-14)" fill-rule="nonzero"
                                             xlink:href="#path-15"></use>
                                        <polygon fill="url(#linearGradient-17)" fill-rule="nonzero"
                                                 opacity="0.343215216" mask="url(#mask-16)"
                                                 points="36.0722842 16.8274598 33.813505 8.71019082 15.8178651 39.9787125 27.6169488 40.7573486"></polygon>
                                    </g>
                                    <path d="M58.5393558,19.9034433 L58.5393558,1.5152998 C58.5393558,0.678422828 57.8496462,0 56.9988464,0 C56.1480466,0 55.458337,0.678422828 55.458337,1.5152998 L55.458337,19.9034433 C55.458337,20.7403203 56.1480466,21.4187431 56.9988464,21.4187431 C57.8496462,21.4187431 58.5393558,20.7403203 58.5393558,19.9034433 Z"
                                          id="Path-2" fill="url(#linearGradient-18)" fill-rule="nonzero"></path>
                                    <path d="M58.5393558,1.5152998 L75.5848346,1.5152998 C76.0070011,1.5152998 76.3492346,1.85753334 76.3492346,2.2796998 C76.3492346,2.42176966 76.3096418,2.56102842 76.2348993,2.68184815 L74.7489172,5.08390813 L76.2399189,7.50758479 C76.4611223,7.86715892 76.3489507,8.33797217 75.9893766,8.55917562 C75.8689229,8.63327653 75.7302738,8.67250906 75.5888523,8.67250906 L58.5393558,8.67250906 L58.5393558,1.5152998 Z"
                                          id="Path-19" fill="url(#linearGradient-19)" fill-rule="nonzero"></path>
                                    <path d="M23.8778951,73.3284481 L84.8337258,73.3284481 C86.5223917,73.3284481 87.8913258,71.9595139 87.8913258,70.2708481 C87.8913258,69.735799 87.7509238,69.2101166 87.4841468,68.7463198 L59.6492673,20.354862 C58.8072936,18.891075 56.9381051,18.3869957 55.4743181,19.2289694 C55.0061732,19.4982474 54.6177035,19.8867172 54.3484254,20.354862 L23.8778951,73.3284481 Z"
                                          id="Path-2-Copy" fill="url(#linearGradient-20)" fill-rule="nonzero"></path>
                                    <path d="M79.2287941,42.6752343 L76.956559,42.6752343 C76.1057592,42.6752343 75.4160497,41.9968115 75.4160497,41.1599345 C75.4160497,40.3230575 76.1057592,39.6446347 76.956559,39.6446347 L83.4144721,39.6446347 C84.3600913,39.6446347 85.0824991,40.4748758 84.9365127,41.3938692 L84.0293168,47.1047231 C83.8979688,47.931567 83.1100494,48.4971202 82.2694496,48.3679216 C81.4288498,48.2387231 80.8538876,47.4636975 80.9852356,46.6368536 L81.2512834,44.9620664 L59.0935834,63.2697064 C58.4287509,63.8190194 57.4339846,63.7196469 56.8949978,63.0500779 L50.1940093,54.7256167 L28.4977688,73.3284481 L23.8778951,73.3284481 L49.389115,51.3975057 C50.0521026,50.830196 51.0624545,50.9224508 51.607951,51.6001066 L58.3261236,59.9459151 L79.2287941,42.6752343 Z"
                                          id="Combined-Shape" fill="url(#linearGradient-21)" fill-rule="nonzero"></path>
                                </g>
                                <g id="icons8-cheap-2" transform="translate(60.000000, -0.000000)" fill-rule="nonzero">
                                    <path d="M35.0575916,17.5298507 C35.0575916,27.2098343 27.2081969,35.0597015 17.5287958,35.0597015 C7.84939476,35.0597015 0,27.2098343 0,17.5298507 C0,7.84986716 7.84939476,0 17.5287958,0 C27.2081969,0 35.0575916,7.84986716 35.0575916,17.5298507 Z"
                                          id="Path" fill="url(#linearGradient-22)"></path>
                                    <path d="M17.5287958,0 C7.8634178,0 0,7.86389104 0,17.5298507 C0,27.1958104 7.8634178,35.0597015 17.5287958,35.0597015 C27.1941738,35.0597015 35.0575916,27.1958104 35.0575916,17.5298507 C35.0575916,7.86389104 27.1941738,0 17.5287958,0 Z M28.8657198,26.9139304 C28.6343397,26.7470463 28.3531778,26.6453731 28.0460733,26.6453731 C27.2713005,26.6453731 26.6437696,27.2729418 26.6437696,28.0477612 C26.6437696,28.3548842 26.7454366,28.636063 26.9123108,28.867457 C26.1634806,29.4880137 25.352248,30.0356463 24.4898312,30.4998367 C24.3327732,29.897511 23.7900817,29.4501493 23.1380105,29.4501493 C22.3632377,29.4501493 21.7357068,30.0777179 21.7357068,30.8525373 C21.7357068,31.118991 21.8142358,31.3651101 21.9425466,31.5768707 C20.9756582,31.881189 19.9645973,32.0859376 18.9233868,32.1841048 C18.8862258,31.4429427 18.2790283,30.8525373 17.5287958,30.8525373 C16.7785634,30.8525373 16.1713659,31.4429427 16.1335037,32.1841048 C15.0922932,32.0859376 14.0819334,31.881189 13.1143439,31.5768707 C13.2433558,31.3651101 13.3218848,31.118991 13.3218848,30.8525373 C13.3218848,30.0777179 12.6943539,29.4501493 11.9195812,29.4501493 C11.2675099,29.4501493 10.7248184,29.897511 10.5677604,30.4998367 C9.70534366,30.0349451 8.89411099,29.4880137 8.14528084,28.867457 C8.31215497,28.636063 8.41382199,28.3548842 8.41382199,28.0477612 C8.41382199,27.2729418 7.7862911,26.6453731 7.01151832,26.6453731 C6.70441382,26.6453731 6.42325194,26.7470463 6.19187183,26.9139304 C5.57135246,26.1650552 5.02375288,25.3537737 4.55959037,24.4913051 C5.16187979,24.3342376 5.60921466,23.7915134 5.60921466,23.139403 C5.60921466,22.3645836 4.98168377,21.7370149 4.20691099,21.7370149 C3.9404733,21.7370149 3.69436901,21.8155487 3.48262115,21.9438672 C3.17832126,20.9769206 2.97358492,19.9657988 2.87542366,18.9245257 C3.61584,18.8873624 4.20691099,18.2801284 4.20691099,17.5298507 C4.20691099,16.7795731 3.61584,16.1723391 2.87542366,16.1344746 C2.97358492,15.0932015 3.17832126,14.0827809 3.48262115,13.1151331 C3.69436901,13.2441528 3.9404733,13.3226866 4.20691099,13.3226866 C4.98168377,13.3226866 5.60921466,12.6951179 5.60921466,11.9202985 C5.60921466,11.2681881 5.16187979,10.7254639 4.55959037,10.5683964 C5.02445403,9.70592776 5.57135246,8.89464627 6.19187183,8.14577104 C6.42325194,8.31265522 6.70441382,8.41432836 7.01151832,8.41432836 C7.7862911,8.41432836 8.41382199,7.7867597 8.41382199,7.0119403 C8.41382199,6.70481731 8.31215497,6.42363851 8.14528084,6.19224448 C8.89411099,5.57168776 9.70534366,5.02405522 10.5677604,4.55986478 C10.7248184,5.16219045 11.2675099,5.60955224 11.9195812,5.60955224 C12.6943539,5.60955224 13.3218848,4.98198358 13.3218848,4.20716418 C13.3218848,3.94071045 13.2433558,3.69459134 13.115045,3.48283075 C14.0819334,3.17851254 15.0929943,2.97376388 16.1342048,2.87559672 C16.1713659,3.61605761 16.7785634,4.20716418 17.5287958,4.20716418 C18.2790283,4.20716418 18.8862258,3.61605761 18.924088,2.87559672 C19.9652984,2.97376388 20.9756582,3.17851254 21.9432477,3.48283075 C21.8142358,3.69459134 21.7357068,3.94071045 21.7357068,4.20716418 C21.7357068,4.98198358 22.3632377,5.60955224 23.1380105,5.60955224 C23.7900817,5.60955224 24.3327732,5.16219045 24.4898312,4.55986478 C25.352248,5.02475642 26.1634806,5.57168776 26.9123108,6.19224448 C26.7454366,6.42363851 26.6437696,6.70481731 26.6437696,7.0119403 C26.6437696,7.7867597 27.2713005,8.41432836 28.0460733,8.41432836 C28.3531778,8.41432836 28.6343397,8.31265522 28.8657198,8.14577104 C29.4862392,8.89464627 30.0338387,9.70592776 30.4980013,10.5683964 C29.8957118,10.7254639 29.448377,11.2681881 29.448377,11.9202985 C29.448377,12.6951179 30.0759079,13.3226866 30.8506806,13.3226866 C31.1171183,13.3226866 31.3632226,13.2441528 31.5749705,13.1158343 C31.8792704,14.0827809 32.0840067,15.0939027 32.182168,16.1351758 C31.4417516,16.1723391 30.8506806,16.7795731 30.8506806,17.5298507 C30.8506806,18.2801284 31.4417516,18.8873624 32.182168,18.9252269 C32.0840067,19.9665 31.8792704,20.9769206 31.5749705,21.9445684 C31.3632226,21.8155487 31.1171183,21.7370149 30.8506806,21.7370149 C30.0759079,21.7370149 29.448377,22.3645836 29.448377,23.139403 C29.448377,23.7915134 29.8957118,24.3342376 30.4980013,24.4913051 C30.0331376,25.3537737 29.4862392,26.1650552 28.8657198,26.9139304 Z"
                                          id="Shape" fill="url(#linearGradient-23)"></path>
                                    <path d="M19.5235728,16.9590788 L16.7890806,15.5917504 C16.3347342,15.3652648 16.0725035,14.8835445 16.1363083,14.3674657 C16.2113315,13.7546221 16.7855749,13.3226866 17.4025885,13.3226866 L17.5287958,13.3226866 C18.1472117,13.3226866 18.7452942,13.7251719 18.9310995,14.28192 C19.0243527,14.5609952 19.3153307,14.7250746 19.6091133,14.7250746 L21.034555,14.7250746 C21.4636599,14.7250746 21.8114312,14.3394179 21.7293964,13.9187015 C21.4426253,12.4454928 20.3411158,11.2492558 18.9303983,10.7598224 L18.9303983,9.4661194 C18.9303983,8.88553075 18.4592243,8.41432836 17.8786706,8.41432836 C17.2981169,8.41432836 16.827644,8.88553075 16.827644,9.4661194 L16.827644,10.5508666 C14.6624871,10.8201251 13.0281022,12.8234364 13.3660574,15.124054 C13.5609776,16.4479084 14.4619577,17.5642093 15.6588239,18.163029 L18.268511,19.467951 C18.7228574,19.6944367 18.9850882,20.176157 18.9212834,20.6922358 C18.8462601,21.3050794 18.2720168,21.7370149 17.6550031,21.7370149 L17.5287958,21.7370149 C16.9103799,21.7370149 16.3122974,21.3345296 16.1264921,20.7777815 C16.0339401,20.5008099 15.7499736,20.3346269 15.4582945,20.3346269 L14.0230366,20.3346269 C13.5932306,20.3346269 13.2461604,20.7209848 13.3281952,21.1424024 C13.6156674,22.6149099 14.717177,23.8104457 16.1264921,24.2998791 L16.1264921,25.5935821 C16.1264921,26.1741707 16.5976662,26.6453731 17.1782199,26.6453731 C17.7587736,26.6453731 18.2299476,26.1741707 18.2299476,25.5935821 L18.2299476,24.4863967 C19.9603904,24.2241501 21.4243954,22.9248376 21.6887296,21.1620358 C21.9544662,19.3950269 21.071716,17.733197 19.5235728,16.9590788 Z"
                                          id="Path" fill="url(#linearGradient-24)"></path>
                                </g>
                                <path d="M45.4450262,50.344709 L109.644281,50.344709 L109.644281,152.840542 L161.65848,152.840542 L161.65848,110.045321 L215.539267,110.045321 L215.539267,122.909088"
                                      id="Path-23" stroke="#AAAAAA" stroke-width="2.6" stroke-linecap="round"
                                      stroke-dasharray="0,5.2"></path>
                                <path d="M30.7138194,45.2537313 L40.6997932,54.3432836" id="Line-8" stroke="#AAAAAA"
                                      stroke-width="2.6" stroke-linecap="round"></path>
                                <path d="M30.7138194,45.2537313 L40.6997932,54.3432836" id="Line-8-Copy"
                                      stroke="#AAAAAA" stroke-width="2.6" stroke-linecap="round"
                                      transform="translate(35.706806, 49.798507) scale(-1, 1) translate(-35.706806, -49.798507) "></path>
                                <g id="icons8-investment-portfolio-(1)" transform="translate(119.000000, 102.000000)"
                                   fill-rule="nonzero">
                                    <g id="surface1_2_">
                                        <path d="M0,16.2313433 C0,7.30540299 7.30496335,0 16.2303665,0 L16.2303665,16.2313433 L0,16.2313433 Z"
                                              id="Path" fill="url(#linearGradient-25)"></path>
                                        <path d="M32.460733,16.2313433 C32.460733,7.30540299 25.1557696,0 16.2303665,0 L16.2303665,16.2313433 L27.3215497,28.0458134 C30.4780314,25.1572836 32.460733,20.9196045 32.460733,16.2313433 Z"
                                              id="Path" fill="url(#linearGradient-26)"></path>
                                        <path d="M16.2303665,16.2313433 L0,16.2313433 C0,20.4690224 1.71197906,24.4385597 4.41660733,27.323194 C7.39325654,30.4798657 11.6300314,32.4626866 16.2303665,32.4626866 C20.4677906,32.4626866 24.3455497,30.7506045 27.3215497,28.0458134 L16.2303665,16.2313433 Z"
                                              id="Path" fill="url(#linearGradient-27)"></path>
                                    </g>
                                </g>
                            </g>
                        </g>
                    </g>
                </g>
            </g>
        </g>
    </g>
</svg>
