<?xml version="1.0" encoding="UTF-8"?>
<svg width="38px" height="38px" viewBox="0 0 38 38" version="1.1" xmlns="http://www.w3.org/2000/svg"
>
    <!-- Generator: Sketch 55.2 (78181) - https://sketchapp.com -->
    <title>Group 3</title>
    <desc>Created with Sketch.</desc>
    <g id="Design" stroke="none" stroke-width="1" fill="none" fill-rule="evenodd">
        <g id="[desktop]One-page-plan---empty" transform="translate(-1220.000000, -667.000000)" fill="#3E474F">
            <g id="content" transform="translate(310.000000, 274.000000)">
                <g id="tasks" transform="translate(0.000000, 43.000000)">
                    <g id="Group-8-Copy-14" transform="translate(900.000000, 340.000000)">
                        <g id="Group-3" transform="translate(10.000000, 10.000000)">
                            <rect id="Rectangle" opacity="0.05" x="0" y="0" width="38" height="38" rx="4"></rect>
                            <path d="M15,12 C13.343,12 12,13.343 12,15 C12,16.657 13.343,18 15,18 C16.657,18 18,16.657 18,15 C18,13.343 16.657,12 15,12 Z M23,12 C21.343,12 20,13.343 20,15 C20,16.657 21.343,18 23,18 C24.657,18 26,16.657 26,15 C26,13.343 24.657,12 23,12 Z M15,14 C15.551,14 16,14.449 16,15 C16,15.551 15.551,16 15,16 C14.449,16 14,15.551 14,15 C14,14.449 14.449,14 15,14 Z M23,14 C23.551,14 24,14.449 24,15 C24,15.551 23.551,16 23,16 C22.449,16 22,15.551 22,15 C22,14.449 22.449,14 23,14 Z M15,20 C12,20 8,21.464 8,23.5 L8,26 L21.078125,26 L22,26 L30,26 L30,23.5 C30,21.464 26,20 23,20 C21.715935,20 20.261676,20.282936 19.003906,20.75 C17.743781,20.281749 16.2867106,20 15,20 Z M15,22 C17.36,22 19.62,23.025609 20,23.599609 L20,24 L10,24 L10,23.599609 C10.38,23.025609 12.64,22 15,22 Z M23,22 C25.36,22 27.62,23.025609 28,23.599609 L28,24 L22,24 L22,23.5 C22,23.018241 21.770344,22.569952 21.388672,22.164062 C21.908294,22.069313 22.444772,22 23,22 Z"
                                  id="Shape" fill-rule="nonzero" opacity="0.5"></path>
                        </g>
                    </g>
                </g>
            </g>
        </g>
    </g>
</svg>
