<?xml version="1.0" encoding="UTF-8"?>
<svg width="38px" height="38px" viewBox="0 0 38 38" version="1.1" xmlns="http://www.w3.org/2000/svg"
>
    <!-- Generator: Sketch 55.2 (78181) - https://sketchapp.com -->
    <title>Group 7</title>
    <desc>Created with Sketch.</desc>
    <g id="Design" stroke="none" stroke-width="1" fill="none" fill-rule="evenodd">
        <g id="[desktop]One-page-plan---empty" transform="translate(-920.000000, -582.000000)" fill="#3E474F">
            <g id="content" transform="translate(310.000000, 274.000000)">
                <g id="tasks" transform="translate(0.000000, 43.000000)">
                    <g id="Group-8-Copy-6" transform="translate(600.000000, 255.000000)">
                        <g id="Group-7" transform="translate(10.000000, 10.000000)">
                            <rect id="Rectangle" opacity="0.05" x="0" y="0" width="38" height="38" rx="4"></rect>
                            <path d="M10.5,10 C9.673,10 9,10.673 9,11.5 L9,16 L10,16 L10,26 C10,27.103 10.897,28 12,28 L26,28 C27.103,28 28,27.103 28,26 L28,16 L29,16 L29,11.5 C29,10.673 28.327,10 27.5,10 L10.5,10 Z M11,12 L17,12 L17,14 L11,14 L11,12 Z M21,12 L27,12 L27,14 L21,14 L21,12 Z M12,16 L17,16 L17,18 L21,18 L21,16 L26,16 L26.001953,26 L12,26 L12,16 Z"
                                  id="Shape" fill-rule="nonzero" opacity="0.5"></path>
                        </g>
                    </g>
                </g>
            </g>
        </g>
    </g>
</svg>
