<?xml version="1.0" encoding="UTF-8"?>
<svg width="38px" height="38px" viewBox="0 0 38 38" version="1.1" xmlns="http://www.w3.org/2000/svg"
>
    <!-- Generator: Sketch 55.2 (78181) - https://sketchapp.com -->
    <title>Group 9</title>
    <desc>Created with Sketch.</desc>
    <g id="Design" stroke="none" stroke-width="1" fill="none" fill-rule="evenodd">
        <g id="[desktop]One-page-plan---empty" transform="translate(-1220.000000, -327.000000)" fill="#3E474F">
            <g id="content" transform="translate(310.000000, 274.000000)">
                <g id="tasks" transform="translate(0.000000, 43.000000)">
                    <g id="Group-8-Copy-3" transform="translate(900.000000, 0.000000)">
                        <g id="Group-9" transform="translate(10.000000, 10.000000)">
                            <rect id="Rectangle" opacity="0.05" x="0" y="0" width="38" height="38" rx="4"></rect>
                            <path d="M27,10 L26,11.2851562 L13,16 L13,22 L15.4511719,22.888672 L15.1679688,23.689453 C14.9549687,24.290453 15.2690937,24.949109 15.8710938,25.162109 L18.048828,25.933594 C18.649828,26.146594 19.310437,25.830516 19.523438,25.228516 L19.792969,24.464844 L26,26.714844 L27,28 L29,28 L29,10 L27,10 Z M27,13.0507812 L27,24.949219 L26.681641,24.833984 L15,20.597656 L15,17.402344 L26.681641,13.1660156 L27,13.0507812 Z M9,16 L9,22 L11,22 L11,16 L9,16 Z"
                                  id="Shape" fill-rule="nonzero" opacity="0.5"></path>
                        </g>
                    </g>
                </g>
            </g>
        </g>
    </g>
</svg>
