<?xml version="1.0" encoding="UTF-8"?>
<svg width="38px" height="38px" viewBox="0 0 38 38" version="1.1" xmlns="http://www.w3.org/2000/svg"
>
    <!-- Generator: Sketch 55.2 (78181) - https://sketchapp.com -->
    <title>Group 8</title>
    <desc>Created with Sketch.</desc>
    <g id="Design" stroke="none" stroke-width="1" fill="none" fill-rule="evenodd">
        <g id="[desktop]One-page-plan---empty" transform="translate(-920.000000, -837.000000)" fill="#3E474F">
            <g id="content" transform="translate(310.000000, 274.000000)">
                <g id="tasks" transform="translate(0.000000, 43.000000)">
                    <g id="Group-8-Copy-13" transform="translate(600.000000, 510.000000)">
                        <g id="Group-8" transform="translate(10.000000, 10.000000)">
                            <rect id="Rectangle" opacity="0.05" x="0" y="0" width="38" height="38" rx="4"></rect>
                            <g id="icons8-get-revenue" transform="translate(8.000000, 10.000000)" fill-rule="nonzero"
                               opacity="0.5">
                                <path d="M12,0 C9.791,0 8,1.791 8,4 C8,6.209 9.791,8 12,8 C14.209,8 16,6.209 16,4 C16,1.791 14.209,0 12,0 Z M3.3164062,0.0507812 L2.6835938,1.9492188 L5.6835938,2.9492188 L6.3164062,1.0507812 L3.3164062,0.0507812 Z M20.683594,0.0507812 L17.683594,1.0507812 L18.316406,2.9492188 L21.316406,1.9492188 L20.683594,0.0507812 Z M12,2 C13.105,2 14,2.895 14,4 C14,5.105 13.105,6 12,6 C10.895,6 10,5.105 10,4 C10,2.895 10.895,2 12,2 Z M5.6835938,4.0507812 L2.6835938,5.0507812 L3.3164062,6.9492188 L6.3164062,5.9492188 L5.6835938,4.0507812 Z M18.316406,4.0507812 L17.683594,5.9492188 L20.683594,6.9492188 L21.316406,5.0507812 L18.316406,4.0507812 Z M5,8 C4.709,8 4.4339688,8.053859 4.1679688,8.130859 L0,9.107422 L0,16.308594 L4,15 L12.15625,17.853516 C12.42125,17.946516 12.696703,17.992188 12.970703,17.992188 C13.372703,17.992188 13.772766,17.895172 14.134766,17.701172 L21.462891,13.783203 L20.285156,11.267578 L13.121094,14.880859 L12.488281,14.695312 L13.007812,13.427734 C13.462813,12.412734 13.002422,11.220391 11.982422,10.775391 L6.1152344,8.220703 C5.7692344,8.081703 5.395,8 5,8 Z M5,10 C5.114,10 5.2316094,10.022406 5.3496094,10.066406 L11.181641,12.607422 L11.167969,12.638672 L11.154297,12.669922 L10.636719,13.9375 L10.185547,15.044922 L4.6601562,13.111328 L4.0214844,12.888672 L3.3789062,13.097656 L2,13.550781 L2,10.693359 L4.6230469,10.078125 L4.6757812,10.066406 L4.7246094,10.052734 C4.8446094,10.018734 4.937,10 5,10 Z"
                                      id="Shape"></path>
                            </g>
                        </g>
                    </g>
                </g>
            </g>
        </g>
    </g>
</svg>
