<?xml version="1.0" encoding="UTF-8"?>
<svg width="38px" height="38px" viewBox="0 0 38 38" version="1.1" xmlns="http://www.w3.org/2000/svg"
>
    <!-- Generator: Sketch 55.2 (78181) - https://sketchapp.com -->
    <title>Group 2</title>
    <desc>Created with Sketch.</desc>
    <g id="Design" stroke="none" stroke-width="1" fill="none" fill-rule="evenodd">
        <g id="[desktop]One-page-plan---empty" transform="translate(-620.000000, -837.000000)" fill="#3E474F">
            <g id="content" transform="translate(310.000000, 274.000000)">
                <g id="tasks" transform="translate(0.000000, 43.000000)">
                    <g id="Group-8-Copy-11" transform="translate(300.000000, 510.000000)">
                        <g id="Group-2" transform="translate(10.000000, 10.000000)">
                            <rect id="Rectangle" opacity="0.05" x="0" y="0" width="38" height="38" rx="4"></rect>
                            <path d="M12,9 C10.9069372,9 10,9.9069372 10,11 L10,25 C10,26.093063 10.9069372,27 12,27 L22,27 L22,25 L12,25 L12,11 L26,11 L26,15 L28,15 L28,11 C28,9.9069372 27.093063,9 26,9 L12,9 Z M16,13 L16,15 L22,15 L22,13 L16,13 Z M26.550781,17.300781 L26.550781,18.728516 C26.211781,18.771516 24.314453,19.127969 24.314453,21.417969 C24.314453,24.758969 27.773438,23.769047 27.773438,25.998047 C27.773437,27.114047 27.051297,27.142578 26.904297,27.142578 C26.770297,27.142578 25.890625,27.213859 25.890625,25.505859 L24,25.505859 C24,28.397859 26.098156,28.626922 26.410156,28.669922 L26.410156,30 L27.412109,30 L27.412109,28.669922 C27.750109,28.627922 29.662109,28.314328 29.662109,25.986328 C29.662109,22.780328 26.204125,23.393734 26.203125,21.427734 C26.203125,20.300734 26.823031,20.265625 26.957031,20.265625 C27.202031,20.265625 27.785156,20.480516 27.785156,21.853516 L29.675781,21.853516 C29.675781,19.226516 27.879594,18.816859 27.558594,18.755859 L27.558594,17.300781 L26.550781,17.300781 Z"
                                  id="Shape" fill-rule="nonzero" opacity="0.5"></path>
                        </g>
                    </g>
                </g>
            </g>
        </g>
    </g>
</svg>
