<?xml version="1.0" encoding="UTF-8"?>
<svg width="38px" height="38px" viewBox="0 0 38 38" version="1.1" xmlns="http://www.w3.org/2000/svg"
>
    <!-- Generator: Sketch 55.2 (78181) - https://sketchapp.com -->
    <title>Group 3</title>
    <desc>Created with Sketch.</desc>
    <g id="Design" stroke="none" stroke-width="1" fill="none" fill-rule="evenodd">
        <g id="[desktop]One-page-plan---empty" transform="translate(-320.000000, -837.000000)" fill="#3E474F">
            <g id="content" transform="translate(310.000000, 274.000000)">
                <g id="tasks" transform="translate(0.000000, 43.000000)">
                    <g id="Group-8-Copy-9" transform="translate(0.000000, 510.000000)">
                        <g id="Group-3" transform="translate(10.000000, 10.000000)">
                            <path d="M19,8 C17.98925,8 16.9791875,8.32320312 16.1796875,8.97070312 L13.0234375,8.97070312 L14.1679688,15.1992187 C12.3009337,16.8878267 9,20.4969051 9,24.9707031 C9,26.9727031 9.6085469,28.5632651 10.8105469,29.6972651 L11.0996094,29.9707031 L26.900391,29.9707031 L27.189453,29.6972651 C28.390453,28.5622651 29,26.9727031 29,24.9707031 C29,20.5012211 25.701049,16.8915025 23.833984,15.2011719 L24.978516,8.97070312 L21.820312,8.97070312 C21.020812,8.32320312 20.01075,8 19,8 Z M19,9.99414062 C19.6355,9.99414062 20.270188,10.2240468 20.742188,10.6855469 L21.035156,10.9707031 L22.576172,10.9707031 L22.025391,13.9707031 L15.9746094,13.9707031 L15.4238281,10.9707031 L16.9648438,10.9707031 L17.257812,10.6855469 C17.729813,10.2240468 18.3645,9.99414062 19,9.99414062 Z M16.3417969,15.9707031 L21.660156,15.9707031 C22.740156,16.8317031 27,20.5097031 27,24.9707031 C27,26.2537031 26.696219,27.2397031 26.074219,27.9707031 L19.523438,27.9707031 L19.523438,27.0585941 C19.832438,27.0195941 21.576172,26.7333751 21.576172,24.6093751 C21.576172,21.6843751 18.420875,22.2442191 18.421875,20.4492191 C18.421875,19.4212191 18.920375,19.3886721 19.109375,19.3886721 C19.351375,19.3886721 19.865234,19.5848901 19.865234,20.8378911 L21.589844,20.8378911 C21.589844,18.4398901 19.950203,18.0677191 19.658203,18.0117191 L19.658203,16.6835937 L18.738281,16.6835937 L18.738281,17.9882811 C18.429281,18.0272811 16.6972656,18.3524061 16.6972656,20.4414061 C16.6972656,23.4894061 19.853516,22.5870941 19.853516,24.6210941 C19.853516,25.6390941 19.194547,25.6640621 19.060547,25.6640621 C18.938547,25.6640621 18.134766,25.7279221 18.134766,24.1699221 L16.4101562,24.1699221 C16.4101563,26.8089221 18.324375,27.0195941 18.609375,27.0585941 L18.609375,27.9707031 L11.9238281,27.9707031 C11.3028281,27.2397031 11,26.2537031 11,24.9707031 C11,20.5227031 15.2617969,16.8337031 16.3417969,15.9707031 Z"
                                  id="Shape" fill-rule="nonzero" opacity="0.5"></path>
                            <rect id="Rectangle" opacity="0.05" x="0" y="0" width="38" height="38" rx="4"></rect>
                        </g>
                    </g>
                </g>
            </g>
        </g>
    </g>
</svg>
