<svg id="Layer_1" data-name="Layer 1" xmlns="http://www.w3.org/2000/svg" xmlns:xlink="http://www.w3.org/1999/xlink" viewBox="0 0 748.32 204.51">
  <defs>
    <mask id="mask" x="12.18" y="0.5" width="753" height="205" maskUnits="userSpaceOnUse">
      <g transform="translate(-8.82 -4.5)">
        <g id="mask-2">
          <rect id="path-1" x="21" y="5" width="753" height="205" rx="8" fill="#fff"/>
        </g>
      </g>
    </mask>
    <radialGradient id="radial-gradient" cx="-173.35" cy="1316.19" r="1.95" gradientTransform="matrix(152.05, 0, 0, -152.05, 26745.3, 200260.85)" gradientUnits="userSpaceOnUse">
      <stop offset="0" stop-color="#afeeff" stop-opacity="0.33"/>
      <stop offset="0.19" stop-color="#bbf1ff" stop-opacity="0.94"/>
      <stop offset="0.7" stop-color="#d7f8ff"/>
      <stop offset="1" stop-color="#e1faff" stop-opacity="0.6"/>
    </radialGradient>
    <mask id="mask-2-2" x="22.18" y="44.5" width="643.57" height="160" maskUnits="userSpaceOnUse">
      <g transform="translate(-8.82 -4.5)">
        <g id="mask-5">
          <path id="path-4" d="M137,82.8q44-21.39,87.26-25.09C267.75,54,326,122.23,346.08,147.59s80.24,12.06,102.76-9.37S521,55,555.25,57q34.25,2,77.67,26.16l-.14-.17.14.1c5.32,3.75,57.78,43.45,36.67,76.56q-13.2,20.72-34.17,17.87a6.61,6.61,0,0,0-1.63-.83c-37-12.42-40.11-26.94-68.69-43.69s-44.05,11.41-70.73,30-61,46.4-103.69,46-84.83-39.88-114.27-61.58-39.3-20.76-78,6.45q-38.72,27.21-54.54,31.87-49.5,5-46.49-35.12c3.19-42.68,34.63-64.81,39-67.46Z" fill="#fff" fill-rule="evenodd"/>
        </g>
      </g>
    </mask>
    <radialGradient id="radial-gradient-2" cx="-173.41" cy="1316.55" r="0.7" gradientTransform="matrix(160, 0, 0, -160, 27891.99, 210777)" gradientUnits="userSpaceOnUse">
      <stop offset="0" stop-color="#afeeff"/>
      <stop offset="0.19" stop-color="#bbf1ff"/>
      <stop offset="0.7" stop-color="#d7f8ff"/>
      <stop offset="1" stop-color="#e1faff"/>
    </radialGradient>
    <mask id="mask-3" x="88.38" y="14.5" width="614.8" height="190" maskUnits="userSpaceOnUse">
      <g transform="translate(-8.82 -4.5)">
        <g id="mask-5-2" data-name="mask-5">
          <path id="path-4-2" data-name="path-4" d="M137,82.8q44-21.39,87.26-25.09C267.75,54,326,122.23,346.08,147.59s80.24,12.06,102.76-9.37S521,55,555.25,57q34.25,2,77.67,26.16l-.14-.17.14.1c5.32,3.75,57.78,43.45,36.67,76.56q-13.2,20.72-34.17,17.87a6.61,6.61,0,0,0-1.63-.83c-37-12.42-40.11-26.94-68.69-43.69s-44.05,11.41-70.73,30-61,46.4-103.69,46-84.83-39.88-114.27-61.58-39.3-20.76-78,6.45q-38.72,27.21-54.54,31.87-49.5,5-46.49-35.12c3.19-42.68,34.63-64.81,39-67.46Z" fill="#fff" fill-rule="evenodd"/>
        </g>
      </g>
    </mask>
    <radialGradient id="radial-gradient-3" cx="-173.46" cy="1316.92" r="0.66" gradientTransform="matrix(169, 0, 0, -169, 29911.48, 222663)" xlink:href="#radial-gradient-2"/>
    <linearGradient id="linear-gradient" x1="-174.7" y1="1314.87" x2="-173.7" y2="1314.87" gradientTransform="matrix(581.78, 0, 0, -128.81, 101735.78, 169490.68)" gradientUnits="userSpaceOnUse">
      <stop offset="0" stop-color="#a4a4a4"/>
      <stop offset="0.63" stop-color="#7f7f7f"/>
      <stop offset="1" stop-color="#6f6f6f"/>
    </linearGradient>
    <linearGradient id="linear-gradient-2" x1="-143.77" y1="1288.2" x2="-143.77" y2="1289.2" gradientTransform="matrix(5.69, 0, 0, -31.97, 1005.83, 41255.32)" gradientUnits="userSpaceOnUse">
      <stop offset="0" stop-color="#ff8b67"/>
      <stop offset="0.85" stop-color="#ffa76a"/>
      <stop offset="1" stop-color="#ffad6b"/>
    </linearGradient>
    <linearGradient id="linear-gradient-3" x1="-143.77" y1="1275.95" x2="-143.77" y2="1276.95" gradientTransform="matrix(5.69, 0, 0, -23.65, 1011.19, 30229.73)" xlink:href="#linear-gradient-2"/>
    <linearGradient id="linear-gradient-4" x1="-170.56" y1="1302.84" x2="-170.56" y2="1301.84" gradientTransform="matrix(44.42, 0, 0, -52.15, 7763.76, 67939.55)" gradientUnits="userSpaceOnUse">
      <stop offset="0" stop-color="#42d778"/>
      <stop offset="0.43" stop-color="#3dca76"/>
      <stop offset="1" stop-color="#34b171"/>
    </linearGradient>
    <mask id="mask-7" x="157.16" y="2.5" width="50.07" height="57.97" maskUnits="userSpaceOnUse">
      <g transform="translate(-8.82 -4.5)">
        <g id="mask-13">
          <path id="path-12" d="M176.83,41.33h-5a1.47,1.47,0,0,1-1.47-1.47,1.49,1.49,0,0,1,.25-.82l7.67-11.33h-3.17a1.46,1.46,0,0,1-1.47-1.46,1.49,1.49,0,0,1,.26-.84L186.25,7.63a1.46,1.46,0,0,1,2-.37,1.34,1.34,0,0,1,.32.31l13.78,17.78a1.47,1.47,0,0,1-.27,2.06,1.43,1.43,0,0,1-.89.3h-4.08L205.69,39a1.48,1.48,0,0,1-1.17,2.36h-6.23L210.1,56.79a1.47,1.47,0,0,1-.28,2.06,1.49,1.49,0,0,1-.89.3H167.45A1.47,1.47,0,0,1,166,57.68a1.46,1.46,0,0,1,.26-.83Z" fill="#fff" fill-rule="evenodd"/>
        </g>
      </g>
    </mask>
    <linearGradient id="linear-gradient-5" x1="-170.3" y1="1301.72" x2="-170.3" y2="1300.72" gradientTransform="matrix(41.65, 0, 0, -49.54, 7288.85, 64494.79)" gradientUnits="userSpaceOnUse">
      <stop offset="0" stop-color="#13893e"/>
      <stop offset="0.43" stop-color="#35b469"/>
      <stop offset="1" stop-color="#1d9d5c"/>
    </linearGradient>
    <linearGradient id="linear-gradient-6" x1="-169.58" y1="1297.11" x2="-169.58" y2="1296.11" gradientTransform="matrix(35.58, 0, 0, -41.11, 6235.7, 53334.35)" xlink:href="#linear-gradient-4"/>
    <linearGradient id="linear-gradient-7" x1="-174.68" y1="1313.32" x2="-173.7" y2="1313.32" gradientTransform="matrix(537.53, 0, 0, -109.25, 94016.79, 143589.62)" gradientUnits="userSpaceOnUse">
      <stop offset="0" stop-color="#fff" stop-opacity="0.46"/>
      <stop offset="0.52" stop-color="#fff"/>
      <stop offset="1" stop-color="#fff" stop-opacity="0.46"/>
    </linearGradient>
    <radialGradient id="radial-gradient-4" cx="-175.07" cy="1307.66" r="0.56" gradientTransform="matrix(69.7, -13.55, -13.55, -69.7, 30145.47, 88811.2)" xlink:href="#radial-gradient-2"/>
    <linearGradient id="linear-gradient-8" x1="-176.9" y1="1274.8" x2="-176.9" y2="1273.8" gradientTransform="matrix(16.53, -3.21, -4.36, -22.44, 8720.75, 28061.18)" xlink:href="#linear-gradient"/>
    <linearGradient id="linear-gradient-9" x1="-176.9" y1="1274.8" x2="-176.9" y2="1273.8" gradientTransform="matrix(16.53, -3.21, -4.36, -22.44, 8699.49, 28065.31)" xlink:href="#linear-gradient"/>
    <linearGradient id="linear-gradient-10" x1="-175.59" y1="1276.76" x2="-174.59" y2="1276.76" gradientTransform="matrix(66.95, -13.01, -4.59, -23.63, 17812.82, 27925.55)" xlink:href="#linear-gradient"/>
    <linearGradient id="linear-gradient-11" x1="-176.83" y1="1275.6" x2="-173.74" y2="1275.6" gradientTransform="matrix(21.66, -4.21, -4.48, -23.06, 9741.61, 28712.1)" gradientUnits="userSpaceOnUse">
      <stop offset="0" stop-color="#b2b2b2"/>
      <stop offset="0.59" stop-color="#949494"/>
      <stop offset="1" stop-color="#848484"/>
    </linearGradient>
    <linearGradient id="linear-gradient-12" x1="-188.73" y1="1089.79" x2="-174.55" y2="1089.79" gradientTransform="matrix(4.72, -0.92, -0.92, -4.73, 2086.35, 5021.3)" xlink:href="#linear-gradient-11"/>
    <linearGradient id="linear-gradient-13" x1="-177.37" y1="1230.02" x2="-178.28" y2="1230.02" gradientTransform="matrix(12.03, 0, 0, -12.03, 2369.91, 14854.78)" gradientUnits="userSpaceOnUse">
      <stop offset="0" stop-color="#ffdb7b"/>
      <stop offset="1" stop-color="#ffba00"/>
      <stop offset="1" stop-color="#ffb65b"/>
    </linearGradient>
    <linearGradient id="linear-gradient-14" x1="-175.84" y1="1286.61" x2="-175.84" y2="1285.61" gradientTransform="matrix(30.08, 0, 0, -30.08, 5500.17, 38751.81)" xlink:href="#linear-gradient-11"/>
    <linearGradient id="linear-gradient-15" x1="-175.84" y1="1286.61" x2="-175.84" y2="1285.61" gradientTransform="matrix(30.08, 0, 0, -30.08, 5539.15, 38744.24)" xlink:href="#linear-gradient-11"/>
    <linearGradient id="linear-gradient-16" x1="-176.74" y1="1261.36" x2="-176.74" y2="1260.36" gradientTransform="matrix(18.05, 0, 0, -18.05, 3400.72, 22824.95)" gradientUnits="userSpaceOnUse">
      <stop offset="0" stop-color="#def9ff"/>
      <stop offset="0.28" stop-color="#cff6ff"/>
      <stop offset="0.82" stop-color="#a7efff"/>
      <stop offset="1" stop-color="#99ecff"/>
    </linearGradient>
    <linearGradient id="linear-gradient-17" x1="-176.74" y1="1261.36" x2="-176.74" y2="1260.36" gradientTransform="matrix(18.05, 0, 0, -18.05, 3439.69, 22817.37)" xlink:href="#linear-gradient-16"/>
    <radialGradient id="radial-gradient-5" cx="-175.04" cy="1313.06" r="0.53" gradientTransform="translate(-3576.28 142746.55) rotate(174) scale(107.7 107.7)" xlink:href="#radial-gradient-2"/>
    <linearGradient id="linear-gradient-18" x1="-168.63" y1="1285.5" x2="-168.63" y2="1286.5" gradientTransform="matrix(29.82, 0, 0, -29.65, 5378.8, 38244.53)" gradientUnits="userSpaceOnUse">
      <stop offset="0" stop-color="#ffce76"/>
      <stop offset="0" stop-color="#ffce76"/>
      <stop offset="0.61" stop-color="#ffcd92"/>
      <stop offset="1" stop-color="#ffcca0"/>
    </linearGradient>
    <linearGradient id="linear-gradient-19" x1="-168.63" y1="1285.48" x2="-168.63" y2="1286.48" gradientTransform="matrix(29.82, 0, 0, -29.65, 5378.8, 38244.53)" xlink:href="#linear-gradient-2"/>
    <linearGradient id="linear-gradient-20" x1="-150.08" y1="1251.41" x2="-150.08" y2="1252.41" gradientTransform="matrix(7.17, 0, 0, -15.42, 1425.37, 19406.29)" gradientUnits="userSpaceOnUse">
      <stop offset="0" stop-color="#ff9757"/>
      <stop offset="1" stop-color="#ffb65b"/>
    </linearGradient>
    <linearGradient id="linear-gradient-21" x1="-145.81" y1="1280.02" x2="-145.81" y2="1281.02" gradientTransform="matrix(0, 21.91, 21.81, 0, -27527.87, 3284.22)" gradientUnits="userSpaceOnUse">
      <stop offset="0" stop-color="#3cb5ea"/>
      <stop offset="1" stop-color="#7ddefb"/>
    </linearGradient>
    <linearGradient id="linear-gradient-22" x1="-137.35" y1="1253.78" x2="-137.35" y2="1252.78" gradientTransform="matrix(12.28, 3.52, 4.01, -13.97, -2936.48, 18085.7)" gradientUnits="userSpaceOnUse">
      <stop offset="0" stop-color="#0060ee"/>
      <stop offset="1" stop-color="#292f4d"/>
    </linearGradient>
    <linearGradient id="linear-gradient-23" x1="-142.46" y1="1284.12" x2="-142.46" y2="1285.12" gradientTransform="matrix(5.46, 0, 0, -28.61, 1204.46, 36899.36)" xlink:href="#linear-gradient-2"/>
    <linearGradient id="linear-gradient-24" x1="-142.46" y1="1283.61" x2="-142.46" y2="1284.61" gradientTransform="matrix(5.46, 0, 0, -28.24, 1183.91, 36406.96)" xlink:href="#linear-gradient-2"/>
    <linearGradient id="linear-gradient-25" x1="-170.39" y1="1301.76" x2="-170.39" y2="1300.76" gradientTransform="matrix(42.58, 0, 0, -49.63, 7682.06, 64692.56)" xlink:href="#linear-gradient-4"/>
    <mask id="mask-9" x="389.39" y="89.71" width="50.47" height="57.32" maskUnits="userSpaceOnUse">
      <g transform="translate(-8.82 -4.5)">
        <g id="mask-36">
          <path id="path-35" d="M416.5,126.88h-4.75a1.39,1.39,0,0,1-1.16-2.19l7.34-10.76h-3a1.41,1.41,0,0,1-1.41-1.41,1.39,1.39,0,0,1,.26-.8l11.79-16.91a1.42,1.42,0,0,1,2-.35,1.64,1.64,0,0,1,.3.29L441,111.66a1.4,1.4,0,0,1-.25,2,1.34,1.34,0,0,1-.86.3H436l8.17,10.69a1.42,1.42,0,0,1-.26,2,1.47,1.47,0,0,1-.86.28h-6l11.3,14.7a1.4,1.4,0,0,1-1.11,2.26H407.51a1.41,1.41,0,0,1-1.4-1.41,1.39,1.39,0,0,1,.24-.79Z" fill="#fff" fill-rule="evenodd"/>
        </g>
      </g>
    </mask>
    <linearGradient id="linear-gradient-26" x1="-170.12" y1="1300.58" x2="-170.12" y2="1299.58" gradientTransform="matrix(39.93, 0, 0, -47.15, 7210.7, 61416.64)" xlink:href="#linear-gradient-5"/>
    <linearGradient id="linear-gradient-27" x1="-169.37" y1="1295.74" x2="-169.37" y2="1294.74" gradientTransform="matrix(34.1, 0, 0, -39.13, 6188.94, 50799.69)" xlink:href="#linear-gradient-4"/>
    <linearGradient id="linear-gradient-28" x1="-171.25" y1="1301.96" x2="-172.37" y2="1301.96" gradientTransform="matrix(63.36, 0, 0, -51.61, 11266.44, 67336.74)" gradientUnits="userSpaceOnUse">
      <stop offset="0" stop-color="#ffba00"/>
      <stop offset="0.55" stop-color="#ecaf0a"/>
      <stop offset="1" stop-color="#ffb65b"/>
    </linearGradient>
    <mask id="mask-10" x="344.38" y="106.35" width="63.36" height="53.58" maskUnits="userSpaceOnUse">
      <g transform="translate(-8.82 -4.5)">
        <g id="mask-41">
          <path id="path-40" d="M358.43,153.59q-2.42-1.43-5.23-2.83l17.11-29.15q7.43-2.69,11.24-4.54,3.52-1.72,10.76-6a1.26,1.26,0,0,1,1.73.44l.06.1,22.46,46.92q-8.56,4-23.23,4a72.39,72.39,0,0,1-27.61-5.29A80.94,80.94,0,0,1,358.43,153.59Z" fill="#fff" fill-rule="evenodd"/>
        </g>
      </g>
    </mask>
    <linearGradient id="linear-gradient-29" x1="-167.34" y1="1302.6" x2="-168.26" y2="1302.6" gradientTransform="matrix(26.23, 0, 0, -53.2, 4783.08, 69440.61)" xlink:href="#linear-gradient-13"/>
    <mask id="mask-11" x="344.38" y="106.35" width="63.36" height="52.31" maskUnits="userSpaceOnUse">
      <g transform="translate(-8.82 -4.5)">
        <g id="mask-41-2" data-name="mask-41">
          <path id="path-40-2" data-name="path-40" d="M358.43,153.59q-2.42-1.43-5.23-2.83l17.11-29.15q7.43-2.69,11.24-4.54,3.52-1.72,10.76-6a1.26,1.26,0,0,1,1.73.44l.06.1,22.46,46.92q-8.56,4-23.23,4a72.39,72.39,0,0,1-27.61-5.29A80.94,80.94,0,0,1,358.43,153.59Z" fill="#fff" fill-rule="evenodd"/>
        </g>
      </g>
    </mask>
    <linearGradient id="linear-gradient-30" x1="-167.13" y1="1272.36" x2="-165.62" y2="1273.39" gradientTransform="matrix(20.56, 0, 0, -22.15, 3805.49, 28361.8)" xlink:href="#linear-gradient"/>
    <mask id="mask-12" x="344.38" y="106.35" width="63.36" height="51.61" maskUnits="userSpaceOnUse">
      <g transform="translate(-8.82 -4.5)">
        <g id="mask-41-3" data-name="mask-41">
          <path id="path-40-3" data-name="path-40" d="M358.43,153.59q-2.42-1.43-5.23-2.83l17.11-29.15q7.43-2.69,11.24-4.54,3.52-1.72,10.76-6a1.26,1.26,0,0,1,1.73.44l.06.1,22.46,46.92q-8.56,4-23.23,4a72.39,72.39,0,0,1-27.61-5.29A80.94,80.94,0,0,1,358.43,153.59Z" fill="#fff" fill-rule="evenodd"/>
        </g>
      </g>
    </mask>
    <linearGradient id="linear-gradient-31" x1="-159.89" y1="1270.64" x2="-161.02" y2="1270.64" gradientTransform="matrix(12.4, 0, 0, -21.04, 2375.48, 26882.02)" xlink:href="#linear-gradient-28"/>
    <linearGradient id="linear-gradient-32" x1="-187.8" y1="1271.16" x2="-188.4" y2="1270.59" gradientTransform="translate(-2000.97 26882.02) rotate(180) scale(12.76 21.04)" gradientUnits="userSpaceOnUse">
      <stop offset="0" stop-color="#ffba00"/>
      <stop offset="0.55" stop-color="#cb9a13"/>
      <stop offset="1" stop-color="#e39b41"/>
    </linearGradient>
    <linearGradient id="linear-gradient-33" x1="-162.56" y1="1285.92" x2="-162.56" y2="1286.92" gradientTransform="matrix(0, 29.04, 28.88, 0, -36785.17, 4792.53)" gradientUnits="userSpaceOnUse">
      <stop offset="0" stop-color="#2d8fe8"/>
      <stop offset="1" stop-color="#3bb5f1"/>
    </linearGradient>
    <linearGradient id="linear-gradient-34" x1="-165.03" y1="1229.86" x2="-165.03" y2="1228.86" gradientTransform="matrix(18.48, 0, 0, -11.81, 3415.41, 14593.5)" gradientUnits="userSpaceOnUse">
      <stop offset="0" stop-color="#535c84"/>
      <stop offset="1" stop-color="#292f4d"/>
    </linearGradient>
    <radialGradient id="radial-gradient-6" cx="-178.02" cy="1308.17" r="0.55" gradientTransform="matrix(-71.37, -4.99, 4.99, -71.37, -18681.89, 92531.51)" xlink:href="#radial-gradient-2"/>
    <linearGradient id="linear-gradient-35" x1="-168.5" y1="1293.05" x2="-168.5" y2="1294.05" gradientTransform="matrix(41.95, 2.93, 2.57, -36.73, 4278.71, 48063.15)" xlink:href="#linear-gradient-21"/>
    <mask id="mask-14" x="501.31" y="32.24" width="42.63" height="35.18" maskUnits="userSpaceOnUse">
      <g transform="translate(-8.82 -4.5)">
        <g id="mask-51">
          <path id="path-50" d="M510.13,71.92a64.13,64.13,0,0,1,18.39-5.83,125.15,125.15,0,0,1,24.24-1L537,38.07a2.68,2.68,0,0,0-4.57-.12Z" fill="#fff" fill-rule="evenodd"/>
        </g>
      </g>
    </mask>
    <linearGradient id="linear-gradient-36" x1="-160.36" y1="1284.56" x2="-160.36" y2="1285.56" gradientTransform="matrix(17.78, 1.24, 1.99, -28.47, 819.1, 36841.39)" xlink:href="#linear-gradient-33"/>
    <linearGradient id="linear-gradient-37" x1="-81.52" y1="1266.47" x2="-81.52" y2="1265.16" gradientTransform="matrix(2.71, 0.19, 1.33, -19.03, -899.04, 24121.48)" gradientUnits="userSpaceOnUse">
      <stop offset="0" stop-color="#adadad"/>
      <stop offset="0.41" stop-color="#969696"/>
      <stop offset="1" stop-color="#6f6f6f"/>
    </linearGradient>
    <linearGradient id="linear-gradient-38" x1="-158.43" y1="1150.88" x2="-158.43" y2="1151.88" gradientTransform="matrix(15.65, 1.09, 0.44, -6.36, 2541.93, 7504.84)" xlink:href="#linear-gradient-2"/>
    <linearGradient id="linear-gradient-39" x1="-170.28" y1="1302.92" x2="-170.28" y2="1303.92" gradientTransform="matrix(59.59, 4.17, 3.81, -54.51, 5741.45, 71810.07)" xlink:href="#linear-gradient-33"/>
    <linearGradient id="linear-gradient-40" x1="-169.82" y1="1283.43" x2="-169.82" y2="1284.66" gradientTransform="matrix(53.77, 3.76, 1.95, -27.84, 7191.95, 36445.57)" gradientUnits="userSpaceOnUse">
      <stop offset="0" stop-color="#0d47a1"/>
      <stop offset="0.37" stop-color="#135fba"/>
      <stop offset="0.73" stop-color="#1770cc"/>
      <stop offset="1" stop-color="#1976d2"/>
    </linearGradient>
    <radialGradient id="radial-gradient-7" cx="-169.93" cy="1310.9" r="0.59" gradientTransform="matrix(82.46, 16.03, 16.03, -82.46, -6300.79, 110916.44)" xlink:href="#radial-gradient-2"/>
    <linearGradient id="linear-gradient-41" x1="-169.46" y1="1305.04" x2="-169.46" y2="1306.04" gradientTransform="matrix(74.8, 14.54, 11.24, -57.85, -1303.2, 78082.47)" xlink:href="#linear-gradient-33"/>
    <linearGradient id="linear-gradient-42" x1="-168.78" y1="1305.1" x2="-168.78" y2="1304.1" gradientTransform="matrix(65.91, 12.81, 10.69, -54.97, -2115.71, 73981.39)" gradientUnits="userSpaceOnUse">
      <stop offset="0" stop-color="#fffaf6"/>
      <stop offset="1" stop-color="#fffaf2"/>
    </linearGradient>
    <mask id="mask-15" x="653.82" y="70.84" width="68.27" height="54.72" maskUnits="userSpaceOnUse">
      <g transform="translate(-8.82 -4.5)">
        <g id="mask-61">
          <path id="path-60" d="M712.5,128.33a25,25,0,1,0-34.06-6.62L669.56,120l.29.79a32,32,0,1,1,51.6,9.29Z" fill="#fff" fill-rule="evenodd"/>
        </g>
      </g>
    </mask>
    <linearGradient id="linear-gradient-43" x1="-157.63" y1="1300.58" x2="-158.9" y2="1300.58" gradientTransform="matrix(23.21, 4.51, 8.81, -45.32, -7108.12, 59752.69)" gradientUnits="userSpaceOnUse">
      <stop offset="0" stop-color="#ff634d"/>
      <stop offset="0.21" stop-color="#fd6464"/>
      <stop offset="0.38" stop-color="#fc6574"/>
      <stop offset="0.52" stop-color="#fc6582"/>
      <stop offset="0.79" stop-color="#fa6666"/>
      <stop offset="0.99" stop-color="#fa6667"/>
      <stop offset="1" stop-color="#fa669a"/>
    </linearGradient>
    <mask id="mask-16" x="658.08" y="70.84" width="71.16" height="57.82" maskUnits="userSpaceOnUse">
      <g transform="translate(-8.82 -4.5)">
        <g id="mask-61-2" data-name="mask-61">
          <path id="path-60-2" data-name="path-60" d="M712.5,128.33a25,25,0,1,0-34.06-6.62L669.56,120l.29.79a32,32,0,1,1,51.6,9.29Z" fill="#fff" fill-rule="evenodd"/>
        </g>
      </g>
    </mask>
    <linearGradient id="linear-gradient-44" x1="-190.74" y1="1301.24" x2="-190.74" y2="1300.24" gradientTransform="translate(-15159.59 58188.66) rotate(-169) scale(23.65 46.17)" xlink:href="#linear-gradient-4"/>
    <mask id="mask-17" x="658.08" y="67.18" width="64.01" height="58.39" maskUnits="userSpaceOnUse">
      <g transform="translate(-8.82 -4.5)">
        <g id="mask-61-3" data-name="mask-61">
          <path id="path-60-3" data-name="path-60" d="M712.5,128.33a25,25,0,1,0-34.06-6.62L669.56,120l.29.79a32,32,0,1,1,51.6,9.29Z" fill="#fff" fill-rule="evenodd"/>
        </g>
      </g>
    </mask>
    <linearGradient id="linear-gradient-45" x1="-127.95" y1="1328.71" x2="-128.87" y2="1328.71" gradientTransform="matrix(-2.47, 23.49, 55.4, 5.82, -73230.86, -4638.75)" xlink:href="#linear-gradient-13"/>
    <linearGradient id="linear-gradient-46" x1="-158.23" y1="1260.42" x2="-158.23" y2="1261.42" gradientTransform="matrix(23.17, 4.5, 3.23, -16.6, 302.93, 21748.84)" xlink:href="#linear-gradient-33"/>
    <linearGradient id="linear-gradient-47" x1="-152.68" y1="1264.71" x2="-153.59" y2="1264.71" gradientTransform="matrix(17.67, 3.43, 3.43, -17.67, -975.97, 22931.94)" xlink:href="#linear-gradient-13"/>
    <linearGradient id="linear-gradient-48" x1="-78.51" y1="1058.46" x2="-78.51" y2="1059.46" gradientTransform="matrix(3.93, 0.76, 0.76, -3.93, 198.89, 4275.61)" xlink:href="#linear-gradient-33"/>
    <linearGradient id="linear-gradient-49" x1="-46.51" y1="970.27" x2="-46.51" y2="971.27" gradientTransform="matrix(2.94, 0.57, 0.57, -2.94, 314.26, 2943.15)" xlink:href="#linear-gradient-33"/>
    <linearGradient id="linear-gradient-50" x1="17.48" y1="793.91" x2="17.48" y2="794.91" gradientTransform="matrix(1.96, 0.38, 0.38, -1.96, 333.67, 1601.19)" xlink:href="#linear-gradient-33"/>
    <linearGradient id="linear-gradient-51" x1="-46.51" y1="970.27" x2="-46.51" y2="971.27" gradientTransform="matrix(2.94, 0.57, 0.57, -2.94, 225.92, 2962.65)" xlink:href="#linear-gradient-33"/>
    <linearGradient id="linear-gradient-52" x1="17.48" y1="793.91" x2="17.48" y2="794.91" gradientTransform="matrix(1.96, 0.38, 0.38, -1.96, 406.75, 1660.22)" xlink:href="#linear-gradient-33"/>
    <linearGradient id="linear-gradient-53" x1="-146.58" y1="1247.92" x2="-147.5" y2="1247.92" gradientTransform="matrix(13.74, 2.67, 2.67, -13.74, -562.41, 17628.41)" xlink:href="#linear-gradient-13"/>
    <linearGradient id="linear-gradient-54" x1="-135.61" y1="1217.68" x2="-136.53" y2="1217.68" gradientTransform="matrix(9.82, 1.91, 1.91, -9.82, -270.82, 12255.33)" xlink:href="#linear-gradient-13"/>
    <radialGradient id="radial-gradient-8" cx="-155.07" cy="1212.62" r="3.22" gradientTransform="matrix(0, 10, 10, 0, -11432.14, 1696.25)" gradientUnits="userSpaceOnUse">
      <stop offset="0" stop-color="#b2b2b2" stop-opacity="0.19"/>
      <stop offset="0.59" stop-color="#949494" stop-opacity="0.16"/>
      <stop offset="1" stop-color="#848484" stop-opacity="0.15"/>
    </radialGradient>
    <radialGradient id="radial-gradient-9" cx="-177.18" cy="1306.66" r="0.75" gradientTransform="matrix(62.77, -20.4, -20.4, -62.77, 37831.51, 78532.08)" xlink:href="#radial-gradient-2"/>
    <linearGradient id="linear-gradient-55" x1="-177.44" y1="1307.86" x2="-177.44" y2="1308.86" gradientTransform="matrix(57.36, -18.64, -22.71, -69.9, 39954.44, 88280.17)" xlink:href="#linear-gradient-2"/>
    <radialGradient id="radial-gradient-10" cx="-162.85" cy="1211.54" r="2.18" gradientTransform="matrix(10, 0, 0, -10, 1702.6, 12291.01)" xlink:href="#radial-gradient-8"/>
    <linearGradient id="linear-gradient-56" x1="-178.42" y1="1305.04" x2="-178.42" y2="1303.9" gradientTransform="matrix(43.02, -13.98, -18.08, -55.64, 31317.52, 70212.32)" gradientUnits="userSpaceOnUse">
      <stop offset="0" stop-color="#ffcfa2"/>
      <stop offset="1" stop-color="#ffd17c"/>
    </linearGradient>
    <linearGradient id="linear-gradient-57" x1="-178.42" y1="1305" x2="-178.42" y2="1304" gradientTransform="matrix(43.02, -13.98, -18.08, -55.64, 31317.52, 70212.32)" xlink:href="#linear-gradient-42"/>
    <linearGradient id="linear-gradient-58" x1="-179.84" y1="1277.66" x2="-179.84" y2="1276.35" gradientTransform="matrix(31.55, -10.25, -7.42, -22.83, 15194.95, 27403.24)" xlink:href="#linear-gradient-37"/>
    <linearGradient id="linear-gradient-59" x1="-188.7" y1="1230.03" x2="-189.96" y2="1230.03" gradientTransform="matrix(11.37, -3.69, -3.68, -11.31, 6757.7, 13325.48)" gradientUnits="userSpaceOnUse">
      <stop offset="0" stop-color="#ff634d"/>
      <stop offset="0.21" stop-color="#fd6464"/>
      <stop offset="0.52" stop-color="#fc6582"/>
      <stop offset="0.79" stop-color="#fa6694"/>
      <stop offset="0.99" stop-color="#fa669a"/>
      <stop offset="1" stop-color="#fa669a"/>
    </linearGradient>
    <linearGradient id="linear-gradient-60" x1="-181" y1="1279.44" x2="-181.91" y2="1279.44" gradientTransform="matrix(24.12, -7.84, -7.8, -24, 14422.31, 29405.87)" xlink:href="#linear-gradient-13"/>
    <linearGradient id="linear-gradient-61" x1="-190.27" y1="1228.81" x2="-189.27" y2="1228.81" gradientTransform="matrix(11.23, -3.65, -3.63, -11.17, 6660.03, 13141.33)" gradientUnits="userSpaceOnUse">
      <stop offset="0" stop-color="#d8d8d8"/>
      <stop offset="0.76" stop-color="#c9c9c9"/>
      <stop offset="1" stop-color="#c3c3c3"/>
    </linearGradient>
    <linearGradient id="linear-gradient-62" x1="-188.29" y1="1227.19" x2="-190.23" y2="1227.19" gradientTransform="matrix(11.03, -3.59, -3.57, -10.98, 6532.84, 12927.72)" xlink:href="#linear-gradient-18"/>
    <linearGradient id="linear-gradient-63" x1="-205.43" y1="1132.99" x2="-204.43" y2="1132.99" gradientTransform="matrix(5.58, -1.81, -1.8, -5.55, 3244.39, 6056.59)" xlink:href="#linear-gradient"/>
    <linearGradient id="linear-gradient-64" x1="-153.11" y1="1192.64" x2="-154.38" y2="1192.64" gradientTransform="translate(1905.39 10152.79) rotate(162) scale(8.54 8.49)" xlink:href="#linear-gradient-59"/>
    <linearGradient id="linear-gradient-65" x1="-164.23" y1="1261.82" x2="-165.15" y2="1261.82" gradientTransform="translate(4215.51 22664.92) rotate(162) scale(18.12 18.02)" xlink:href="#linear-gradient-13"/>
    <linearGradient id="linear-gradient-66" x1="-154.24" y1="1190.94" x2="-153.24" y2="1190.94" gradientTransform="matrix(-8.02, 2.61, -2.59, -7.98, 1872.48, 10007.17)" xlink:href="#linear-gradient-61"/>
    <linearGradient id="linear-gradient-67" x1="-151.63" y1="1188.67" x2="-153.58" y2="1188.67" gradientTransform="translate(1856.3 9830.33) rotate(162) scale(8.29 8.24)" xlink:href="#linear-gradient-18"/>
    <linearGradient id="linear-gradient-68" x1="-132.9" y1="1056.78" x2="-131.9" y2="1056.78" gradientTransform="translate(871.77 4479.07) rotate(162) scale(4.19 4.17)" xlink:href="#linear-gradient"/>
  </defs>
  <title>corrected.story-mode-long.c49b1a6a</title>
  <g id="Story-mode-ill-desktop">
    <g id="Screen-Shot-2019-03-07-at-2.39.34-PM">
      <g id="Group-4">
        <g id="Bitmap">
          <g mask="url(#mask)">
            <g id="Group-11">
              <g>
                <g id="Combined-Shape">
                  <path id="path-4-3" data-name="path-4" d="M137,82.8q44-21.39,87.26-25.09C267.75,54,326,122.23,346.08,147.59s80.24,12.06,102.76-9.37S521,55,555.25,57q34.25,2,77.67,26.16l-.14-.17.14.1c5.32,3.75,57.78,43.45,36.67,76.56q-13.2,20.72-34.17,17.87a6.61,6.61,0,0,0-1.63-.83c-37-12.42-40.11-26.94-68.69-43.69s-44.05,11.41-70.73,30-61,46.4-103.69,46-84.83-39.88-114.27-61.58-39.3-20.76-78,6.45q-38.72,27.21-54.54,31.87-49.5,5-46.49-35.12c3.19-42.68,34.63-64.81,39-67.46Z" transform="translate(-8.82 -4.5)" fill="url(#radial-gradient)"/>
                </g>
                <g mask="url(#mask-2-2)">
                  <path id="Path" d="M241.25,161.73h8.34c6.87,0,13-5.16,13.39-12a12.71,12.71,0,0,0-12.67-13.41h-1.49a7.46,7.46,0,0,1-7.42-5.79,7.27,7.27,0,0,1,6.79-8.75c5.5-.23,10.46-4.09,11.11-9.58a10.9,10.9,0,0,0-10.8-12.24H225.66c-6.87,0-13-5.16-13.39-12a12.72,12.72,0,0,1,12.67-13.42H234c6.87,0,13-5.16,13.39-12A12.71,12.71,0,0,0,234.72,49H107.13V63.55H69.78c-6.87,0-13,5.16-13.39,12A12.71,12.71,0,0,0,69.06,89H96.25v25.45H47.31a9.08,9.08,0,0,0-9.06,9.1h0a9.08,9.08,0,0,0,9.06,9.09h3.63A9.08,9.08,0,0,1,60,141.73h0a9.08,9.08,0,0,1-9.06,9.09H42.49c-5.89,0-11.17,4.42-11.47,10.32a10.9,10.9,0,0,0,10.86,11.5H59.61a7.52,7.52,0,0,1,7.54,6.05A7.27,7.27,0,0,1,60,187.18H57c-5.89,0-11.17,4.42-11.47,10.33A10.89,10.89,0,0,0,56.38,209H194.13v-3.64h46.58c5.74,0,10.89-4.22,11.38-10a10.9,10.9,0,0,0-10.89-11.86c-3.72,0-7.37-1.58-9.18-4.85C227.35,170.27,233.3,161.73,241.25,161.73Z" transform="translate(-8.82 -4.5)" fill="url(#radial-gradient-2)"/>
                </g>
                <g mask="url(#mask-3)">
                  <path id="Path-2" data-name="Path" d="M690.25,138.07h8.34A13.48,13.48,0,0,0,712,125.35c.39-7.75-5.44-14.17-12.67-14.17h-1.49a7.69,7.69,0,0,1-.63-15.35A11.61,11.61,0,0,0,708.3,85.71c.78-7-4.36-12.94-10.8-12.94H674.66a13.48,13.48,0,0,1-13.39-12.72c-.39-7.75,5.44-14.16,12.67-14.16H683a13.48,13.48,0,0,0,13.39-12.72C696.77,25.41,691,19,683.72,19H556.13V34.36H518.78a13.48,13.48,0,0,0-13.39,12.72c-.38,7.76,5.44,14.17,12.67,14.17h27.19V88.14H496.31a9.34,9.34,0,0,0-9.06,9.6h0a9.35,9.35,0,0,0,9.06,9.6h3.63a9.35,9.35,0,0,1,9.06,9.6h0a9.35,9.35,0,0,1-9.06,9.61h-8.45A11.54,11.54,0,0,0,480,137.45c-.33,6.64,4.66,12.14,10.86,12.14h17.73a7.64,7.64,0,0,1,7.54,6.39c.74,4.81-2.75,9-7.15,9h-3a11.55,11.55,0,0,0-11.47,10.91c-.33,6.64,4.66,12.14,10.86,12.14H643.13v-3.84h46.58a11.49,11.49,0,0,0,11.38-10.52c.54-6.83-4.54-12.56-10.89-12.53A10,10,0,0,1,681,156C676.35,147.09,682.3,138.07,690.25,138.07Z" transform="translate(-8.82 -4.5)" fill="url(#radial-gradient-3)"/>
                </g>
              </g>
            </g>
          </g>
          <g mask="url(#mask)">
            <path id="Path-6" d="M106,182c11.49-4.18,20.86-9.82,29.88-20.79,6.81-8.29,13.52-15.79,22.83-32.12l2.84-5C173.53,103.2,179.51,91,189.13,81.69c12.22-11.8,25.61-20.39,43.42-20.87C248,60.4,257.91,67.5,270,77,279.64,84.6,286.7,96,300.32,114c.59.77,2.7,3.58,3.14,4.15,14.86,19.64,26.92,27.34,38.24,36.25,15,11.83,31.61,14.83,51.37,14.83,19.57,0,35.23-2.76,48.74-14.21,10.07-8.53,21.71-16,34.91-35.78l.48-.72c9.8-16,15.76-22,24.71-29,12.83-10.16,24.52-16.74,43.17-16.19,20.88.62,38.22,8,48.15,19,9.64,10.71,12.11,13.18,26.4,33.53a11.7,11.7,0,0,1,.64,1.14c.32.57.29.57.64,1.15,9.28,15.43,12.31,18.51,19.9,26.29,8,8.21,22,15.29,34.43,19.7,2.61.93,4.55,2.61,5.47,0s-4.4-4.91-6-5.94c-8.7-5.5-19.47-13.25-23.94-19.67-6.68-9.57-6.34-9.5-16.29-24.38a11,11,0,0,1-.64-1.15c-.32-.57-.42-.81-.64-1.15-13.75-21.14-22.68-27.53-33.29-37-14-12.52-31.62-19.3-54.81-20C524,64.2,510.28,70.19,493,81.69c-11.78,7.81-16.24,14.72-29.12,30.23l-.48.71c-12.68,19-18.89,27-28,34.74-11.74,9.94-25.11,15-42.28,15-17.43,0-31.85-5.37-45.19-15.86-10.43-8.21-17.34-19.07-31.69-38.05L313,104.32C298.92,85.65,290,78.2,279.45,69.94,265.56,59,250.44,53.55,232.55,54c-20.39.55-36.74,7.84-50.7,21.33-10.52,10.16-19.76,19.11-32.16,40.85l-2.84,5c-9,15.85-12.33,26-18.67,33.7-8,9.68-15.89,18.73-25.52,22.23-2.6.95-4.3,1.21-3.36,3.81S103.44,183,106,182Z" transform="translate(-8.82 -4.5)" fill="url(#linear-gradient)"/>
          </g>
          <g mask="url(#mask)">
            <g id="Group-6">
              <g>
                <path id="Rectangle" d="M184.22,41.24h5.7V68.46c-1.22,1.06-2.17,1.83-2.85,2.33a34.71,34.71,0,0,0-2.85,2.42Z" transform="translate(-8.82 -4.5)" fill="url(#linear-gradient-2)"/>
                <polygon id="Rectangle-Copy-2" points="189.58 35 195.27 35 195.27 57.31 189.58 58.65 189.58 35" fill="url(#linear-gradient-3)"/>
                <g id="Combined-Shape-Copy-6">
                  <g id="Mask-18" data-name="Mask">
                    <path id="path-12-2" data-name="path-12" d="M176.83,41.33h-5a1.47,1.47,0,0,1-1.47-1.47,1.49,1.49,0,0,1,.25-.82l7.67-11.33h-3.17a1.46,1.46,0,0,1-1.47-1.46,1.49,1.49,0,0,1,.26-.84L186.25,7.63a1.46,1.46,0,0,1,2-.37,1.34,1.34,0,0,1,.32.31l13.78,17.78a1.47,1.47,0,0,1-.27,2.06,1.43,1.43,0,0,1-.89.3h-4.08L205.69,39a1.48,1.48,0,0,1-1.17,2.36h-6.23L210.1,56.79a1.47,1.47,0,0,1-.28,2.06,1.49,1.49,0,0,1-.89.3H167.45A1.47,1.47,0,0,1,166,57.68a1.46,1.46,0,0,1,.26-.83Z" transform="translate(-8.82 -4.5)" fill="url(#linear-gradient-4)"/>
                  </g>
                  <g mask="url(#mask-7)">
                    <path d="M184.4,48.12h-3.73a1.47,1.47,0,0,1-1.47-1.47,1.49,1.49,0,0,1,.25-.82l7.36-10.95h-3.7a1.46,1.46,0,0,1-1.46-1.47,1.49,1.49,0,0,1,.26-.84l11.42-16.51a1.46,1.46,0,0,1,2-.37,1.22,1.22,0,0,1,.33.31l12.78,16.51a1.47,1.47,0,0,1-1.16,2.37H204l8.19,10.89a1.48,1.48,0,0,1-.29,2,1.51,1.51,0,0,1-.88.3h-6.09l10.87,14.5a1.48,1.48,0,0,1-.3,2.06,1.45,1.45,0,0,1-.88.29H175.86a1.46,1.46,0,0,1-1.46-1.47,1.51,1.51,0,0,1,.24-.82Z" transform="translate(-8.82 -4.5)" fill="url(#linear-gradient-5)"/>
                  </g>
                </g>
                <path id="Combined-Shape-2" data-name="Combined-Shape" d="M191.74,44.5h-2.69A1.47,1.47,0,0,1,187.58,43a1.43,1.43,0,0,1,.26-.82l5.8-8.54h-2.16A1.47,1.47,0,0,1,190,32.2a1.43,1.43,0,0,1,.26-.83L200,17.27a1.46,1.46,0,0,1,2-.38,1.93,1.93,0,0,1,.33.31l10.89,14.1a1.48,1.48,0,0,1-1.17,2.37h-2.85l6.45,8.48a1.47,1.47,0,0,1-.28,2.05,1.45,1.45,0,0,1-.89.3h-3.58l8.33,10.88a1.47,1.47,0,0,1-.27,2.06,1.43,1.43,0,0,1-.89.3H185.46A1.46,1.46,0,0,1,184,56.27a1.42,1.42,0,0,1,.25-.82Z" transform="translate(-8.82 -4.5)" fill="url(#linear-gradient-6)"/>
              </g>
            </g>
          </g>
          <g mask="url(#mask)">
            <path id="Path-7" d="M124.57,166.09q36.27-52.84,49-73.83c12.69-21,38.45-37.73,60.94-35.16S280,70.54,306.54,108s51,58.09,91,58.09,61.34-39,81.55-64.22,47.31-35,68.34-32.64,46.76,6.35,71,43.7q24.26,37.37,43.69,53.16" transform="translate(-8.82 -4.5)" fill="none" stroke-linecap="round" stroke-width="2" stroke-dasharray="8 15" stroke="url(#linear-gradient-7)"/>
          </g>
        </g>
        <g id="icons8-binoculars">
          <path id="Path-4-4" data-name="Path" d="M261.65,57.76A3.61,3.61,0,0,1,258.8,62l-.59.11A3,3,0,0,0,259.35,68l6.5-1.26a3.61,3.61,0,0,1,1.38,7.08L220,83a3.61,3.61,0,1,1-1.38-7.09l6.49-1.26A3,3,0,0,0,224,68.77l-25.4,4.94a3.61,3.61,0,0,1-1.37-7.09l.59-.12a3,3,0,1,0-1.15-5.9l-1.18.23a3,3,0,1,1-1.15-5.91L212,51.48a3,3,0,0,0,1.92-1.27,3,3,0,0,0-3.07-4.64l-5.32,1-.92-4.72,15.36-3-1.65-8.49a3.44,3.44,0,0,1-1.14.45l-22.44,4.37a3.61,3.61,0,0,1-1.38-7.09l7.68-1.49a3,3,0,1,0-1.15-5.91l-3.54.69a3,3,0,0,1-3.58-3.21,3.09,3.09,0,0,1,2.54-2.72l49.49-9.62a3,3,0,0,1,3.58,3.2,3.1,3.1,0,0,1-2.54,2.73l-7,1.35a1.81,1.81,0,0,0,.69,3.55l15.1-2.93a3.73,3.73,0,0,1,4.18,2.13,3.62,3.62,0,0,1-2.65,4.93l-1.67.32a2.41,2.41,0,0,0,.92,4.73l5.32-1a3,3,0,0,1,3.58,3.2,3.09,3.09,0,0,1-2.54,2.72l-13.48,2.61a2.41,2.41,0,0,0,.92,4.73l.59-.12c1.89-.36,4,2.32,3.81,4.39a3.08,3.08,0,0,1-2.54,2.72l-3.43.67a1.81,1.81,0,0,0-1.43,2.12c.19,1-1.82,2.19-.84,2a3,3,0,0,1,3.58,3.2c-.1,1.37,0,2.24-1.36,2.5l-5.32,1,4.47.36,10.64-2.07A3.6,3.6,0,0,1,261.65,57.76Z" transform="translate(-8.82 -4.5)" fill-opacity="0" fill="url(#radial-gradient-4)"/>
          <path id="Path-5" data-name="Path" d="M238.62,40.17h0a8.43,8.43,0,0,0,6.66-9.87l-1.15-5.91a8.44,8.44,0,0,0-9.87-6.66h0a8.44,8.44,0,0,0-6.66,9.88l1.15,5.9A8.43,8.43,0,0,0,238.62,40.17Z" transform="translate(-8.82 -4.5)" fill="url(#linear-gradient-8)"/>
          <path id="Path-6-2" data-name="Path" d="M217.36,44.31h0A8.45,8.45,0,0,0,224,34.43l-1.15-5.91A8.45,8.45,0,0,0,213,21.86h0a8.45,8.45,0,0,0-6.66,9.88l1.15,5.9A8.45,8.45,0,0,0,217.36,44.31Z" transform="translate(-8.82 -4.5)" fill="url(#linear-gradient-9)"/>
          <path id="Path-7-2" data-name="Path" d="M255,29.89a10.83,10.83,0,0,0-11.54-5.37l-18.26,3.55L207,31.62a10.83,10.83,0,0,0-8.68,9.3l-2,16.68,33.59-5.91,33.36-7.11Z" transform="translate(-8.82 -4.5)" fill="url(#linear-gradient-10)"/>
          <path id="Path-8" data-name="Path" d="M210.47,30.93l-3.5.69a10.83,10.83,0,0,0-8.68,9.3l-2,16.68,1.87-.33,3.41-6.21,7.67-1.49a3,3,0,1,0-1.14-5.9l-1.18.23A3,3,0,0,1,205.72,38l5.9-1.15a3,3,0,0,0-1.15-5.91" transform="translate(-8.82 -4.5)" fill="url(#linear-gradient-11)"/>
          <path id="Path-9" data-name="Path" d="M220.94,37.48a2.41,2.41,0,1,0,2.82,1.91,2.4,2.4,0,0,0-2.82-1.91" transform="translate(-8.82 -4.5)" fill="url(#linear-gradient-12)"/>
          <circle id="Oval" cx="230.06" cy="52.87" r="6.02" transform="translate(-14.68 40.37) rotate(-11)" fill="url(#linear-gradient-13)"/>
          <circle id="Oval-2" data-name="Oval" cx="211.15" cy="59.61" r="15.04" transform="translate(-16.32 36.89) rotate(-11)" fill="url(#linear-gradient-14)"/>
          <circle id="Oval-3" data-name="Oval" cx="250.12" cy="52.04" r="15.04" transform="translate(-14.15 44.18) rotate(-11)" fill="url(#linear-gradient-15)"/>
          <circle id="Oval-4" data-name="Oval" cx="211.15" cy="59.61" r="9.02" transform="translate(-16.32 36.89) rotate(-11)" fill="url(#linear-gradient-16)"/>
          <circle id="Oval-5" data-name="Oval" cx="250.12" cy="52.04" r="9.02" transform="translate(-14.15 44.18) rotate(-11)" fill="url(#linear-gradient-17)"/>
        </g>
        <g id="icons8-faq">
          <path id="Path-10" data-name="Path" d="M341.16,133.4a6,6,0,0,1-6.64-6.59,6.15,6.15,0,0,1,5.58-5.32L370,118.36c2.81-.72,4-2.8,3.67-6.26s-2-5.34-4.93-5.63L344,109.05a6.17,6.17,0,0,1-6.57-4,6,6,0,0,1,5.12-7.83l19.74-2.06a3.42,3.42,0,1,0-.72-6.8l-7.52.78a6.17,6.17,0,0,1-6.57-4,6,6,0,0,1,5.11-7.82l68.48-7.17a6.18,6.18,0,0,1,6.57,4.06,6,6,0,0,1-5.11,7.82l-4.3.45a3.42,3.42,0,1,0,.72,6.8l11-1.15a6.18,6.18,0,0,1,6.57,4,6,6,0,0,1-5.11,7.83l-1.12.12a25.6,25.6,0,0,0-22.8,28.13v0h0l31.57-3.3a6.16,6.16,0,0,1,6.56,4,6,6,0,0,1-5.11,7.83l-.86.09a3.41,3.41,0,1,0,.72,6.79l.66-.06a6.17,6.17,0,0,1,6.57,4,6,6,0,0,1-5.12,7.82l-36.25,3.79a4.11,4.11,0,0,0-3.67,4.49l0,.39a4.1,4.1,0,0,0,4.53,3.62l8.58-.89a6.17,6.17,0,0,1,6.57,4,6,6,0,0,1-5.11,7.82l-66.77,7a6.19,6.19,0,0,1-6.57-4.05,6,6,0,0,1,5.12-7.83l5.35-.56a4.08,4.08,0,0,0,3.66-4.48l0-.39a4.1,4.1,0,0,0-4.52-3.63,6.17,6.17,0,0,1-6.57-4.05,6,6,0,0,1,5.11-7.83l21.47-2.24-2.16-20.4Z" transform="translate(-8.82 -4.5)" fill-opacity="0" fill="url(#radial-gradient-5)"/>
          <g id="icons8-cheap-2">
            <path id="Path-11" data-name="Path" d="M364.58,110.19a14.92,14.92,0,1,1-14.91-14.83A14.87,14.87,0,0,1,364.58,110.19Z" transform="translate(-8.82 -4.5)" fill="url(#linear-gradient-18)"/>
            <path id="Shape" d="M349.67,95.36a14.83,14.83,0,1,0,14.91,14.83A14.89,14.89,0,0,0,349.67,95.36Zm9.64,22.77a1.22,1.22,0,0,0-.7-.23,1.18,1.18,0,0,0-1,1.88,13,13,0,0,1-2.06,1.38,1.2,1.2,0,0,0-1.15-.89,1.19,1.19,0,0,0-1.19,1.19,1.17,1.17,0,0,0,.17.61,12.07,12.07,0,0,1-2.57.51,1.19,1.19,0,0,0-2.37,0,12.07,12.07,0,0,1-2.57-.51,1.18,1.18,0,0,0,.18-.61,1.19,1.19,0,0,0-2.35-.3,13,13,0,0,1-2.06-1.38,1.12,1.12,0,0,0,.23-.69,1.19,1.19,0,0,0-1.19-1.19,1.22,1.22,0,0,0-.7.23,13,13,0,0,1-1.39-2,1.18,1.18,0,0,0,.9-1.15,1.19,1.19,0,0,0-1.2-1.18,1.27,1.27,0,0,0-.61.17,11.89,11.89,0,0,1-.52-2.55,1.18,1.18,0,0,0,0-2.36,11.89,11.89,0,0,1,.52-2.55,1.17,1.17,0,0,0,.61.17,1.18,1.18,0,0,0,.3-2.33,13,13,0,0,1,1.39-2,1.22,1.22,0,0,0,.7.23,1.19,1.19,0,0,0,1.19-1.19,1.12,1.12,0,0,0-.23-.69,13,13,0,0,1,2.06-1.38,1.19,1.19,0,0,0,2.35-.3,1.18,1.18,0,0,0-.18-.61,12.07,12.07,0,0,1,2.57-.51,1.19,1.19,0,0,0,2.37,0,12.07,12.07,0,0,1,2.57.51,1.17,1.17,0,0,0-.17.61,1.19,1.19,0,0,0,1.19,1.19,1.2,1.2,0,0,0,1.15-.89,13,13,0,0,1,2.06,1.38,1.18,1.18,0,0,0,1,1.88,1.22,1.22,0,0,0,.7-.23,13,13,0,0,1,1.39,2,1.18,1.18,0,0,0,.3,2.33,1.18,1.18,0,0,0,.62-.17,12.53,12.53,0,0,1,.51,2.55,1.18,1.18,0,0,0,0,2.36,12.53,12.53,0,0,1-.51,2.55,1.28,1.28,0,0,0-.62-.17,1.18,1.18,0,0,0-.3,2.33A13,13,0,0,1,359.31,118.13Z" transform="translate(-8.82 -4.5)" fill="url(#linear-gradient-19)"/>
            <path id="Path-12-3" data-name="Path" d="M351.36,109.71,349,108.55a1,1,0,0,1-.56-1,1.07,1.07,0,0,1,1.08-.89h.11a1.28,1.28,0,0,1,1.19.81.6.6,0,0,0,.58.38h1.21a.59.59,0,0,0,.59-.68,3.61,3.61,0,0,0-2.38-2.68v-1.09a.9.9,0,0,0-1.79,0v.92a3.39,3.39,0,0,0-2.94,3.87,3.49,3.49,0,0,0,1.95,2.57l2.22,1.1a1,1,0,0,1,.55,1,1.06,1.06,0,0,1-1.08.88h-.1a1.28,1.28,0,0,1-1.2-.81.59.59,0,0,0-.57-.38h-1.22a.6.6,0,0,0-.59.69,3.63,3.63,0,0,0,2.38,2.67V117a.9.9,0,0,0,1.79,0v-.94a3.45,3.45,0,0,0,2.95-2.81A3.37,3.37,0,0,0,351.36,109.71Z" transform="translate(-8.82 -4.5)" fill="url(#linear-gradient-20)"/>
          </g>
          <g id="Group-65">
            <g id="Group-4-Copy">
              <ellipse id="Oval-6" data-name="Oval" cx="398.12" cy="90.41" rx="10.9" ry="10.95" transform="translate(139.11 408.53) rotate(-65)" fill="url(#linear-gradient-21)"/>
              <path id="Shape-2" data-name="Shape" d="M396.1,82.66a1.45,1.45,0,0,0-1.77,1l-.2.7-.68-.19a.72.72,0,0,0-.4,1.39l.68.2-.4,1.4-.68-.2a.73.73,0,0,0-.4,1.4l.68.19-.4,1.4-.68-.2a.73.73,0,0,0-.89.51.72.72,0,0,0,.49.89l.68.2-.4,1.39-.68-.19a.73.73,0,0,0-.4,1.4l.68.19-.2.7a1.45,1.45,0,0,0,1,1.79L400.28,99a1.45,1.45,0,0,0,1.77-1l3.2-11.18a1.44,1.44,0,0,0-1-1.78Zm-.4,1.39,8.19,2.35-3.21,11.18-8.19-2.35Zm.76,2.49-.6,2.1,5.46,1.56.6-2.09Zm-1,3.49-.4,1.4L400.52,93l.4-1.4Zm-.6,2.1-.4,1.4,5.46,1.56.4-1.39Z" transform="translate(-8.82 -4.5)" fill-rule="evenodd" opacity="0.35" fill="url(#linear-gradient-22)" style="isolation: isolate"/>
            </g>
            <path id="Rectangle-2" data-name="Rectangle" d="M423.59,126.8h5.46v26.05q-1.86,1-2.82,1.47c-.64.3-1.52.67-2.64,1.1Z" transform="translate(-8.82 -4.5)" fill="url(#linear-gradient-23)"/>
            <polygon id="Rectangle-Copy-2-2" data-name="Rectangle-Copy-2" points="403.05 127.38 408.51 127.38 408.51 153.72 403.05 155.62 403.05 127.38" fill="url(#linear-gradient-24)"/>
            <g id="Combined-Shape-Copy-6-2" data-name="Combined-Shape-Copy-6">
              <g id="Mask-19" data-name="Mask">
                <path id="path-35-2" data-name="path-35" d="M416.5,126.88h-4.75a1.39,1.39,0,0,1-1.16-2.19l7.34-10.76h-3a1.41,1.41,0,0,1-1.41-1.41,1.39,1.39,0,0,1,.26-.8l11.79-16.91a1.42,1.42,0,0,1,2-.35,1.64,1.64,0,0,1,.3.29L441,111.66a1.4,1.4,0,0,1-.25,2,1.34,1.34,0,0,1-.86.3H436l8.17,10.69a1.42,1.42,0,0,1-.26,2,1.47,1.47,0,0,1-.86.28h-6l11.3,14.7a1.4,1.4,0,0,1-1.11,2.26H407.51a1.41,1.41,0,0,1-1.4-1.41,1.39,1.39,0,0,1,.24-.79Z" transform="translate(-8.82 -4.5)" fill="url(#linear-gradient-25)"/>
              </g>
              <g mask="url(#mask-9)">
                <path d="M407.79,135.49h-3.56a1.41,1.41,0,0,1-1.41-1.41,1.43,1.43,0,0,1,.24-.78l7.05-10.41h-3.54a1.41,1.41,0,0,1-1.4-1.41,1.45,1.45,0,0,1,.25-.8L416.37,105a1.41,1.41,0,0,1,2-.35,1.64,1.64,0,0,1,.3.29l12.25,15.7a1.4,1.4,0,0,1-.24,2,1.37,1.37,0,0,1-.87.3h-3.22l7.85,10.34a1.41,1.41,0,0,1-1.12,2.26h-5.83l10.41,13.78a1.41,1.41,0,0,1-.28,2,1.36,1.36,0,0,1-.84.29H399.62a1.41,1.41,0,0,1-1.41-1.41,1.49,1.49,0,0,1,.24-.79Z" transform="translate(-8.82 -4.5)" fill="url(#linear-gradient-26)"/>
              </g>
            </g>
            <path id="Combined-Shape-3" data-name="Combined-Shape" d="M403.29,135.45h-2.57a1.4,1.4,0,0,1-1.4-1.4,1.42,1.42,0,0,1,.24-.8l5.56-8.1h-2.07a1.41,1.41,0,0,1-1.16-2.21l9.33-13.41a1.4,1.4,0,0,1,1.95-.35,1.42,1.42,0,0,1,.31.29l10.43,13.41a1.4,1.4,0,0,1-.24,2,1.43,1.43,0,0,1-.87.3h-2.72l6.17,8a1.4,1.4,0,0,1-1.12,2.26h-3.42l8,10.34a1.4,1.4,0,0,1-1.12,2.26H397.28a1.41,1.41,0,0,1-1.16-2.2Z" transform="translate(-8.82 -4.5)" fill="url(#linear-gradient-27)"/>
            <g id="Rectangle-3" data-name="Rectangle">
              <g id="Mask-20" data-name="Mask">
                <path id="path-40-5" data-name="path-40" d="M358.43,153.59q-2.42-1.43-5.23-2.83l17.11-29.15q7.43-2.69,11.24-4.54,3.52-1.72,10.76-6a1.26,1.26,0,0,1,1.73.44l.06.1,22.46,46.92q-8.56,4-23.23,4a72.39,72.39,0,0,1-27.61-5.29A80.94,80.94,0,0,1,358.43,153.59Z" transform="translate(-8.82 -4.5)" fill="url(#linear-gradient-28)"/>
              </g>
              <g mask="url(#mask-10)">
                <path d="M393.5,111.85v52.57l-26.23-4.82,25-48a.63.63,0,0,1,1.19.3Z" transform="translate(-8.82 -4.5)" fill="url(#linear-gradient-29)"/>
              </g>
              <g mask="url(#mask-11)">
                <path id="Path-20" d="M393.57,141l10.05,21.77c-4,.26-7.3.38-9.79.38s-6.08-.12-10.77-.38Z" transform="translate(-8.82 -4.5)" fill="url(#linear-gradient-30)"/>
              </g>
              <g mask="url(#mask-12)">
                <path id="Path-21" d="M393.5,141a124.21,124.21,0,0,1-4.68,12.41,58.84,58.84,0,0,1-5.4,8.63,18,18,0,0,0-.36-5.9,11.69,11.69,0,0,0-1.62-3.19,1.93,1.93,0,0,1,.38-2.59Z" transform="translate(-8.82 -4.5)" fill="url(#linear-gradient-31)"/>
              </g>
              <g mask="url(#mask-12)">
                <path id="Path-21-Copy" d="M393.5,141a96,96,0,0,0,4,11.35,78.82,78.82,0,0,0,5.73,9.69,37.91,37.91,0,0,1,1.08-5.9,12,12,0,0,1,1.61-3.17,1.92,1.92,0,0,0-.41-2.6Z" transform="translate(-8.82 -4.5)" fill="url(#linear-gradient-32)"/>
              </g>
            </g>
            <g id="Group-4-2" data-name="Group-4">
              <ellipse id="Oval-7" data-name="Oval" cx="365.33" cy="72.52" rx="14.44" ry="14.52" transform="translate(227.73 417.51) rotate(-81)" fill="url(#linear-gradient-33)"/>
              <path id="Shape-3" data-name="Shape" d="M365.63,65.75a2.59,2.59,0,1,0,2.7,2.58A2.64,2.64,0,0,0,365.63,65.75Zm0,1.48a1.11,1.11,0,1,1-1.15,1.1A1.13,1.13,0,0,1,365.63,67.23Zm-5.77.73a1.85,1.85,0,1,0,1.92,1.85A1.89,1.89,0,0,0,359.86,68Zm11.55,0a1.85,1.85,0,1,0,1.92,1.85A1.89,1.89,0,0,0,371.41,68Zm-11.55,1.28a.57.57,0,1,1,0,1.14.57.57,0,1,1,0-1.14Zm11.55,0a.57.57,0,1,1,0,1.14.57.57,0,1,1,0-1.14Zm-5.78,3.15a9.66,9.66,0,0,0-4.19,1,4.71,4.71,0,0,0-1.58-.3c-1.73,0-3.47,1-3.47,2.17v2.26h18.48V75.3c0-1.14-1.74-2.17-3.46-2.17a4.72,4.72,0,0,0-1.59.3A9.62,9.62,0,0,0,365.63,72.39Zm0,1.48c1.64,0,3.56.71,3.85,1.16v1h-7.7V75C362.07,74.58,364,73.87,365.63,73.87Zm-5.77.74a3,3,0,0,1,.43,0,1.26,1.26,0,0,0-.05.33v1.1h-2.31v-.73A2.63,2.63,0,0,1,359.86,74.61Zm11.55,0a2.62,2.62,0,0,1,1.92.74v.73H371V75a1.86,1.86,0,0,0,0-.33A2.86,2.86,0,0,1,371.41,74.61Z" transform="translate(-8.82 -4.5)" fill-rule="evenodd" opacity="0.44" fill="url(#linear-gradient-34)" style="isolation: isolate"/>
            </g>
          </g>
        </g>
        <g id="icons8-doughnut-chart">
          <g id="Group-2">
            <path id="Path-13" data-name="Path" d="M522.68,33.84l-1.81-.12a4.25,4.25,0,0,1-3.76-5.42,4.32,4.32,0,0,1,4.49-3l8.89.62a2.43,2.43,0,0,0,.34-4.84l-4.08-.28a4.33,4.33,0,0,1-4-3.64,4.25,4.25,0,0,1,4.48-4.84l27.07,1.89,1.81.13,28.88,2a4.25,4.25,0,0,1-.59,8.47l-1.8-.13a2.43,2.43,0,0,0-.34,4.84l6.48.45a4.32,4.32,0,0,1,4,3.64,4.25,4.25,0,0,1-4.48,4.84L572,37.3l-1,14.51,16.11,1.13a4.31,4.31,0,0,1,4,3.63,4.25,4.25,0,0,1-4.47,4.85l-.61-.05a2.43,2.43,0,0,0-.33,4.84l.6.05a4.25,4.25,0,0,1,3.76,5.42,4.31,4.31,0,0,1-4.49,3l-6.48-.45a2.43,2.43,0,0,0-.34,4.84l1.67.12a4.32,4.32,0,0,1,4,3.63A4.25,4.25,0,0,1,580,87.69L552.91,85.8l-1.81-.13-27.68-1.93a4.25,4.25,0,0,1,.59-8.47l.6,0a2.43,2.43,0,0,0,.34-4.84l-5.27-.37a4.33,4.33,0,0,1-4-3.63,4.25,4.25,0,0,1,4.48-4.84l15,1,1-14.52-14.91-1a4.32,4.32,0,0,1-4-3.63,4.25,4.25,0,0,1,4.48-4.85l.6,0a2.43,2.43,0,0,0,.34-4.84Z" transform="translate(-8.82 -4.5)" fill-opacity="0" fill="url(#radial-gradient-6)"/>
            <g id="Path-5-2" data-name="Path-5">
              <g id="Mask-21" data-name="Mask">
                <path id="path-50-2" data-name="path-50" d="M510.13,71.92a64.13,64.13,0,0,1,18.39-5.83,125.15,125.15,0,0,1,24.24-1L537,38.07a2.68,2.68,0,0,0-4.57-.12Z" transform="translate(-8.82 -4.5)" fill="url(#linear-gradient-35)"/>
              </g>
              <g mask="url(#mask-14)">
                <polygon points="535.3 45.5 533.82 38.15 516.08 64.83 526.39 66.24 535.3 45.5" opacity="0.34" fill="url(#linear-gradient-36)" style="isolation: isolate"/>
              </g>
            </g>
            <path id="Path-2-2" data-name="Path-2" d="M565.88,22.28,567,5.94a1.36,1.36,0,0,0-2.71-.19l-1.14,16.34a1.35,1.35,0,0,0,2.7.19Z" transform="translate(-8.82 -4.5)" fill="url(#linear-gradient-37)"/>
            <path id="Path-19" d="M567,5.94l15,1a.66.66,0,0,1,.62.71.62.62,0,0,1-.12.35L581,10.11l1.16,2.26a.67.67,0,0,1-.28.9.66.66,0,0,1-.36.08l-15-1Z" transform="translate(-8.82 -4.5)" fill="url(#linear-gradient-38)"/>
            <path id="Path-2-Copy" d="M532.13,65.52a169.55,169.55,0,0,1,19.5,0c7.71.56,18.35,2.27,25.59,5.37a125,125,0,0,1,13.92,7l-24.41-55a2.69,2.69,0,0,0-4.67-.44Z" transform="translate(-8.82 -4.5)" fill="url(#linear-gradient-39)"/>
            <path id="Combined-Shape-4" data-name="Combined-Shape" d="M582.63,43.78l-2-.14a1.35,1.35,0,1,1,.19-2.69l5.67.4A1.35,1.35,0,0,1,587.73,43l-1.16,5a1.35,1.35,0,1,1-2.64-.6l.34-1.47-20.59,14.9a1.36,1.36,0,0,1-1.92-.33l-5.37-7.81L536.61,65.52h-4.48L555.89,49.7a1.36,1.36,0,0,1,1.94.31l5.38,7.83Z" transform="translate(-8.82 -4.5)" fill="url(#linear-gradient-40)"/>
          </g>
        </g>
        <g id="Group-3">
          <g id="icons8-paste-special" opacity="0">
            <path id="Path-14" data-name="Path" d="M733.47,125.76l3.41.66c2.56.5,5.39-1.27,6.46-4.45,1.39-4.12-.4-8.28-3.56-8.9l-6.51-1.26a3.43,3.43,0,0,1-2.46-3.73c.14-2.43,1.9-4.23,3.67-4l3.09.59c2.45.48,4.94-1.71,5.55-4.88s-.87-6.13-3.32-6.61l-1.93-.37c-2.56-.5-4.52-3.2-4.32-6.55.26-4.34,3.47-7.53,6.64-6.91l2.66.51c2.57.5,5.39-1.27,6.47-4.45,1.39-4.12-.4-8.28-3.57-8.89l-15.54-3-8.88-1.72-27.86-5.42a7.81,7.81,0,0,0-9.15,6.17h0l-19.68-3.82c-2.57-.5-5.39,1.27-6.47,4.45-1.38,4.12.4,8.28,3.57,8.9l2.67.52c2.8.54,4.79,3.75,4.23,7.4-.6,3.9-3.59,6.63-6.55,6.06l-1.27-.25c-1.93-.38-4,1.08-4.72,3.54-.78,2.82.48,5.57,2.65,6a3.77,3.77,0,0,1,2.85,3.45c.41,3.68-2.17,6.61-4.71,6.12l-3.45-.67c-2.4-.47-5,1.44-5.74,4.53-.78,3.28.73,6.42,3.26,6.91l7.24,1.41a3.45,3.45,0,0,1,2.46,3.79c-.17,2.45-2,4.25-3.79,3.9l-1.23-.24c-2.41-.47-5,.3-5.76,3.38-.78,3.29,1.09,5.76,3.63,6.26l16.28,3.16,11.83,2.3L714.18,146l0-.11,14.58,2.84c2.34.45,4.87-1.36,5.66-4.34.88-3.37-.64-6.63-3.23-7.11A4.09,4.09,0,0,1,728,134C726.92,129.16,730.23,125.13,733.47,125.76Z" transform="translate(-8.82 -4.5)" fill="url(#radial-gradient-7)"/>
          </g>
          <g id="icons8-speed">
            <path id="Path-15" data-name="Path" d="M706.16,70A38,38,0,0,0,661.6,100.1a37.24,37.24,0,0,0,1.73,20.52c.61,1.6,2.8.06,3.62,1.57l5.84,1.13,47.56,9.25,4.51.88c1.1-.91.66,1.23,1.65.21a37.29,37.29,0,0,0,9.89-19A38.29,38.29,0,0,0,706.16,70Z" transform="translate(-8.82 -4.5)" fill="url(#linear-gradient-41)"/>
            <path id="Path-16" data-name="Path" d="M730.32,113.45a32,32,0,1,0-62.83-12.21A31.4,31.4,0,0,0,669.56,120l-6.93-1.35c.48,1.52.88,2.67,1.22,3.46a34.43,34.43,0,0,0,1.62,3.21l57.91,11.25,2.9-2.32,2.26-2.79L721.22,130A33.2,33.2,0,0,0,730.32,113.45Z" transform="translate(-8.82 -4.5)" fill="url(#linear-gradient-42)"/>
            <g id="Path-9-2" data-name="Path-9">
              <g id="Mask-22" data-name="Mask">
                <path id="path-60-4" data-name="path-60" d="M712.5,128.33a25,25,0,1,0-34.06-6.62L669.56,120l.29.79a32,32,0,1,1,51.6,9.29Z" transform="translate(-8.82 -4.5)" fill="#d8d8d8" fill-rule="evenodd"/>
              </g>
              <g mask="url(#mask-15)">
                <path d="M685.21,78.2l4,8.57-9.84,26.11-.25,11.17-16.51-4.68q1.89-32,2.42-31.84T685.21,78.2Z" transform="translate(-8.82 -4.5)" fill="url(#linear-gradient-43)"/>
              </g>
              <g mask="url(#mask-16)">
                <path id="Path-9-Copy-2" d="M722.84,86.53,715.9,93l-.66,27.89-4,10.46,17.06,1.84q10.21-30.33,9.68-30.43T722.84,86.53Z" transform="translate(-8.82 -4.5)" fill="url(#linear-gradient-44)"/>
              </g>
              <g mask="url(#mask-17)">
                <path id="Path-9-Copy" d="M727.5,91l-8.19,4.75-26.87-7.52-6.09,1L673,76.15q43.47-5,43.41-4.42T727.5,91Z" transform="translate(-8.82 -4.5)" fill="url(#linear-gradient-45)"/>
              </g>
            </g>
            <path id="Combined-Shape-5" data-name="Combined-Shape" d="M703.53,103.58,716.39,99l1.32,3.78-13.15,4.66c0,.19,0,.37-.08.56a5.8,5.8,0,1,1-11.39-2.21,5.69,5.69,0,0,1,6.8-4.59A5.81,5.81,0,0,1,703.53,103.58Z" transform="translate(-8.82 -4.5)" fill="url(#linear-gradient-46)"/>
          </g>
          <path id="Path-17" data-name="Path" d="M670.59,58.85a1,1,0,0,0-.75-.89l-5.09-1.28-.86-5.37a1,1,0,0,0-.79-.84,1,1,0,0,0-1,.49l-2.81,4.65L654,54.89a1,1,0,0,0-1,.54,1.11,1.11,0,0,0,.11,1.2l3.35,4.14-2.4,4.91a1.08,1.08,0,0,0,.14,1.18,1,1,0,0,0,1.1.27l5-2.09,3.81,3.79a.91.91,0,0,0,.49.26,1,1,0,0,0,.63-.09,1.07,1.07,0,0,0,.57-1l-.38-5.45L670,59.92A1.1,1.1,0,0,0,670.59,58.85Z" transform="translate(-8.82 -4.5)" fill="url(#linear-gradient-47)"/>
          <circle id="Oval-8" data-name="Oval" cx="698.86" cy="57.7" r="2" fill="url(#linear-gradient-48)"/>
          <circle id="Oval-Copy-3" cx="732.99" cy="57.71" r="1.5" fill="url(#linear-gradient-49)"/>
          <circle id="Oval-Copy-2" cx="671.16" cy="48.24" r="1" fill="url(#linear-gradient-50)"/>
          <circle id="Oval-Copy-4" cx="644.64" cy="77.21" r="1.5" fill="url(#linear-gradient-51)"/>
          <circle id="Oval-Copy-5" cx="744.24" cy="107.26" r="1" fill="url(#linear-gradient-52)"/>
          <path id="Path-Copy" d="M757.14,85.34a.78.78,0,0,0-.58-.69l-4-1-.67-4.17a.77.77,0,0,0-.61-.66.78.78,0,0,0-.81.38l-2.18,3.62-4.06-.56a.77.77,0,0,0-.79.42.85.85,0,0,0,.08.93l2.6,3.22-1.86,3.82a.84.84,0,0,0,.11.92.74.74,0,0,0,.85.21l3.86-1.62,3,2.94a.75.75,0,0,0,.39.21.68.68,0,0,0,.48-.08.84.84,0,0,0,.45-.81l-.3-4.24,3.62-2A.86.86,0,0,0,757.14,85.34Z" transform="translate(-8.82 -4.5)" fill="url(#linear-gradient-53)"/>
          <path id="Path-Copy-2" d="M721.71,42.28a.57.57,0,0,0-.41-.5l-2.83-.71-.48-3a.56.56,0,0,0-.44-.47.58.58,0,0,0-.58.27l-1.56,2.59-2.89-.4a.55.55,0,0,0-.57.3.61.61,0,0,0,.06.67l1.86,2.3-1.33,2.72a.61.61,0,0,0,.07.66.54.54,0,0,0,.62.15L716,45.72l2.12,2.1a.49.49,0,0,0,.27.15.54.54,0,0,0,.35,0,.62.62,0,0,0,.32-.58l-.22-3,2.59-1.44A.59.59,0,0,0,721.71,42.28Z" transform="translate(-8.82 -4.5)" fill="url(#linear-gradient-54)"/>
        </g>
        <ellipse id="Oval-9" data-name="Oval" cx="694.08" cy="145.59" rx="5" ry="34" transform="translate(527.58 832.53) rotate(-89)" fill="url(#radial-gradient-8)"/>
      </g>
      <g id="icons8-task">
        <path id="Path-18" data-name="Path" d="M101.71,128l3.3-1.08a5.47,5.47,0,0,0,3.89-5.79,5.27,5.27,0,0,0-6.85-4.29l-6.31,2.06A3.12,3.12,0,0,1,92,117.55a3,3,0,0,1,1.6-4.25l3-1a4.51,4.51,0,0,0,2.91-5.67h0a4.51,4.51,0,0,0-5.69-2.89l-1.87.61A5.48,5.48,0,0,1,85.4,102a5.27,5.27,0,0,1,3-7.49L91,93.64a5.48,5.48,0,0,0,3.89-5.8,5.27,5.27,0,0,0-6.86-4.28L73,88.45l-8.6,2.8L51.91,101.61,30,102.43l1.86,5.7-19.08,6.2a5.48,5.48,0,0,0-3.89,5.8,5.26,5.26,0,0,0,6.85,4.28l2.59-.84a5.48,5.48,0,0,1,6.83,3,5.27,5.27,0,0,1-3.3,6.89l-1.23.4a3.92,3.92,0,0,0-2.74,4.43,3.76,3.76,0,0,0,4.85,2.77h0a3.72,3.72,0,0,1,4,1A3.78,3.78,0,0,1,25,148.2l-3.34,1.08a4.7,4.7,0,0,0-3.23,5.53,4.51,4.51,0,0,0,5.76,3.11l7-2.28A3.12,3.12,0,0,1,35,157.05a3,3,0,0,1-1.74,4.25l-1.19.38a4.7,4.7,0,0,0-3.23,5.53,4.51,4.51,0,0,0,5.76,3.11l15.78-5.12,11.47-3.73,31.54-10.25-.46-1.43,14.13-4.59a4.66,4.66,0,0,0,3.23-5.36,4.51,4.51,0,0,0-5.82-3.26,4.23,4.23,0,0,1-4.25-.72A4.55,4.55,0,0,1,101.71,128Z" transform="translate(-8.82 -4.5)" fill-opacity="0" fill="url(#radial-gradient-9)"/>
        <path id="Path-19-2" data-name="Path" d="M70.64,86.06,54.87,91.19a6,6,0,0,1-11.48,3.73L27.62,100a7.54,7.54,0,0,0-4.85,9.46l18.08,55.64a7.53,7.53,0,0,0,9.48,4.8l43-14a7.55,7.55,0,0,0,4.85-9.47L80.13,90.87A7.55,7.55,0,0,0,70.64,86.06Z" transform="translate(-8.82 -4.5)" fill="url(#linear-gradient-55)"/>
        <ellipse id="Oval-10" data-name="Oval" cx="74.14" cy="175.65" rx="23" ry="5" transform="translate(-17.91 -0.38) rotate(-3)" fill="url(#radial-gradient-10)"/>
        <path id="Path-20-2" data-name="Path" d="M88.17,149.76,50.88,161.88A3,3,0,0,1,47.09,160L30.87,110a3,3,0,0,1,1.94-3.79L70.09,94.13a3,3,0,0,1,3.79,1.92L90.11,146A3,3,0,0,1,88.17,149.76Z" transform="translate(-8.82 -4.5)" fill="url(#linear-gradient-56)"/>
        <path id="Path-21-2" data-name="Path" d="M88.17,149.76,50.88,161.88A3,3,0,0,1,47.09,160L30.87,110a3,3,0,0,1,1.94-3.79L70.09,94.13a3,3,0,0,1,3.79,1.92L90.11,146A3,3,0,0,1,88.17,149.76Z" transform="translate(-8.82 -4.5)" fill="url(#linear-gradient-57)"/>
        <path id="Line" d="M50.24,127.29l18.47-6.37" transform="translate(-8.82 -4.5)" fill="none" stroke="#e6e6e6" stroke-linecap="round" stroke-width="2"/>
        <path id="Line-Copy-2" d="M45.24,136.48l25.63-8.9" transform="translate(-8.82 -4.5)" fill="none" stroke="#e6e6e6" stroke-linecap="round" stroke-width="2"/>
        <path id="Line-Copy-3" d="M48.24,143.48l26.69-9.86" transform="translate(-8.82 -4.5)" fill="none" stroke="#e6e6e6" stroke-linecap="round" stroke-width="2"/>
        <path id="Line-Copy" d="M51,152.28l18.46-6.37" transform="translate(-8.82 -4.5)" fill="none" stroke="#e6e6e6" stroke-linecap="round" stroke-width="2"/>
        <path id="Shape-4" data-name="Shape" d="M59.17,89.79a10.56,10.56,0,0,0-20.08,6.52l-5.73,1.87,2.78,8.56a4.51,4.51,0,0,0,5.69,2.88l22.94-7.46a4.5,4.5,0,0,0,2.91-5.67L64.9,87.93Zm-8.65,7.54a4.5,4.5,0,1,1,2.91-5.68A4.51,4.51,0,0,1,50.52,97.33Z" transform="translate(-8.82 -4.5)" fill="url(#linear-gradient-58)"/>
        <g id="Group">
          <path id="Path-22" data-name="Path" d="M90.45,110.86l-7-3.57a2.2,2.2,0,0,0-2.94,1l-1.69,3.3,10.92,5.53,1.7-3.3a2.17,2.17,0,0,0-1-2.92" transform="translate(-8.82 -4.5)" fill="url(#linear-gradient-59)"/>
          <polygon id="Path-23" data-name="Path" points="68.13 137.45 57.21 131.92 67.95 110.98 78.87 116.51 68.13 137.45" fill="url(#linear-gradient-60)"/>
          <polygon id="Path-24" data-name="Path" points="78.88 116.51 67.95 110.98 69.95 107.06 80.88 112.59 78.88 116.51" fill="url(#linear-gradient-61)"/>
          <polygon id="Path-25" data-name="Path" points="57.21 131.91 58 143.79 68.13 137.44 57.21 131.91" fill="url(#linear-gradient-62)"/>
          <polygon id="Path-26" data-name="Path" points="57.6 137.79 58 143.79 63.12 140.58 57.6 137.79" fill="url(#linear-gradient-63)"/>
        </g>
        <g id="Group-Copy">
          <path id="Path-27" data-name="Path" d="M19.33,113.17l2.57-5a1.57,1.57,0,0,1,2.1-.68l2.37,1.2-4,7.78L20,115.26a1.55,1.55,0,0,1-.68-2.09" transform="translate(-8.82 -4.5)" fill="url(#linear-gradient-64)"/>
          <polygon id="Path-28" data-name="Path" points="31.36 120.98 35.35 113.2 20.35 105.6 16.36 113.39 31.36 120.98" fill="url(#linear-gradient-65)"/>
          <polygon id="Path-29" data-name="Path" points="16.36 113.39 20.35 105.61 17.55 104.18 13.55 111.97 16.36 113.39" fill="url(#linear-gradient-66)"/>
          <polygon id="Path-30" data-name="Path" points="35.35 113.19 39.88 120.39 31.36 120.98 35.35 113.19" fill="url(#linear-gradient-67)"/>
          <polygon id="Path-31" data-name="Path" points="37.59 116.75 39.88 120.39 35.57 120.69 37.59 116.75" fill="url(#linear-gradient-68)"/>
        </g>
      </g>
    </g>
  </g>
</svg>
