<svg xmlns:xlink="http://www.w3.org/1999/xlink" data-v-677cb5b0="" width="24" height="24" viewBox="0 0 24 24" xmlns="http://www.w3.org/2000/svg" svg-inline="" role="presentation" focusable="false" tabindex="-1" class="icon"><path data-v-677cb5b0="" d="M7 2C5.355 2 4 3.355 4 5v15c0 1.645 1.355 3 3 3h13v-2H7c-.565 0-1-.435-1-1s.435-1 1-1h13V4H9.584C9.141 2.893 8.257 2 7 2zm0 2c.565 0 1 .435 1 1v12H7c-.352 0-.685.074-1 .188V5c0-.565.435-1 1-1zm3 2h8v11h-8V6zm2 2v2h4V8h-4zm0 4v2h4v-2h-4z" fill="#9295A7" fill-rule="evenodd"></path></svg>