<?xml version="1.0" encoding="UTF-8"?>
<svg width="38px" height="38px" viewBox="0 0 38 38" version="1.1" xmlns="http://www.w3.org/2000/svg"
>
    <!-- Generator: Sketch 55.2 (78181) - https://sketchapp.com -->
    <title>Group</title>
    <desc>Created with Sketch.</desc>
    <g id="Design" stroke="none" stroke-width="1" fill="none" fill-rule="evenodd">
        <g id="[desktop]One-page-plan---empty" transform="translate(-320.000000, -667.000000)" fill="#3E474F">
            <g id="content" transform="translate(310.000000, 274.000000)">
                <g id="tasks" transform="translate(0.000000, 43.000000)">
                    <g id="Group-8-Copy-8" transform="translate(0.000000, 340.000000)">
                        <g id="Group" transform="translate(10.000000, 10.000000)">
                            <rect id="Rectangle" opacity="0.05" x="0" y="0" width="38" height="38" rx="4"></rect>
                            <path d="M12,10 C10.8954305,10 10,10.8954305 10,12 C10,13.1045695 10.8954305,14 12,14 C13.1045695,14 14,13.1045695 14,12 C14,10.8954305 13.1045695,10 12,10 Z M19,10 C17.8954305,10 17,10.8954305 17,12 C17,13.1045695 17.8954305,14 19,14 C20.1045695,14 21,13.1045695 21,12 C21,10.8954305 20.1045695,10 19,10 Z M26,10 C24.8954305,10 24,10.8954305 24,12 C24,13.1045695 24.8954305,14 26,14 C27.1045695,14 28,13.1045695 28,12 C28,10.8954305 27.1045695,10 26,10 Z M11,15 C9.895,15 9,15.895 9,17 L9,23 C9,24.105 9.895,25 11,25 L14,25 L14,28 L16,28 L16,24 L16,23 L14,23 L11,23 L11,21 L11,17 L13,17 L13,21 L25,21 L25,19 L25,17 L27,17 L27,21 L27,23 L24,23 L22,23 L22,25 L22,28 L24,28 L24,25 L27,25 C28.105,25 29,24.105 29,23 L29,17 C29,15.895 28.105,15 27,15 L25,15 C23.895,15 23,15.895 23,17 L23,19 L22,19 L22,17 C22,15.895 21.105,15 20,15 L18,15 C16.895,15 16,15.895 16,17 L16,19 L15,19 L15,17 C15,15.895 14.105,15 13,15 L11,15 Z M18,17 L20,17 L20,19 L18,19 L18,17 Z"
                                  id="Shape" fill-rule="nonzero" opacity="0.5"></path>
                        </g>
                    </g>
                </g>
            </g>
        </g>
    </g>
</svg>
