<?xml version="1.0" encoding="UTF-8" standalone="no"?>
<!-- Generator: Adobe Illustrator 19.0.0, SVG Export Plug-In . SVG Version: 6.00 Build 0)  -->

<svg
   xmlns:dc="http://purl.org/dc/elements/1.1/"
   xmlns:cc="http://creativecommons.org/ns#"
   xmlns:rdf="http://www.w3.org/1999/02/22-rdf-syntax-ns#"
   xmlns:svg="http://www.w3.org/2000/svg"
   xmlns="http://www.w3.org/2000/svg"
   xmlns:sodipodi="http://sodipodi.sourceforge.net/DTD/sodipodi-0.dtd"
   xmlns:inkscape="http://www.inkscape.org/namespaces/inkscape"
   version="1.1"
   id="Capa_1"
   x="0px"
   y="0px"
   viewBox="0 0 459.02649 518.36218"
   xml:space="preserve"
   sodipodi:docname="template_icon3.svg"
   inkscape:version="0.92.4 (5da689c313, 2019-01-14)"
   inkscape:export-filename="C:\Projects\Idea Buddy\#_DEV PHASE 2\Templates\template_icon.png"
   inkscape:export-xdpi="299.642"
   inkscape:export-ydpi="299.642"
   width="459.02649"
   height="518.36218"><metadata
   id="metadata186"><rdf:RDF><cc:Work
       rdf:about=""><dc:format>image/svg+xml</dc:format><dc:type
         rdf:resource="http://purl.org/dc/dcmitype/StillImage" /><dc:title></dc:title></cc:Work></rdf:RDF></metadata><defs
   id="defs184">
	
	
	
	
	
	
	
	
	
	
	
	
</defs><sodipodi:namedview
   pagecolor="#ffffff"
   bordercolor="#666666"
   borderopacity="1"
   objecttolerance="10"
   gridtolerance="10"
   guidetolerance="10"
   inkscape:pageopacity="0"
   inkscape:pageshadow="2"
   inkscape:window-width="1920"
   inkscape:window-height="1017"
   id="namedview182"
   showgrid="false"
   inkscape:zoom="0.828125"
   inkscape:cx="301.21415"
   inkscape:cy="194.16634"
   inkscape:window-x="-8"
   inkscape:window-y="-8"
   inkscape:window-maximized="1"
   inkscape:current-layer="Capa_1"
   fit-margin-top="0"
   fit-margin-left="0"
   fit-margin-right="0"
   fit-margin-bottom="0" />
<path
   inkscape:connector-curvature="0"
   style="fill:#dcdcdc;fill-opacity:1;stroke-width:1.00716937"
   d="M 453.83068,518.36218 H 8.519897 c -2.869192,0 -5.19581,-2.31946 -5.19581,-5.18207 V 8.5557337 c 0,-2.862612 2.325609,-5.1820721 5.19581,-5.1820721 H 453.83068 c 2.86919,0 5.19581,2.3194601 5.19581,5.1820721 V 513.18011 c -0.001,2.86261 -2.32662,5.18207 -5.19581,5.18207 z"
   id="path99-6"
   inkscape:export-xdpi="299.642"
   inkscape:export-ydpi="299.642" /><path
   style="fill:#f5f5f5;fill-opacity:1"
   d="M 446.708,512 H 5.152 C 2.307,512 0,509.694 0,506.848 V 5.152 C 0,2.306 2.306,0 5.152,0 h 441.556 c 2.845,0 5.152,2.306 5.152,5.152 v 501.696 c -0.001,2.846 -2.307,5.152 -5.152,5.152 z"
   id="path99"
   inkscape:export-xdpi="299.642"
   inkscape:export-ydpi="299.642"
   inkscape:connector-curvature="0" />




<path
   style="fill:#f7d95c"
   d="M 406.115,214.458 H 45.744 c -2.845,0 -5.152,-2.306 -5.152,-5.152 v -97.898 c 0,-2.845 2.306,-5.152 5.152,-5.152 h 360.372 c 2.845,0 5.152,2.306 5.152,5.152 v 97.898 c 0,2.845 -2.308,5.152 -5.153,5.152 z"
   id="path109"
   inkscape:export-xdpi="299.642"
   inkscape:export-ydpi="299.642"
   inkscape:connector-curvature="0" />

<path
   style="fill:#e44849"
   d="m 406.115,321.127 h -87.468 c -2.845,0 -5.152,-2.306 -5.152,-5.152 v -65.96 c 0,-2.845 2.306,-5.152 5.152,-5.152 h 87.468 c 2.845,0 5.152,2.306 5.152,5.152 v 65.96 c 10e-4,2.845 -2.307,5.152 -5.152,5.152 z"
   id="path113"
   inkscape:export-xdpi="299.642"
   inkscape:export-ydpi="299.642"
   inkscape:connector-curvature="0" />

<path
   style="fill:#e44849"
   d="m 269.664,321.127 h -87.468 c -2.845,0 -5.152,-2.306 -5.152,-5.152 v -65.96 c 0,-2.845 2.306,-5.152 5.152,-5.152 h 87.468 c 2.845,0 5.152,2.306 5.152,5.152 v 65.96 c -10e-4,2.845 -2.307,5.152 -5.152,5.152 z"
   id="path117"
   inkscape:export-xdpi="299.642"
   inkscape:export-ydpi="299.642"
   inkscape:connector-curvature="0" />

<path
   style="fill:#e44849"
   d="M 133.212,321.127 H 45.744 c -2.845,0 -5.152,-2.306 -5.152,-5.152 v -65.96 c 0,-2.845 2.306,-5.152 5.152,-5.152 h 87.468 c 2.845,0 5.152,2.306 5.152,5.152 v 65.96 c 0,2.845 -2.306,5.152 -5.152,5.152 z"
   id="path121"
   inkscape:export-xdpi="299.642"
   inkscape:export-ydpi="299.642"
   inkscape:connector-curvature="0" />

<path
   inkscape:connector-curvature="0"
   id="path125"
   d="M 133.94014,365.737 H 45.015856 c -3.881774,0 -7.028667,-3.46 -7.028667,-7.728 0,-4.268 3.145983,-7.728 7.028667,-7.728 h 88.924284 c 3.88178,0 7.02867,3.46 7.02867,7.728 0,4.268 -3.14598,7.728 -7.02867,7.728 z"
   style="fill:#dcdcdc;fill-opacity:1;stroke-width:0.95368057"
   inkscape:export-xdpi="299.642"
   inkscape:export-ydpi="299.642" /><path
   inkscape:connector-curvature="0"
   id="path127"
   d="M 133.94014,399.74 H 45.015856 c -3.881774,0 -7.028667,-3.46 -7.028667,-7.728 0,-4.268 3.145983,-7.728 7.028667,-7.728 h 88.924284 c 3.88178,0 7.02867,3.46 7.02867,7.728 0,4.268 -3.14598,7.728 -7.02867,7.728 z"
   style="fill:#dcdcdc;fill-opacity:1;stroke-width:0.95368057"
   inkscape:export-xdpi="299.642"
   inkscape:export-ydpi="299.642" /><path
   inkscape:connector-curvature="0"
   id="path129"
   d="M 133.94014,433.743 H 45.015856 c -3.881774,0 -7.028667,-3.46 -7.028667,-7.728 0,-4.268 3.145983,-7.728 7.028667,-7.728 h 88.924284 c 3.88178,0 7.02867,3.46 7.02867,7.728 0,4.268 -3.14598,7.728 -7.02867,7.728 z"
   style="fill:#dcdcdc;fill-opacity:1;stroke-width:0.95368057"
   inkscape:export-xdpi="299.642"
   inkscape:export-ydpi="299.642" /><path
   inkscape:connector-curvature="0"
   id="path131"
   d="M 133.94014,467.746 H 45.015856 c -3.881774,0 -7.028667,-3.46 -7.028667,-7.728 0,-4.268 3.145983,-7.728 7.028667,-7.728 h 88.924284 c 3.88178,0 7.02867,3.46 7.02867,7.728 0,4.268 -3.14598,7.728 -7.02867,7.728 z"
   style="fill:#dcdcdc;fill-opacity:1;stroke-width:0.95368057"
   inkscape:export-xdpi="299.642"
   inkscape:export-ydpi="299.642" /><path
   inkscape:connector-curvature="0"
   id="path133"
   d="m 269.65384,365.737 h -87.44868 c -3.8174,0 -6.91211,-3.46 -6.91211,-7.728 0,-4.268 3.09381,-7.728 6.91211,-7.728 h 87.44868 c 3.8174,0 6.91211,3.46 6.91211,7.728 0,4.268 -3.09381,7.728 -6.91211,7.728 z"
   style="fill:#dcdcdc;fill-opacity:1;stroke-width:0.94573969"
   inkscape:export-xdpi="299.642"
   inkscape:export-ydpi="299.642" /><path
   inkscape:connector-curvature="0"
   id="path135"
   d="m 269.65384,399.74 h -87.44868 c -3.8174,0 -6.91211,-3.46 -6.91211,-7.728 0,-4.268 3.09381,-7.728 6.91211,-7.728 h 87.44868 c 3.8174,0 6.91211,3.46 6.91211,7.728 0,4.268 -3.09381,7.728 -6.91211,7.728 z"
   style="fill:#dcdcdc;fill-opacity:1;stroke-width:0.94573969"
   inkscape:export-xdpi="299.642"
   inkscape:export-ydpi="299.642" /><path
   inkscape:connector-curvature="0"
   id="path137"
   d="m 269.65384,433.743 h -87.44868 c -3.8174,0 -6.91211,-3.46 -6.91211,-7.728 0,-4.268 3.09381,-7.728 6.91211,-7.728 h 87.44868 c 3.8174,0 6.91211,3.46 6.91211,7.728 0,4.268 -3.09381,7.728 -6.91211,7.728 z"
   style="fill:#dcdcdc;fill-opacity:1;stroke-width:0.94573969"
   inkscape:export-xdpi="299.642"
   inkscape:export-ydpi="299.642" /><path
   inkscape:connector-curvature="0"
   id="path139"
   d="m 269.65384,467.746 h -87.44868 c -3.8174,0 -6.91211,-3.46 -6.91211,-7.728 0,-4.268 3.09381,-7.728 6.91211,-7.728 h 87.44868 c 3.8174,0 6.91211,3.46 6.91211,7.728 0,4.268 -3.09381,7.728 -6.91211,7.728 z"
   style="fill:#dcdcdc;fill-opacity:1;stroke-width:0.94573969"
   inkscape:export-xdpi="299.642"
   inkscape:export-ydpi="299.642" /><path
   inkscape:connector-curvature="0"
   id="path141"
   d="m 405.36852,365.737 h -85.97504 c -3.75304,0 -6.79556,-3.46 -6.79556,-7.728 0,-4.268 3.04164,-7.728 6.79556,-7.728 h 85.97504 c 3.75304,0 6.79556,3.46 6.79556,7.728 0,4.268 -3.04164,7.728 -6.79556,7.728 z"
   style="fill:#dcdcdc;fill-opacity:1;stroke-width:0.93773252"
   inkscape:export-xdpi="299.642"
   inkscape:export-ydpi="299.642" /><path
   inkscape:connector-curvature="0"
   id="path143"
   d="m 405.36852,399.74 h -85.97504 c -3.75304,0 -6.79556,-3.46 -6.79556,-7.728 0,-4.268 3.04164,-7.728 6.79556,-7.728 h 85.97504 c 3.75304,0 6.79556,3.46 6.79556,7.728 0,4.268 -3.04164,7.728 -6.79556,7.728 z"
   style="fill:#dcdcdc;fill-opacity:1;stroke-width:0.93773252"
   inkscape:export-xdpi="299.642"
   inkscape:export-ydpi="299.642" /><path
   inkscape:connector-curvature="0"
   id="path145"
   d="m 405.36852,433.743 h -85.97504 c -3.75304,0 -6.79556,-3.46 -6.79556,-7.728 0,-4.268 3.04164,-7.728 6.79556,-7.728 h 85.97504 c 3.75304,0 6.79556,3.46 6.79556,7.728 0,4.268 -3.04164,7.728 -6.79556,7.728 z"
   style="fill:#dcdcdc;fill-opacity:1;stroke-width:0.93773252"
   inkscape:export-xdpi="299.642"
   inkscape:export-ydpi="299.642" /><path
   inkscape:connector-curvature="0"
   id="path147"
   d="m 405.36852,467.746 h -85.97504 c -3.75304,0 -6.79556,-3.46 -6.79556,-7.728 0,-4.268 3.04164,-7.728 6.79556,-7.728 h 85.97504 c 3.75304,0 6.79556,3.46 6.79556,7.728 0,4.268 -3.04164,7.728 -6.79556,7.728 z"
   style="fill:#dcdcdc;fill-opacity:1;stroke-width:0.93773252"
   inkscape:export-xdpi="299.642"
   inkscape:export-ydpi="299.642" />
<g
   id="g151"
   transform="translate(-30.07)">
</g>
<g
   id="g153"
   transform="translate(-30.07)">
</g>
<g
   id="g155"
   transform="translate(-30.07)">
</g>
<g
   id="g157"
   transform="translate(-30.07)">
</g>
<g
   id="g159"
   transform="translate(-30.07)">
</g>
<g
   id="g161"
   transform="translate(-30.07)">
</g>
<g
   id="g163"
   transform="translate(-30.07)">
</g>
<g
   id="g165"
   transform="translate(-30.07)">
</g>
<g
   id="g167"
   transform="translate(-30.07)">
</g>
<g
   id="g169"
   transform="translate(-30.07)">
</g>
<g
   id="g171"
   transform="translate(-30.07)">
</g>
<g
   id="g173"
   transform="translate(-30.07)">
</g>
<g
   id="g175"
   transform="translate(-30.07)">
</g>
<g
   id="g177"
   transform="translate(-30.07)">
</g>
<g
   id="g179"
   transform="translate(-30.07)">
</g>
<path
   style="fill:#dcdcdc;fill-opacity:1;stroke-width:0.95368057"
   d="M 133.94014,365.737 H 45.015856 c -3.881774,0 -7.028667,-3.46 -7.028667,-7.728 0,-4.268 3.145983,-7.728 7.028667,-7.728 h 88.924284 c 3.88178,0 7.02867,3.46 7.02867,7.728 0,4.268 -3.14598,7.728 -7.02867,7.728 z"
   id="path345"
   inkscape:connector-curvature="0"
   inkscape:export-xdpi="299.642"
   inkscape:export-ydpi="299.642" /><rect
   style="fill:#dcdcdc;fill-opacity:1;stroke:none"
   id="rect394"
   width="57.811321"
   height="18.264151"
   x="354.75281"
   y="25.715521"
   rx="6.9402499"
   ry="8.4256296"
   inkscape:export-xdpi="299.642"
   inkscape:export-ydpi="299.642" /><rect
   style="fill:#dcdcdc;fill-opacity:1;stroke:none;stroke-width:1.21232879"
   id="rect472"
   width="18.891758"
   height="18.891758"
   x="326.69208"
   y="25.610723"
   rx="8.4138651"
   ry="11.174943"
   inkscape:export-xdpi="299.642"
   inkscape:export-ydpi="299.642" /></svg>