<?xml version="1.0" encoding="UTF-8"?>
<svg width="38px" height="38px" viewBox="0 0 38 38" version="1.1" xmlns="http://www.w3.org/2000/svg"
>
    <!-- Generator: Sketch 55.2 (78181) - https://sketchapp.com -->
    <title>Group 6</title>
    <desc>Created with Sketch.</desc>
    <g id="Design" stroke="none" stroke-width="1" fill="none" fill-rule="evenodd">
        <g id="[desktop]One-page-plan---empty" transform="translate(-920.000000, -327.000000)" fill="#3E474F">
            <g id="content" transform="translate(310.000000, 274.000000)">
                <g id="tasks" transform="translate(0.000000, 43.000000)">
                    <g id="Group-8-Copy-2" transform="translate(600.000000, 0.000000)">
                        <g id="Group-6" transform="translate(10.000000, 10.000000)">
                            <rect id="Rectangle" opacity="0.05" x="0" y="0" width="38" height="38" rx="4"></rect>
                            <path d="M18,9 C13.582,9 10,12.582 10,17 C10,22.004 13,21.429234 13,26.240234 L13,29 L22,29 L22,26 L24,26 C25.105,26 26,25.105 26,24 L26,21.021484 L27.425781,20.419922 C27.946781,20.200922 28.146797,19.564891 27.841797,19.087891 L25.947266,16.1171875 C25.509266,12.1141875 22.12,9 18,9 Z M18,11 C21.064,11 23.626938,13.2948906 23.960938,16.3378906 L24.011719,16.8007812 L24.263672,17.193359 L25.464844,19.076172 L25.222656,19.177734 L24,19.693359 L24,24 L20,24 L20,27 L15,27 L15,26.240234 C15,23.233234 13.9830156,21.764938 13.1660156,20.585938 C12.4890156,19.607938 12,18.902 12,17 C12,13.692 14.692,11 18,11 Z M18.136719,14.0019531 C17.909041,13.9917129 17.673672,14.0075313 17.435547,14.0507812 C16.2555469,14.2657812 15.2875938,15.2233906 15.0585938,16.4003906 C14.7565938,17.959391 15.663,19.341406 17,19.816406 L17,21.5 C17,21.776 17.224,22 17.5,22 L18.5,22 C18.776,22 19,21.776 19,21.5 L19,19.816406 C20.163,19.403406 21,18.304 21,17 C21,15.389125 19.730463,14.0736348 18.136719,14.0019531 Z M13.5,15 C13.2238576,15 13,15.2238576 13,15.5 C13,15.7761424 13.2238576,16 13.5,16 C13.7761424,16 14,15.7761424 14,15.5 C14,15.2238576 13.7761424,15 13.5,15 Z M22.5,15 C22.2238576,15 22,15.2238576 22,15.5 C22,15.7761424 22.2238576,16 22.5,16 C22.7761424,16 23,15.7761424 23,15.5 C23,15.2238576 22.7761424,15 22.5,15 Z M18,16 C18.552,16 19,16.448 19,17 C19,17.552 18.552,18 18,18 C17.448,18 17,17.552 17,17 C17,16.448 17.448,16 18,16 Z M13.5,18 C13.2238576,18 13,18.2238576 13,18.5 C13,18.7761424 13.2238576,19 13.5,19 C13.7761424,19 14,18.7761424 14,18.5 C14,18.2238576 13.7761424,18 13.5,18 Z M22.5,18 C22.2238576,18 22,18.2238576 22,18.5 C22,18.7761424 22.2238576,19 22.5,19 C22.7761424,19 23,18.7761424 23,18.5 C23,18.2238576 22.7761424,18 22.5,18 Z"
                                  id="Shape" fill-rule="nonzero" opacity="0.5"></path>
                        </g>
                    </g>
                </g>
            </g>
        </g>
    </g>
</svg>
