<svg width="19" height="19" viewBox="0 0 19 19" fill="none" xmlns="http://www.w3.org/2000/svg">
<path d="M17.0664 12.3809C17.8965 13.2109 17.8965 14.5723 17.0664 15.4023L15.2402 17.2285C14.4102 18.0586 13.0488 18.0586 12.2188 17.2285L10.0605 15.0703L11.1895 13.9414L13.3477 16.0996C13.5469 16.2988 13.9121 16.2988 14.1113 16.0996L15.9375 14.2734C16.1367 14.0742 16.1367 13.709 15.9375 13.5098L15.4062 12.9785L14.6426 13.7422C14.4434 13.9414 14.0781 13.9414 13.8789 13.7422C13.6797 13.543 13.6797 13.1777 13.8789 12.9785L14.6426 12.2148L13.7793 11.3516L14.9082 10.2227L17.0664 12.3809ZM4.05078 9.06055L1.89258 6.90234C1.0625 6.07227 1.0625 4.71094 1.89258 3.88086L3.71875 2.05469C4.54883 1.22461 5.91016 1.22461 6.74023 2.05469L8.89844 4.21289L7.76953 5.3418L6.90625 4.47852L6.14258 5.24219C5.94336 5.44141 5.57812 5.44141 5.37891 5.24219C5.17969 5.04297 5.17969 4.67773 5.37891 4.47852L6.14258 3.71484L5.61133 3.18359C5.41211 2.98438 5.04688 2.98438 4.84766 3.18359L3.02148 5.00977C2.82227 5.20898 2.82227 5.57422 3.02148 5.77344L5.17969 7.93164L4.05078 9.06055ZM2.92188 11.8828L13.0156 1.78906C13.8457 0.958984 15.207 0.958984 16.0371 1.78906L17.332 3.08398C17.4316 3.18359 17.5312 3.31641 17.5977 3.41602C18.1621 4.24609 18.0625 5.375 17.332 6.10547L7.23828 16.1992C7.20508 16.2324 7.13867 16.2656 7.10547 16.332C6.77344 16.5977 6.4082 16.7969 6.00977 16.9297L1.99219 18.0918C1.72656 18.1914 1.42773 18.125 1.22852 17.8926C0.996094 17.6934 0.929688 17.3945 0.996094 17.1289L2.19141 13.1113C2.32422 12.6465 2.58984 12.2148 2.92188 11.8828ZM3.71875 13.5762L2.95508 16.166L5.54492 15.4023C5.74414 15.3359 5.94336 15.2363 6.10938 15.0703L13.7129 7.4668L11.6211 5.4082L4.05078 13.0117C4.01758 13.0117 4.01758 13.0449 3.98438 13.0781C3.85156 13.2109 3.78516 13.377 3.71875 13.5762Z" fill="#081E4A"/>
</svg>
