<svg xmlns:xlink="http://www.w3.org/1999/xlink" height="34" viewBox="0 0 148 34" xmlns="http://www.w3.org/2000/svg" class="logo" width="148" ><defs><path id="a" d="M.113.123H6.29v6.185H.113z"></path></defs><g stroke-width="2px"><g transform="translate(19.872 .026)" stroke-width="2px"><path d="M3.202 6.308A3.09 3.09 0 006.29 3.216 3.09 3.09 0 003.2.123 3.09 3.09 0 00.114 3.216a3.09 3.09 " fill="#FFFFFF" stroke-width="2px"></path></g>
                        <path d="M26.423 13.321l2.987 5.18 2.967 5.144a22.218 22.218 0 000 0l2.59 4.49a.77.77 0 01-.667 1.156H.77a.77.77 0 01-.666-1.155l5.952-10.321 2.6-4.507a.766.766 0 011.271-.088 16.592 16.592 0 006.83 5.288l2.987-5.18 2.675-4.64a.769.769  " fill="#FFFFFF" stroke-width="2px"></path>
                    </g></svg>