<?xml version="1.0" encoding="UTF-8"?>
<svg width="38px" height="38px" viewBox="0 0 38 38" version="1.1" xmlns="http://www.w3.org/2000/svg"
>
    <!-- Generator: Sketch 55.2 (78181) - https://sketchapp.com -->
    <title>Group 4</title>
    <desc>Created with Sketch.</desc>
    <g id="Design" stroke="none" stroke-width="1" fill="none" fill-rule="evenodd">
        <g id="[desktop]One-page-plan---empty" transform="translate(-620.000000, -327.000000)" fill="#3E474F">
            <g id="content" transform="translate(310.000000, 274.000000)">
                <g id="tasks" transform="translate(0.000000, 43.000000)">
                    <g id="Group-8-Copy" transform="translate(300.000000, 0.000000)">
                        <g id="Group-4" transform="translate(10.000000, 10.000000)">
                            <rect id="Rectangle" opacity="0.05" x="0" y="0" width="38" height="38" rx="4"></rect>
                            <path d="M18,9 C13.582,9 10,12.582 10,17 C10,22.004 13,21.429234 13,26.240234 L13,29 L22,29 L22,26 L24,26 C25.105,26 26,25.105 26,24 L26,21.021484 L27.425781,20.419922 C27.946781,20.200922 28.146797,19.564891 27.841797,19.087891 L25.947266,16.1171875 C25.509266,12.1141875 22.12,9 18,9 Z M18,11 C21.064,11 23.626938,13.2948906 23.960938,16.3378906 L24.011719,16.8007812 L24.263672,17.193359 L25.464844,19.076172 L25.222656,19.177734 L24,19.693359 L24,24 L20,24 L20,27 L15,27 L15,26.240234 C15,23.233234 13.9830156,21.764938 13.1660156,20.585938 C12.4890156,19.607938 12,18.902 12,17 C12,13.692 14.692,11 18,11 Z M18,13 C15.954,13 15,14.79 15,16 L17,16 C17,15.835 17.174,15 18,15 C18.989,15 19,15.99 19,16 C19,17.054 17,19.025 17,20 L19,20 C19,19.014 21,17.422 21,16 C21,14.525 19.878,13 18,13 Z M17,21 L17,23 L19,23 L19,21 L17,21 Z"
                                  id="Shape" fill-rule="nonzero" opacity="0.5"></path>
                        </g>
                    </g>
                </g>
            </g>
        </g>
    </g>
</svg>
